<mxfile host="app.diagrams.net" modified="2022-12-12T15:33:21.033Z" agent="5.0 (Windows NT 10.0; Win64; x64) AppleWebKit/537.36 (KHTML, like Gecko) Chrome/108.0.0.0 Safari/537.36" etag="zYUujeAwuWbeJRpqiCMC" version="20.6.2" type="github">
  <diagram name="Page-1" id="1622d65d-c77d-c4b6-e0e7-3c11208c8684">
    <mxGraphModel dx="2560" dy="2541" grid="0" gridSize="10" guides="1" tooltips="1" connect="1" arrows="1" fold="1" page="1" pageScale="1.5" pageWidth="1169" pageHeight="826" background="none" math="0" shadow="0">
      <root>
        <mxCell id="0" style=";html=1;" />
        <mxCell id="1" style=";html=1;" parent="0" />
        <mxCell id="wVApdM7j8vLzc2VSNfJm-37" value="" style="shape=singleArrow;direction=north;whiteSpace=wrap;html=1;fontSize=22;fillColor=#E6E6E6;arrowWidth=0.5242656449552994;arrowSize=0.40303030303030646;strokeColor=none;" parent="1" vertex="1">
          <mxGeometry x="356.86" y="699" width="303" height="80" as="geometry" />
        </mxCell>
        <mxCell id="f99rPzXoqe__mbbNH6rX-1" value="" style="shape=singleArrow;direction=north;whiteSpace=wrap;html=1;fontSize=22;fontColor=#FF33FF;fillColor=#E6E6E6;arrowWidth=0.41666666666666097;arrowSize=0.45454545454545764;rotation=-90;strokeColor=none;" parent="1" vertex="1">
          <mxGeometry x="674.72" y="1018.75" width="120" height="62.5" as="geometry" />
        </mxCell>
        <mxCell id="869962fe87da545-4" value="" style="verticalLabelPosition=bottom;verticalAlign=top;html=1;strokeWidth=1;shape=mxgraph.basic.orthogonal_triangle;rounded=0;shadow=0;dashed=0;fontFamily=Tahoma;fontSize=10;fontColor=#FFFFFF;flipV=1;fillColor=#000000;strokeColor=none;opacity=50;" parent="1" vertex="1">
          <mxGeometry x="1255" y="201" width="140" height="40" as="geometry" />
        </mxCell>
        <mxCell id="869962fe87da545-7" value="" style="verticalLabelPosition=bottom;verticalAlign=top;html=1;strokeWidth=1;shape=mxgraph.basic.orthogonal_triangle;rounded=0;shadow=0;dashed=0;fontFamily=Tahoma;fontSize=10;fontColor=#FFFFFF;flipV=1;fillColor=#000000;strokeColor=none;opacity=50;" parent="1" vertex="1">
          <mxGeometry x="1258" y="447" width="140" height="40" as="geometry" />
        </mxCell>
        <mxCell id="869962fe87da545-10" value="" style="verticalLabelPosition=bottom;verticalAlign=top;html=1;strokeWidth=1;shape=mxgraph.basic.orthogonal_triangle;rounded=0;shadow=0;dashed=0;fontFamily=Tahoma;fontSize=10;fontColor=#FFFFFF;flipV=1;fillColor=#000000;strokeColor=none;opacity=50;" parent="1" vertex="1">
          <mxGeometry x="1258" y="697" width="140" height="40" as="geometry" />
        </mxCell>
        <mxCell id="869962fe87da545-2" value="" style="html=1;shadow=0;dashed=0;align=center;verticalAlign=middle;shape=mxgraph.arrows2.arrow;dy=0;dx=0;notch=30;rounded=0;strokeColor=none;strokeWidth=1;fillColor=#7FB61A;fontFamily=Tahoma;fontSize=10;fontColor=#FFFFFF;gradientColor=#1B622A;gradientDirection=east;" parent="1" vertex="1">
          <mxGeometry x="188" y="21" width="1210" height="180" as="geometry" />
        </mxCell>
        <mxCell id="869962fe87da545-8" value="&lt;svg xmlns=&quot;http://www.w3.org/2000/svg&quot; xmlns:xlink=&quot;http://www.w3.org/1999/xlink&quot; aria-hidden=&quot;true&quot; role=&quot;img&quot; id=&quot;footer-sample-full&quot; width=&quot;1em&quot; height=&quot;1em&quot; preserveAspectRatio=&quot;xMidYMid meet&quot; viewBox=&quot;0 0 32 32&quot; class=&quot;iconify iconify--vscode-icons&quot;&gt;&lt;path fill=&quot;#007acc&quot; d=&quot;M23.827 8.243a4.424 4.424 0 0 1 2.223 1.281a5.853 5.853 0 0 1 .852 1.143c.011.045-1.534 1.083-2.471 1.662c-.034.023-.169-.124-.322-.35a2.014 2.014 0 0 0-1.67-1c-1.077-.074-1.771.49-1.766 1.433a1.3 1.3 0 0 0 .153.666c.237.49.677.784 2.059 1.383c2.544 1.095 3.636 1.817 4.31 2.843a5.158 5.158 0 0 1 .416 4.333a4.764 4.764 0 0 1-3.932 2.815a10.9 10.9 0 0 1-2.708-.028a6.531 6.531 0 0 1-3.616-1.884a6.278 6.278 0 0 1-.926-1.371a2.655 2.655 0 0 1 .327-.208c.158-.09.756-.434 1.32-.761l1.024-.6l.214.312a4.771 4.771 0 0 0 1.35 1.292a3.3 3.3 0 0 0 3.458-.175a1.545 1.545 0 0 0 .2-1.974c-.276-.395-.84-.727-2.443-1.422a8.8 8.8 0 0 1-3.349-2.055a4.687 4.687 0 0 1-.976-1.777a7.116 7.116 0 0 1-.062-2.268a4.332 4.332 0 0 1 3.644-3.374a9 9 0 0 1 2.691.084Zm-8.343 1.483l.011 1.454h-4.63v13.148H7.6V11.183H2.97V9.755a13.986 13.986 0 0 1 .04-1.466c.017-.023 2.832-.034 6.245-.028l6.211.017Z&quot;&gt;&lt;/path&gt;&lt;/svg&gt;" style="html=1;shadow=0;dashed=0;align=center;verticalAlign=middle;shape=mxgraph.arrows2.arrow;dy=0;dx=0;notch=30;rounded=0;strokeColor=none;strokeWidth=1;fillColor=#5398DB;fontFamily=Tahoma;fontSize=10;fontColor=#FFFFFF;gradientColor=#1247B9;gradientDirection=east;" parent="1" vertex="1">
          <mxGeometry x="188" y="267" width="1210" height="180" as="geometry" />
        </mxCell>
        <mxCell id="869962fe87da545-11" value="" style="html=1;shadow=0;dashed=0;align=center;verticalAlign=middle;shape=mxgraph.arrows2.arrow;dy=0;dx=0;notch=30;rounded=0;strokeColor=#C73500;strokeWidth=1;fillColor=#fa6800;fontFamily=Tahoma;fontSize=10;gradientDirection=east;fontColor=#000000;" parent="1" vertex="1">
          <mxGeometry x="188" y="517" width="1210" height="182" as="geometry" />
        </mxCell>
        <mxCell id="869962fe87da545-18" value="研发云&lt;br&gt;-&lt;br&gt;云翼&lt;br&gt;-&lt;br&gt;云眼" style="text;html=1;strokeColor=#82b366;fillColor=#d5e8d4;align=center;verticalAlign=middle;whiteSpace=wrap;rounded=0;shadow=0;dashed=0;fontFamily=Verdana;fontSize=70;horizontal=1;direction=west;flipV=1;flipH=1;" parent="1" vertex="1">
          <mxGeometry x="1418" y="21" width="130" height="1153" as="geometry" />
        </mxCell>
        <mxCell id="869962fe87da545-20" value="&lt;font style=&quot;font-size: 36px;&quot;&gt;展现层&lt;/font&gt;" style="text;html=1;strokeColor=none;fillColor=none;align=right;verticalAlign=middle;whiteSpace=wrap;rounded=0;shadow=0;dashed=0;fontFamily=Helvetica;fontSize=150;fontColor=#FFFFFF;" parent="1" vertex="1">
          <mxGeometry x="228" y="24" width="160" height="89" as="geometry" />
        </mxCell>
        <mxCell id="869962fe87da545-24" value="" style="line;strokeWidth=4;direction=south;html=1;rounded=0;shadow=0;dashed=0;fillColor=none;gradientColor=#AD0002;fontFamily=Helvetica;fontSize=150;fontColor=#FFFFFF;align=right;strokeColor=#FFFFFF;" parent="1" vertex="1">
          <mxGeometry x="428" y="17" width="10" height="160" as="geometry" />
        </mxCell>
        <mxCell id="869962fe87da545-25" value="" style="line;strokeWidth=4;direction=south;html=1;rounded=0;shadow=0;dashed=0;fillColor=none;gradientColor=#AD0002;fontFamily=Helvetica;fontSize=150;fontColor=#FFFFFF;align=right;strokeColor=#FFFFFF;" parent="1" vertex="1">
          <mxGeometry x="428" y="277" width="10" height="160" as="geometry" />
        </mxCell>
        <mxCell id="869962fe87da545-26" value="" style="line;strokeWidth=4;direction=south;html=1;rounded=0;shadow=0;dashed=0;fillColor=none;gradientColor=#AD0002;fontFamily=Helvetica;fontSize=150;fontColor=#FFFFFF;align=right;strokeColor=#FFFFFF;" parent="1" vertex="1">
          <mxGeometry x="428" y="527" width="10" height="160" as="geometry" />
        </mxCell>
        <mxCell id="869962fe87da545-29" value="&lt;h1 style=&quot;font-size: 30px;&quot;&gt;TypeScript&lt;/h1&gt;" style="text;html=1;strokeColor=none;fillColor=none;spacing=5;spacingTop=-20;whiteSpace=wrap;overflow=hidden;rounded=0;shadow=0;dashed=0;fontFamily=Helvetica;fontSize=30;fontColor=#FFFFFF;align=left;" parent="1" vertex="1">
          <mxGeometry x="488" y="99" width="160" height="80" as="geometry" />
        </mxCell>
        <mxCell id="869962fe87da545-31" value="&lt;h1&gt;&lt;br&gt;&lt;/h1&gt;" style="text;html=1;strokeColor=none;fillColor=none;spacing=5;spacingTop=-20;whiteSpace=wrap;overflow=hidden;rounded=0;shadow=0;dashed=0;fontFamily=Helvetica;fontSize=12;fontColor=#FFFFFF;align=left;" parent="1" vertex="1">
          <mxGeometry x="628" y="537" width="200" height="140" as="geometry" />
        </mxCell>
        <mxCell id="869962fe87da545-36" value="" style="shadow=0;dashed=0;html=1;strokeColor=none;fillColor=#FFFFFF;labelPosition=center;verticalLabelPosition=bottom;verticalAlign=top;shape=mxgraph.office.concepts.best_practices;rounded=0;fontFamily=Helvetica;fontSize=12;fontColor=#FFFFFF;align=left;" parent="1" vertex="1">
          <mxGeometry x="1240.5" y="553" width="97" height="97" as="geometry" />
        </mxCell>
        <mxCell id="wVApdM7j8vLzc2VSNfJm-3" value="&lt;h1 style=&quot;font-size: 30px;&quot;&gt;Ant Desgin&lt;/h1&gt;" style="text;html=1;strokeColor=none;fillColor=none;spacing=5;spacingTop=-20;whiteSpace=wrap;overflow=hidden;rounded=0;shadow=0;dashed=0;fontFamily=Helvetica;fontSize=30;fontColor=#FFFFFF;align=left;" parent="1" vertex="1">
          <mxGeometry x="928" y="99" width="180" height="80" as="geometry" />
        </mxCell>
        <mxCell id="wVApdM7j8vLzc2VSNfJm-5" value="&lt;span style=&quot;font-size: 36px;&quot;&gt;服务层&lt;/span&gt;" style="text;html=1;strokeColor=none;fillColor=none;align=right;verticalAlign=middle;whiteSpace=wrap;rounded=0;shadow=0;dashed=0;fontFamily=Helvetica;fontSize=150;fontColor=#FFFFFF;" parent="1" vertex="1">
          <mxGeometry x="238" y="237" width="160" height="150" as="geometry" />
        </mxCell>
        <mxCell id="869962fe87da545-5" value="&lt;svg xmlns=&quot;http://www.w3.org/2000/svg&quot; xmlns:xlink=&quot;http://www.w3.org/1999/xlink&quot; aria-hidden=&quot;true&quot; role=&quot;img&quot; id=&quot;footer-sample-full&quot; width=&quot;1em&quot; height=&quot;1em&quot; preserveAspectRatio=&quot;xMidYMid meet&quot; viewBox=&quot;0 0 32 32&quot; class=&quot;iconify iconify--vscode-icons&quot;&gt;&lt;path fill=&quot;#007acc&quot; d=&quot;M23.827 8.243a4.424 4.424 0 0 1 2.223 1.281a5.853 5.853 0 0 1 .852 1.143c.011.045-1.534 1.083-2.471 1.662c-.034.023-.169-.124-.322-.35a2.014 2.014 0 0 0-1.67-1c-1.077-.074-1.771.49-1.766 1.433a1.3 1.3 0 0 0 .153.666c.237.49.677.784 2.059 1.383c2.544 1.095 3.636 1.817 4.31 2.843a5.158 5.158 0 0 1 .416 4.333a4.764 4.764 0 0 1-3.932 2.815a10.9 10.9 0 0 1-2.708-.028a6.531 6.531 0 0 1-3.616-1.884a6.278 6.278 0 0 1-.926-1.371a2.655 2.655 0 0 1 .327-.208c.158-.09.756-.434 1.32-.761l1.024-.6l.214.312a4.771 4.771 0 0 0 1.35 1.292a3.3 3.3 0 0 0 3.458-.175a1.545 1.545 0 0 0 .2-1.974c-.276-.395-.84-.727-2.443-1.422a8.8 8.8 0 0 1-3.349-2.055a4.687 4.687 0 0 1-.976-1.777a7.116 7.116 0 0 1-.062-2.268a4.332 4.332 0 0 1 3.644-3.374a9 9 0 0 1 2.691.084Zm-8.343 1.483l.011 1.454h-4.63v13.148H7.6V11.183H2.97V9.755a13.986 13.986 0 0 1 .04-1.466c.017-.023 2.832-.034 6.245-.028l6.211.017Z&quot;&gt;&lt;/path&gt;&lt;/svg&gt;" style="whiteSpace=wrap;html=1;rounded=0;shadow=0;dashed=0;strokeWidth=1;fillColor=none;fontFamily=Verdana;fontSize=70;strokeColor=none;verticalAlign=top;spacingTop=10;" parent="1" vertex="1">
          <mxGeometry x="458" y="24" width="60" height="80" as="geometry" />
        </mxCell>
        <mxCell id="wVApdM7j8vLzc2VSNfJm-8" value="&lt;h1 style=&quot;font-size: 30px;&quot;&gt;React&lt;/h1&gt;" style="text;html=1;strokeColor=none;fillColor=none;spacing=5;spacingTop=-20;whiteSpace=wrap;overflow=hidden;rounded=0;shadow=0;dashed=0;fontFamily=Helvetica;fontSize=30;fontColor=#FFFFFF;align=left;" parent="1" vertex="1">
          <mxGeometry x="723" y="99" width="160" height="80" as="geometry" />
        </mxCell>
        <mxCell id="wVApdM7j8vLzc2VSNfJm-12" value="" style="shape=image;verticalLabelPosition=bottom;labelBackgroundColor=default;verticalAlign=top;aspect=fixed;imageAspect=0;image=data:image/svg+xml,PD94bWwgdmVyc2lvbj0iMS4wIiBlbmNvZGluZz0iVVRGLTgiIHN0YW5kYWxvbmU9Im5vIj8+Cjxzdmcgd2lkdGg9IjIwMHB4IiBoZWlnaHQ9IjIwMHB4IiB2aWV3Qm94PSIwIDAgMjAwIDIwMCIgdmVyc2lvbj0iMS4xIiB4bWxucz0iaHR0cDovL3d3dy53My5vcmcvMjAwMC9zdmciIHhtbG5zOnhsaW5rPSJodHRwOi8vd3d3LnczLm9yZy8xOTk5L3hsaW5rIj4KICAgIDwhLS0gR2VuZXJhdG9yOiBTa2V0Y2ggNDcuMSAoNDU0MjIpIC0gaHR0cDovL3d3dy5ib2hlbWlhbmNvZGluZy5jb20vc2tldGNoIC0tPgogICAgPHRpdGxlPkdyb3VwIDI4IENvcHkgNTwvdGl0bGU+CiAgICA8ZGVzYz5DcmVhdGVkIHdpdGggU2tldGNoLjwvZGVzYz4KICAgIDxkZWZzPgogICAgICAgIDxsaW5lYXJHcmFkaWVudCB4MT0iNjIuMTAyMzI3MyUiIHkxPSIwJSIgeDI9IjEwOC4xOTcxOCUiIHkyPSIzNy44NjM1NzY0JSIgaWQ9ImxpbmVhckdyYWRpZW50LTEiPgogICAgICAgICAgICA8c3RvcCBzdG9wLWNvbG9yPSIjNDI4NUVCIiBvZmZzZXQ9IjAlIj48L3N0b3A+CiAgICAgICAgICAgIDxzdG9wIHN0b3AtY29sb3I9IiMyRUM3RkYiIG9mZnNldD0iMTAwJSI+PC9zdG9wPgogICAgICAgIDwvbGluZWFyR3JhZGllbnQ+CiAgICAgICAgPGxpbmVhckdyYWRpZW50IHgxPSI2OS42NDQxMTYlIiB5MT0iMCUiIHgyPSI1NC4wNDI4OTc1JSIgeTI9IjEwOC40NTY3MTQlIiBpZD0ibGluZWFyR3JhZGllbnQtMiI+CiAgICAgICAgICAgIDxzdG9wIHN0b3AtY29sb3I9IiMyOUNERkYiIG9mZnNldD0iMCUiPjwvc3RvcD4KICAgICAgICAgICAgPHN0b3Agc3RvcC1jb2xvcj0iIzE0OEVGRiIgb2Zmc2V0PSIzNy44NjAwNjg3JSI+PC9zdG9wPgogICAgICAgICAgICA8c3RvcCBzdG9wLWNvbG9yPSIjMEE2MEZGIiBvZmZzZXQ9IjEwMCUiPjwvc3RvcD4KICAgICAgICA8L2xpbmVhckdyYWRpZW50PgogICAgICAgIDxsaW5lYXJHcmFkaWVudCB4MT0iNjkuNjkwODE2NSUiIHkxPSItMTIuOTc0MzU4NyUiIHgyPSIxNi43MjI4OTgxJSIgeTI9IjExNy4zOTEyNDglIiBpZD0ibGluZWFyR3JhZGllbnQtMyI+CiAgICAgICAgICAgIDxzdG9wIHN0b3AtY29sb3I9IiNGQTgxNkUiIG9mZnNldD0iMCUiPjwvc3RvcD4KICAgICAgICAgICAgPHN0b3Agc3RvcC1jb2xvcj0iI0Y3NEE1QyIgb2Zmc2V0PSI0MS40NzI2MDYlIj48L3N0b3A+CiAgICAgICAgICAgIDxzdG9wIHN0b3AtY29sb3I9IiNGNTFEMkMiIG9mZnNldD0iMTAwJSI+PC9zdG9wPgogICAgICAgIDwvbGluZWFyR3JhZGllbnQ+CiAgICAgICAgPGxpbmVhckdyYWRpZW50IHgxPSI2OC4xMjc5ODcyJSIgeTE9Ii0zNS42OTA1NzM3JSIgeDI9IjMwLjQ0MDA5MTQlIiB5Mj0iMTE0Ljk0MjY3OSUiIGlkPSJsaW5lYXJHcmFkaWVudC00Ij4KICAgICAgICAgICAgPHN0b3Agc3RvcC1jb2xvcj0iI0ZBOEU3RCIgb2Zmc2V0PSIwJSI+PC9zdG9wPgogICAgICAgICAgICA8c3RvcCBzdG9wLWNvbG9yPSIjRjc0QTVDIiBvZmZzZXQ9IjUxLjI2MzUxOTElIj48L3N0b3A+CiAgICAgICAgICAgIDxzdG9wIHN0b3AtY29sb3I9IiNGNTFEMkMiIG9mZnNldD0iMTAwJSI+PC9zdG9wPgogICAgICAgIDwvbGluZWFyR3JhZGllbnQ+CiAgICA8L2RlZnM+CiAgICA8ZyBpZD0iUGFnZS0xIiBzdHJva2U9Im5vbmUiIHN0cm9rZS13aWR0aD0iMSIgZmlsbD0ibm9uZSIgZmlsbC1ydWxlPSJldmVub2RkIj4KICAgICAgICA8ZyBpZD0ibG9nbyIgdHJhbnNmb3JtPSJ0cmFuc2xhdGUoLTIwLjAwMDAwMCwgLTIwLjAwMDAwMCkiPgogICAgICAgICAgICA8ZyBpZD0iR3JvdXAtMjgtQ29weS01IiB0cmFuc2Zvcm09InRyYW5zbGF0ZSgyMC4wMDAwMDAsIDIwLjAwMDAwMCkiPgogICAgICAgICAgICAgICAgPGcgaWQ9Ikdyb3VwLTI3LUNvcHktMyI+CiAgICAgICAgICAgICAgICAgICAgPGcgaWQ9Ikdyb3VwLTI1IiBmaWxsLXJ1bGU9Im5vbnplcm8iPgogICAgICAgICAgICAgICAgICAgICAgICA8ZyBpZD0iMiI+CiAgICAgICAgICAgICAgICAgICAgICAgICAgICA8cGF0aCBkPSJNOTEuNTg4MDg2Myw0LjE3NjUyODIzIEw0LjE3OTk2NTQ0LDkxLjUxMjc3MjggQy0wLjUxOTI0MDYwNSw5Ni4yMDgxMTQ2IC0wLjUxOTI0MDYwNSwxMDMuNzkxODg1IDQuMTc5OTY1NDQsMTA4LjQ4NzIyNyBMOTEuNTg4MDg2MywxOTUuODIzNDcyIEM5Ni4yODcyOTIzLDIwMC41MTg4MTQgMTAzLjg3NzMwNCwyMDAuNTE4ODE0IDEwOC41NzY1MSwxOTUuODIzNDcyIEwxNDUuMjI1NDg3LDE1OS4yMDQ2MzIgQzE0OS40MzM5NjksMTU0Ljk5OTYxMSAxNDkuNDMzOTY5LDE0OC4xODE5MjQgMTQ1LjIyNTQ4NywxNDMuOTc2OTAzIEMxNDEuMDE3MDA1LDEzOS43NzE4ODEgMTM0LjE5MzcwNywxMzkuNzcxODgxIDEyOS45ODUyMjUsMTQzLjk3NjkwMyBMMTAyLjIwMTkzLDE3MS43MzczNTIgQzEwMS4wMzIzMDUsMTcyLjkwNjAxNSA5OS4yNTcxNjA5LDE3Mi45MDYwMTUgOTguMDg3NTM1OSwxNzEuNzM3MzUyIEwyOC4yODU5MDgsMTAxLjk5MzEyMiBDMjcuMTE2MjgzMSwxMDAuODI0NDU5IDI3LjExNjI4MzEsOTkuMDUwNzc1IDI4LjI4NTkwOCw5Ny44ODIxMTE4IEw5OC4wODc1MzU5LDI4LjEzNzg4MjMgQzk5LjI1NzE2MDksMjYuOTY5MjE5MSAxMDEuMDMyMzA1LDI2Ljk2OTIxOTEgMTAyLjIwMTkzLDI4LjEzNzg4MjMgTDEyOS45ODUyMjUsNTUuODk4MzMxNCBDMTM0LjE5MzcwNyw2MC4xMDMzNTI4IDE0MS4wMTcwMDUsNjAuMTAzMzUyOCAxNDUuMjI1NDg3LDU1Ljg5ODMzMTQgQzE0OS40MzM5NjksNTEuNjkzMzEgMTQ5LjQzMzk2OSw0NC44NzU2MjMyIDE0NS4yMjU0ODcsNDAuNjcwNjAxOCBMMTA4LjU4MDU1LDQuMDU1NzQ1OTIgQzEwMy44NjIwNDksLTAuNTM3OTg2ODQ2IDk2LjI2OTI2MTgsLTAuNTAwNzk3OTA2IDkxLjU4ODA4NjMsNC4xNzY1MjgyMyBaIiBpZD0iU2hhcGUiIGZpbGw9InVybCgjbGluZWFyR3JhZGllbnQtMSkiPjwvcGF0aD4KICAgICAgICAgICAgICAgICAgICAgICAgICAgIDxwYXRoIGQ9Ik05MS41ODgwODYzLDQuMTc2NTI4MjMgTDQuMTc5OTY1NDQsOTEuNTEyNzcyOCBDLTAuNTE5MjQwNjA1LDk2LjIwODExNDYgLTAuNTE5MjQwNjA1LDEwMy43OTE4ODUgNC4xNzk5NjU0NCwxMDguNDg3MjI3IEw5MS41ODgwODYzLDE5NS44MjM0NzIgQzk2LjI4NzI5MjMsMjAwLjUxODgxNCAxMDMuODc3MzA0LDIwMC41MTg4MTQgMTA4LjU3NjUxLDE5NS44MjM0NzIgTDE0NS4yMjU0ODcsMTU5LjIwNDYzMiBDMTQ5LjQzMzk2OSwxNTQuOTk5NjExIDE0OS40MzM5NjksMTQ4LjE4MTkyNCAxNDUuMjI1NDg3LDE0My45NzY5MDMgQzE0MS4wMTcwMDUsMTM5Ljc3MTg4MSAxMzQuMTkzNzA3LDEzOS43NzE4ODEgMTI5Ljk4NTIyNSwxNDMuOTc2OTAzIEwxMDIuMjAxOTMsMTcxLjczNzM1MiBDMTAxLjAzMjMwNSwxNzIuOTA2MDE1IDk5LjI1NzE2MDksMTcyLjkwNjAxNSA5OC4wODc1MzU5LDE3MS43MzczNTIgTDI4LjI4NTkwOCwxMDEuOTkzMTIyIEMyNy4xMTYyODMxLDEwMC44MjQ0NTkgMjcuMTE2MjgzMSw5OS4wNTA3NzUgMjguMjg1OTA4LDk3Ljg4MjExMTggTDk4LjA4NzUzNTksMjguMTM3ODgyMyBDMTAwLjk5OTg2NCwyNS42MjcxODM2IDEwNS43NTE2NDIsMjAuNTQxODI0IDExMi43Mjk2NTIsMTkuMzUyNDQ4NyBDMTE3LjkxNTU4NSwxOC40Njg1MjYxIDEyMy41ODUyMTksMjAuNDE0MDIzOSAxMjkuNzM4NTU0LDI1LjE4ODk0MjQgQzEyNS42MjQ2NjMsMjEuMDc4NDI5MiAxMTguNTcxOTk1LDE0LjAzNDAzMDQgMTA4LjU4MDU1LDQuMDU1NzQ1OTIgQzEwMy44NjIwNDksLTAuNTM3OTg2ODQ2IDk2LjI2OTI2MTgsLTAuNTAwNzk3OTA2IDkxLjU4ODA4NjMsNC4xNzY1MjgyMyBaIiBpZD0iU2hhcGUiIGZpbGw9InVybCgjbGluZWFyR3JhZGllbnQtMikiPjwvcGF0aD4KICAgICAgICAgICAgICAgICAgICAgICAgPC9nPgogICAgICAgICAgICAgICAgICAgICAgICA8cGF0aCBkPSJNMTUzLjY4NTYzMywxMzUuODU0NTc5IEMxNTcuODk0MTE1LDE0MC4wNTk2IDE2NC43MTc0MTIsMTQwLjA1OTYgMTY4LjkyNTg5NCwxMzUuODU0NTc5IEwxOTUuOTU5OTc3LDEwOC44NDI3MjYgQzIwMC42NTkxODMsMTA0LjE0NzM4NCAyMDAuNjU5MTgzLDk2LjU2MzYxMzMgMTk1Ljk2MDUyNyw5MS44Njg4MTk0IEwxNjguNjkwNzc3LDY0LjcxODExNTkgQzE2NC40NzIzMzIsNjAuNTE4MDg1OCAxNTcuNjQ2ODY4LDYwLjUyNDE0MjUgMTUzLjQzNTg5NSw2NC43MzE2NTI2IEMxNDkuMjI3NDEzLDY4LjkzNjY3NCAxNDkuMjI3NDEzLDc1Ljc1NDM2MDcgMTUzLjQzNTg5NSw3OS45NTkzODIxIEwxNzEuODU0MDM1LDk4LjM2MjM3NjUgQzE3My4wMjM2Niw5OS41MzEwMzk2IDE3My4wMjM2NiwxMDEuMzA0NzI0IDE3MS44NTQwMzUsMTAyLjQ3MzM4NyBMMTUzLjY4NTYzMywxMjAuNjI2ODQ5IEMxNDkuNDc3MTUsMTI0LjgzMTg3IDE0OS40NzcxNSwxMzEuNjQ5NTU3IDE1My42ODU2MzMsMTM1Ljg1NDU3OSBaIiBpZD0iU2hhcGUiIGZpbGw9InVybCgjbGluZWFyR3JhZGllbnQtMykiPjwvcGF0aD4KICAgICAgICAgICAgICAgICAgICA8L2c+CiAgICAgICAgICAgICAgICAgICAgPGVsbGlwc2UgaWQ9IkNvbWJpbmVkLVNoYXBlIiBmaWxsPSJ1cmwoI2xpbmVhckdyYWRpZW50LTQpIiBjeD0iMTAwLjUxOTMzOSIgY3k9IjEwMC40MzY2ODEiIHJ4PSIyMy42MDAxOTI2IiByeT0iMjMuNTgwNzg2Ij48L2VsbGlwc2U+CiAgICAgICAgICAgICAgICA8L2c+CiAgICAgICAgICAgIDwvZz4KICAgICAgICA8L2c+CiAgICA8L2c+Cjwvc3ZnPg==;" parent="1" vertex="1">
          <mxGeometry x="888" y="44" width="70" height="70" as="geometry" />
        </mxCell>
        <mxCell id="wVApdM7j8vLzc2VSNfJm-13" value="" style="shape=image;verticalLabelPosition=bottom;labelBackgroundColor=default;verticalAlign=top;aspect=fixed;imageAspect=0;image=data:image/svg+xml,PHN2ZyB4bWxucz0iaHR0cDovL3d3dy53My5vcmcvMjAwMC9zdmciIHZpZXdCb3g9Ii0xMS41IC0xMC4yMzE3NCAyMyAyMC40NjM0OCI+CiAgPHRpdGxlPlJlYWN0IExvZ288L3RpdGxlPgogIDxjaXJjbGUgY3g9IjAiIGN5PSIwIiByPSIyLjA1IiBmaWxsPSIjNjFkYWZiIi8+CiAgPGcgc3Ryb2tlPSIjNjFkYWZiIiBzdHJva2Utd2lkdGg9IjEiIGZpbGw9Im5vbmUiPgogICAgPGVsbGlwc2Ugcng9IjExIiByeT0iNC4yIi8+CiAgICA8ZWxsaXBzZSByeD0iMTEiIHJ5PSI0LjIiIHRyYW5zZm9ybT0icm90YXRlKDYwKSIvPgogICAgPGVsbGlwc2Ugcng9IjExIiByeT0iNC4yIiB0cmFuc2Zvcm09InJvdGF0ZSgxMjApIi8+CiAgPC9nPgo8L3N2Zz4K;" parent="1" vertex="1">
          <mxGeometry x="688" y="44" width="67.6" height="60" as="geometry" />
        </mxCell>
        <mxCell id="wVApdM7j8vLzc2VSNfJm-14" value="" style="shape=image;verticalLabelPosition=bottom;labelBackgroundColor=default;verticalAlign=top;aspect=fixed;imageAspect=0;image=data:image/png,iVBORw0KGgoAAAANSUhEUgAAAkQAAACkCAYAAAB2OzHxAAAACXBIWXMAAAsTAAALEwEAmpwYAAAgAElEQVR4nO2deZwcZZ3/P9+qnkyOyTG5yBw5gElmMuYgJBgCASIry427yqCAuqCYsKCuoKsuHiHeogvi4sWPhdVVcAmgq0JUcDMggUCIkIQMM5Mh5JjMkfs+Zrqf7++Pme6urq7j6e7qa+b7fmXSPVVPPc+3anq63/N9jiJmhiAIgiAIwmDGyHcAgiAIgiAI+UaESBAEQRCEQY8IkSAIgiAIgx4RIkEQBEEQBj0iRIIgCIIgDHpEiARBEARBGPSIEAmCIAiCMOgRIRIEQRAEYdAjQiQIgiAIwqBHhEgQBEEQhEGPCJEgCIIgCIMeESJBEARBEAY9IkSCIAiCIAx6RIgEQRAEQRj0iBAJgiAIgjDoESESBEEQBGHQE8p3AIIgCNmiu7t7RGlp6aWGYfwjEVWNHDny4nzHJAhCYSJCJAjCgKKzs3N8WVnZ1cz8D8OHD/97AEP7d23IZ1yCIBQ2IkSCIBQ9Bw4cGG2a5s1E9A9lZWUXADCIKN9hCYJQRAwaIVr8hd+NHFE+dAaDphiESjAmM/N4MI9h4nIoLieQoVgNATCcwSDGcQb3MCMC4BCYDzH4EMC7EaEuRqQDCu3oCbetvqehK9/nKAiDFSKaB+A+ZnYt47VPEASBBuKbxJXfe2YSo/QigBYAfDYrnkmEir5T5f5/DDAjugng2Btm7JrE9lu3M5LrARjqKBS3MdFGxZE1xonIquf//UM7c3rigjBIOXjw4BLDMFZ7lWHmDaNHjz4rVzEJglBcDBghuvye1bUG0YcB9T4QzUaCvMRlJlFiOEmGrBKUIENRgXKUIbd6+AVW6oEXv9P8JPNylaNLIQiDDhEiQRAypeiF6Krv/eUCIuNuJro4JkD2TE9UVJLkpf8R/cfYZcieTbLLULQNuwzF2u7bp5TaDFZ3vPjd65/N8uUQhEHJwYMHlxCRrxCNGTNGhEgQBEeKVogu/f6fRwyhkv8AGTcnZH8SMjr9z5xkCEjMAlkkyDELFG0Dti41u1QhUYas8SjFP+3cffKOdx656WR2r44gDC5EiARByJSiXJjxim+vmlBiDFmTJENwkiEk7HOUIcRUJ3acXaDiMhStJqG15KyUQzwG4dbKiUNXL/zkL8YFfU0EQRAEQUifohOi96xoDBmlw35DoLlJ8uHaJZY8PgiWx0Spgks9sGSOXKQqcfyQWzznmsNKnl2w7MHRWbg8gjAoCYfDYGbfL0EQBDeKTojKynA7gc53kg84yFA8MeQsL4lSlVwfO9TnLlWa8RDPKxk5/BckC6UIgiAIQkFQVOsQLVj2YMmk2tovUNKMsL7/mIHSEgOLaibg9IllYAaaOw7i1S270Rvv9fKcXu8kQ8ndaMnHu8XjNiYJRNece+cvbgHw/wK/UIIgCIIgpERRCdHEmpr3EHNFcndVn3TMqh6NL1wzG+PKShOOa99/DN94agPe2X3YQ2LimSI3iYnLkptMJcYTr9ZhTBIDTPj2rNt//NibP7rtaICXSRAGJdIlJhQqe/fuXQCgzKtMb2/vm6FQKEREdaZp9paXl6+xl1mxYoVx++23XwgA48ePb8xOtIOXohIig3Bx8kDmPvmYNqEMX2+Yh9ISM+m46rEj8N0bFuCf//Ml7D18wn0MEKwyY5EYJMpMkgzBVk/sfZnhJEOx+kHjyoaOvAXADwK5QIJQBOzbt2/huHHjXsl3HIKQK0zTfAjAXK8yRPSPAMYYhvEIAOzfv3/K2LFjExb3ve222xabprk6ekhWgh3EFNUYIoYxJyYUNvn4+JIaRxmKMnr4EHz0gppkGbIJT1xW4jIEt7WGov9b44kPWnKf4WYVKKU+kvqVEITiYu/evbX79+9fceDAgTbDMNbmOx5ByCXl5eVnlZeXU3l5OR06dKgcAJj5/ui28vJyGjdu3G+txzDz1fZ6TNO8IVcxD0aKSogANc1JPkaUmjh72ljfoy+YOcmmOg5dWdE9MYdhux71b7Zlf5BYj9cMt4RsEtHZC5Y9OD6VqyAIxcDevXsr9+/ff8f+/fvXmabZTERfBXBmvuMShCLgbSK6yrph/fr1JUR0HTO35CuogU6RCVHfTVeBRPkYW1YKnQlbI0pDGD7EdBgk3V9j0rgfv+n1TuOL/Ge42af785CSOeldDkEoLFauXGnu37//5n379j1rGMZOAPcCWJCL6e8y7V4oFrxej8wMpdQTzHxxd3f3iOj2qVOnXqqUGgbgD/Jazg7FJkSjneTj8PEerYPDEYUTp8IWH3LI6CTIEjxkyH96fXRGmtPxVqkyTVSme0EEoZA455xzRgJ4mIjei+J7fxGEgoCZnyCi0lAodEl0m2EYNwJ4Riklk3CyRFG9YbFicpKPg8d6sHX3Ed/j//bOPiggSWb8ptc7PcaHGnlNr7eWc5Khvv0RxUU1uF0QBEHIHkePHm0D8CaAawBgz549Zcx8DRE9mt/IBjZFJURe8vHz59s8jwwrxs+fb7VIjXM9dhnKZHp9ojS5SZWkPoWBRb66rvzaVEplpV1BSBW33wGlVGyfUupxZr5yxYoVBhG9j5n5+PHjz3gdL2RGUQmRl3y80rYbP322GcrhhdIbUfjOb99Ay64DfcfDKjNOMhRtxyYvSJQYTiiXPJYoJkOWE2BbfYIgCIJgJxwOP0VEE2+99dZ3A7gRwB+qq6tP5DuugUwRdtU4ywcz8Jt127D+nb24ct5knDFxJCKK0dp5EL97bTu6Dx3vP7r/WLsMwV4fJ7QYExyH6fWO8VhLMSNJqmxtC4IgCEKUSZMmbd67d2+LaZofI6JLmPkD+Y5poFN0QuS3ts/2PUfw4z9tjm9zyALFJMZydMJaQwnt2YQHNvFxi8c+mDr6v2M8gjBwyEc6PxwOIxTyfjuTbgahUPCbZWZ5vpKIvsTMRw4ePPin8ePHQykFwyiqzp2ioaiualxHvMb1+MlH/IXoutZQitPrneJBUj1uXXPyJi0IgjBYCIfDCsB2ItrvsPsogO39ZQDgKQA7mPkXNTU1pwDAMIyDALbnJtrBRZFliBIHJ/vLB1wkxtpl5rfWEDtKTOLMNPfjE6XKLZ5IEBdHEARBKHBqamoOA5jmtG/ChAlPAHhi/Pjx0e9ft5cdP378DyC3e8oKxSVEKcuH8/R6p7WG4PIYT+I4y1Aq0+tdp/uLDwkDiHx1Tfm1K11mgiB4UWRdZqnJB2Ll/Nca0pte7zYzzdqOm1S5xyOTgQVBEAQhvxSVEKUqH2yTGecxPA4yBCcZgmM9CZmjWJxuY5tc4hEEQRAEIa8UWZcZPw3mEUA0q8KASswYRfeoqNqo/m2WQsryX3IandG3fpt6D4FGxXf3yUzSGCBYHq3T621rDSVN94dVhqTPTBAEQRDySVEJ0Z/uuvTGXLW1+Iv/8wYTz+37TnN6vddaQzERimavotVIn5kwsCjUMUSCIAheFJUQ5RzbeB/f6fXR/1261lxnuAkZ0dnZOdwwjDOUUpWmaU5g5gkAhjLzUCLaBeAwgOMAtu3bt6+lvr5e727AWaa7u3s2M4+dNGnS8/mORRjYtLW1lY4cOXI6EU1XSlUBGA5guGEYzMyHABxh5q2RSGRLVVVVe57DTZtt27aNKS0tPdMwjGpmrgYwAn3nCiI6hL5p7d29vb1vtbW1vbNkyZJwPuMVCgsRIk9SnV7PNh+yyxAny5D8VZsS3d3dI5j5IgALDcN4N4BZpmlWA4BpmgAAIkp4tDJ+/Hi1e/fuTcz8tFLqNxUVFa/lLHgAnZ2ddaZpNjDzB4noXQDuB5ATIWpvbx9GRLVeZUKhUOS0007b5FdXU1NT2ejRo2vs20tLS0fqxLJr166zdMoxc0u+b1fQ2dk5hYjOADDFMIwJSqmRhmEMVUqdRJ9ob2XmNysrK1u4gNJUnZ2d8w3D+Ecies+oUaMWAjABJC3qZ/19MQwD3d3de4loNTM/29vb+2R1dbXTejl5p6mpqWzcuHELiWgxM58DYM7w4cMnR/c7/f5HGTJkCOrr63t37979KjM/A+B3p5122ps5CFsoYHIqRFd+97nZMM1LwHg3k5oBRdUMNSSWeIn+H5MJ97WBoo/xbqv4OKG+cUPO0+Ot9TgtvIi+mgCokWDSikd3un9i5shyHlY6P7cYBv6gfVGZD4CoDcxrEOYnUX2v74dZsdHd3T2Rma8D8H4iWkxEJUDaXSQGgLkA5hqGcVd3d/dLkUjknsrKyv8NMOQEduzYcUZpael1zNxgGMbZSa+bHEFEtaFQ6HWfYocAjPGra+zYsQuIaLXTPp3z0ogDABAOh+cBeEOnbFDXs7u7exYzXwbgvQDmG4Yx3toGEcUeoxAROjs793Z3dz/JzA9PmjTp1UCCSZGmpqYh5eXlNxuGcZthGHOiMafIeGZuANAQCoUe6Orq+g2Ae/N1TlY6OjomG4ZxPYCrxo0bdx4A07aycyrVlQA4v//rm11dXS8ope6tqqr6XSGJrZA7si5E5925ctjYqom3gPmfKRSaCWYwAdT3H/q/ATNAFvmgfvmgmPswCIlSlCgfffLCtnrBBKZ+A+l/IwNRn4z0P0a9xxoHJ8mQZRiQJY5UpvsnznBz+VCkSAgwR2tfYKLRAKaB6L0ooeXouvN5MN+Jivv+pl1HgdLd3X0xgH8BcAURZeu1ep5pmr/t6upaBeC2SZMmbQuq4o6OjvcahvGN0tLShYD3X6xCftm5c2dlKBS6yTCMmwBMT+dnRUTjASwjomVdXV1/VEp9prKysiXoWN3o7Oy8cezYsV8notODqpOIhgD4IIAPdnd3/28kEvlCLs8JAFasWGF84hOfuNo0zU+ZpnkxgKz8IhHRhaZpXtjZ2flKe3v70urq6o3ZaEcoXLI67f6q7zd+eGz1xLcJ/EMQZma6tk/68gHX45PjgU89GtP9kXh+vvEEBgPARSB+FR2f/kLAleeMrq6uK7q7u18H8BcA1yAH4k5ElxPRho6OjvcFVadhGIuJaGFQ9QnB09XVVd/V1fXzIUOGbDcM45sApgdRLxFdZhjGxq6urtuDqM+Lbdu2Terq6vq9YRi/DFKGHHifYRgbOjs771ixYkXWl2xZuXKl2dXVddOyZcveNE3ztwD+DlmSIStEtDAUCq3r7Oy8NdttCYVFVj5oFt/zu5HloVGPkEEfCHJtn+ijlnwgsT7vtYasvVesHQ/b6rO2qR1PYEQbZQAwQfQddH56Iip++NmAG8oaXV1d9QB+BGBJnjLWowzDeKqzs/P2ioqKn2Zamc5NGHN9nkG1p3Mz1VyS6s1dt23bNmno0KHfAnATAMrSz2EIgAc6Ojrqq6qqPpmNbphdu3adW1pa+jsAE3L0WiolonuXLl166datWz94xhlnHMpGI7t27bpq8eLF3wVQD+T+9wTAECL6SWdn55SKioq7ct24kB8Cf0e74turJpQPGf0cgL7+a/T93/dZrScfScKSzto+7CwfseOt8cQ0xza93i8ey74kgfKKR/9yahC7APF2Y2LEd2LXJ3ei6oGCvu/NihUrjKVLl/4bES1HX79+SjDzHiJ6G8AOAN3MfaPIiOg0AGcAOBv6r3WDiH7S1dV1fNKkSb9INRahsOl/rX166NChXwdQlos2DcO4raOj4ySAQP846erqutYwjF8Q0bAUDz2KvoHgXUQ0mpmriagqlQqI6NLhw4ev2bVr12VBzkrbuXPnmaFQ6IemaV6RwmHMzG8BaCKircx8GMAxAMOJqIKZZwBYQERjU42HiP6to6PjYGVl5T2pHisUH4EK0VXfebrcKC37PwCzgKjVa8qHdS+nKR+xaqxT5eMk3XUeifXEj/GIJ95aQvbIKfuTEI+tvmBIkJ9EMYpuJ/4edi1tRNWDWgNTc83WrVtHL1269H+I6NIUDjsG4Glm/n1vb+9LU6ZM2epVuKmpqWzs2LHvZ+Y7iWiuZhsPtbe3t1RXV7+SQlyDiXZmvt9heykR+XY1uBzrVG5PypG5U7506dLVRHRhCseEATQzcxf6XnfjANT1jxfShoju7Ojo2FxZWflwKse50dHRcY1hGL8mIlPzkLXM/GsAf3rwwQdbly9fnrD62dtvvz1xxIgRF/bPfnwf9P4weZdpmo3t7e0XVVdX70r1HKw0NjaGZsyYcWcoFPoaEZX6lWfmU0T0GwBPHj9+/Fm/TNXKlSvNxYsXnwdgKRFdj/4ZdzoYhvHt9vb2V6urqxt1jxGKk8BSxbRihXHVqPesAvPfAw7ykSQN0cd4BsVRPrTrAaIi4F5PdHtq8ViPT55e7zyjzC+eBJhvfv0nt/4XAKDrjiUgc7X31fbMCiWKYp9UrsPkny7MR97Zi7a2tgnDhw//MxFpTcEGsBrAQ5FI5DfpTMXuH5x5K4B7dd50Abxz4sSJeel2C3R0dNzdn/VyRSl1f1VV1WfSqT9Vdu3adZZhGL6zzCoqKnxnmbnRvw7MAb9yFRUVgY4FaW9vX2Kafr832mxn5l9HIpFnjhw5stZp3arOzs6zmfk2IroJ+h+ux8Lh8NzJkye/nUlwO3fuvNA0zT9qZoZeCIfDn5s8efI63fo7OzunMPNXiejjmoe8GYlELkp3ev6uXbtmGIbxSwDn+JVl5n3MfB8z/yTd9jo6OmoBPEREi3WPYeaW1tbWWbJu0cAmsIFxV4xc8plEGYKvxMQTMfZB0m7yEZwMIYV4Up1enzh+KPm8MsMqPyoqPEgUI5VYjvgc7PjEBwNoPDCIiEaMGPGMjgwx8++Z+eyKioqLKyoqHk13XZrly5erysrKHyulLkLfYo1+nD506ND70mlLKEqeUUq998EHHzyjsrLyi5MnT37BbRHPioqKv1VWVt4CYCGA7Zr1jzBN895MAmxvb68KhUJPaMhQLzPfXllZuSQVGQKAioqKHZWVlbdEIpHLmXmvxiGzTNP8JaUxNW/nzp0LiOh1+MtQmJnvOXny5JlVVVXfzGRtpMrKypY1a9YsYeb/0D2GiGqnT59+Q7ptCsVBIEL09/c8W0nMXwNSk4/o9PNM5AMJ9cXrcXqMJU5c5YVt5ZziscubVzzxTE7myRmnTJDtecL3yl7ucxkGECirV682ASzwKsPMJ5n5Q5WVlddUVlZqrVujQ3V19SuRSOQa9HWHeEJEN+/atWtRUG0LhQcz/z4SicypqKi4sqqq6i/27iQvKioq1vf09CwCoJX1IaJrOjs756cTZ2NjY8gwjMcBTPAqx8wnlFKXVVZW/jiTgdzV1dV/JKILmFmnO+zy9vb2lAcfh0KhaiIa7lNsj1LqnMrKyi8ENYi7oaEhUllZ+Wlm/pHuMUR0SxBtC4VLIEJUapZ8hYhGpC4fyFg+2Es+HDNG3jPcEuN2kyprO17xJJ5X+kSFRyEp+wOVLD/2DBIYIMzH9lvmZRhIrmmprKz8n2xUXF1d/bxS6m6dsoZhaP8lKRQPzPwGgAsqKyuvqa6uTntB06lTp3b29vZew8zHNdv9ZDrtTJ8+/V+I6DyN+q+rqqr6v3TasFNRUdGslLocfQOxPTEMY/mOHTveFUS7Vpi5o6qqKitjIDs7O+8AoLXgJBGdv3XrVv014oSiI2MhuuLbqyYwcFN68mHN+PjIB1KUj+jxsEuMtVxyHLF4oifo1g3nFg8S6wtMhpyEJ0l+nMTIIlBGRHdMQE5gZt+vbNLV1XUPMzdrxDG/vb39slTrV0rl9fyc8ItHqczvNJyvn6tOu/1fxyKRyGdaW1vPqaioeDGItqdMmdIE4G7Nc39/W1ubzhi2GNu2bZtGRF/TqP+7VVVV+ivda1BdXb0pEoks02i7xDTNB1PpOguHw3l9H5g/f35vT0/PP2u+boySkpI5WQtGyDsZC5E5ZNgNBAz1ko/4h3SK8mETjFTkI3Y8W+KJteQcT9I52KXKLR5r3exwXmnRnxGyy5A98+OVFbJnlhRdK8slx5k/f34vgBU6ZQ3D+HKWwxFyADM39vb2zq6urr4/6AGyBw8evJ+Zd2oUHTV06NBzU6m7pKTkbvTfpNQNZt7a09Nzdyr16lJdXf0o993zyxMiOm/Hjh2BLW6aC6ZOnfo3AH/UKUtEU7McjpBHMhYiJjT4yUc8GZOifNgFSlM+krI/sLVtjccWR4LQWeP3iidWjcN5pQrRSEf5iQXtkPlxFCOH56ROw/Z/Ojv1oAYua9asWcnMHRpFz9+xY0d91gMSsklzdXX1xVOnTn0nG5XX19f3ENFDmsW1x6W1t7fXENGHNYp+bdq0aSd1602V3t7ezwKI+JUzTfMbuVjJOkiUUv+tUy6LtxASCoCMXrSXfPe50VC8yFc+wNryEZMNu0DZs04u8hHvMrNkcrziscWRWI9XPNbinFBPqjLEfTfU7EOpkclS05/hccz8OMmPpaxdklT4Su3Asky+u8yAvsGVSqmf68RimmbKXY6FcI5Rent7cxJPoXaZKaVOcZYvuFLqUZ3zJ6IZunUS0WeZ2fQ5t11btmz5VTbPbdq0ac1KqV9rnN+7Pv7xj2t3MRfC78ipU6ee04kjiC5loXDJSIhKQsZ5IDJ85cNiD37yEfeP1OUjsR33eOJu5ny8Xjz2zFHyeekSZrIuLHiG9nT6mPw4iZFbt5r+2huDiN9olrs2q1EIRU91dXUbgGaNopN16tu4ceMIADf6lWPmX+RojZwfapYrqhlZZ5555m5mDmzFbaE4yUiIDKZFVvlA2vJhPZTTkw8HGXKLhxOkKnpYavEkZ45sx2vCwLHNLV2bYxsIs5xFxiJAflkhz8ySWoSV12mv0joYePjhh9cD0FkRecquXbt0V7oWBinM/DeNYiN06ho3btz7AYz0KxeJRB7XqS9TqqurXwXge7d7Irq6ubl5XA5CCgwi0hn/JQxgMhIiZj43LhVu8qIjH9aMTxrykZQx8osHtnLu9cGhvsR64tKXZmr3T7x6ed9fdkQE5iXeGR6XfdbtXpklQhkWGLPSCTRo8p0mj7J8+XKllHpJJ2UeiUS0uwKKcZZZsXaZ6cxWyhVKqY0a18Bv7R0AADNfrdGN03X66advyPZ5RVFKPalxfqGysjKt35VC+bkx84FCiUXID2kLERERExZGP3xTlQ9YHjOSjyQZssYDx3qsQcVe4i7xMBLPL1YPEutL+5eF+ZHY8/ZPLQT4tLjUuI0dcpIhB/lJ2GfNLMF3LZPBBjNr3bOMiM7PdixCcUNEu4Oop7GxMcT9q//7tPci5/DTmoj+rFOOmVO5QWveYebefMcg5Je0heiyb6+aSoxRANKSj2SJSU8+rEfG6mHr3uR4ko6xx2NrMxaP9Sw4cxliYPOGn3bHp7Ia6mZn+XHs+opLjqf8WPfF6pBuHxtEtNm/FEBEC7Mdi1DcENHBIOqZOnVqPRH5LgSolFofRHu6nDx5ci30Vnm/IAfhCEJgZJAhGjIbsGRqUpUPpCkflhisg58Tpar/WWy3ZVt/fZ7x2IUuuidWjSUjluJ1s8LMn2buv03A9mUVUPzR1KfT21avTpYf2z4FMM/OIOzAyEfXihu9vb06CzSCmSdu3769Qrdeje6ObJ5WyvEUa5dZPtu1Ew6HOYhYDMNYoFMPEb2Vg9OKUVNTc4qZN2vENrmtrc3zNiORSKRgfm6FEoeQPzIQIp6VsnzAojr2LJCXfNjq63uwCRgS64kLCyfW4xIPXOLh+OGIioVTPCnDfP+Gn9waX16/pORrIAztE5c0ptO7rlLtON6oIMYQFRKGYezQLcvM2lOmBSFdiEgrk9vb27vVv1SwMLPOTDoMGTJEVnYWioa0hUgBZ+jIByyPCRmdVOTDLjGxgvHjnWQo7mb+8bCtvoTz8oknVRh4+o19//fZ2Iadt14I8C2u8pMgRimOKWLLMdF9xKPQ9oHqtIIfoPQvaLdPp6xhGCJEQi6YqlMoFArlY7r4OzqFmFnrHAShEEh/lhnzZB354LTlA4nSkSRDnJhZcjyefeJBQjvpxJMGK8N7u97Pjz/et+Jr67LxMOhR97WE3KbTO8mPW2bJdkzfPq11UAYTzKwz9R4AqrIaiCD0ofM7GpkyZcqBrEeSjM7q7iAieZ8RioZMliGf7C4ffQVSlY/kzFGyBCF2PJKOTz0ee+YoxXhSgXFcMe7a+LNbf8jRCtYvG45Jxu8AVMXlJRqIXWos2xP2AcnyE7NTh33925WaAuDl1E8kOPyuY6777Jn5kH8pgJkn6pRTSsEwCusOBrm45vkaa1FIr6cgYmFm33V8mNn3LvTZgJm1sqkAyjXqymh/kPi1JStVD2zSfrdmxmmJsmD5zAanJR+J3V/ux8frcepm844nWar624G1Pqd4ooel9svJwDFm/pkK99Ru+Omy+2MytHXZaJxm/gHAopiseHV9aU2nt233XsFausxsENFhzXLjsx2LIBCR74KMsN72J4cw83HNomOyGoggBEgGGSIuTZSF+GNMGVKVD1jrc5Ah2OqJN5RYDwMMpZhxgICj1nj6jldQ0eOsxyRksmwCBQaz1l8Hhxi0DwpNDDRG9kf++ObjtyX+Fbdz2ZkYYjwFUnPibThkcazbfffBVs7hGOs+g8fqnMwgQ/dNfmhWoxAEAMxsEpFvsVzEki7MLKviC0VD2kJEQFlCtxcsj/1ZjISMjk14YjJkPZot9VkyMbHjGTapipYFmFmB+TkGPR1W4b/u3a/eeueRm7J25+e0WEEGPrZsKcj4LohHaXdvJcgPPDJJsJSz7rMdAwY4onXrgGxSSKlyoC8drvEBBGYepVtnoZ2jdJnlhoC6zAIpky0044tkWk+uzlH3918YuKQtRJ7T6+0ZHVsmxvrhHv/ct8tVdLMt+4PEepTiY2D1Y3UKP1z7wxsL8+Z8K68zsWjcNbhl2VcBOks7i5NWVggO5Zzq0ErHC4KQJ4jId+VkIir0DIyvEAlCoZDJoOrkLFAse9P/P8cf01nbx296vVL8G3VSfbogRWjHbeUgOgcG/h6Lxn0IFJ2ZpFxEJoUMT9pZIWu7qk5AjOkAAB1ASURBVNDfSAVhUMPMx/zGq6WSrQyYYZrljmQ1CkEIkPQzRIqPglBmsxtbRif61C5D/mv7eE2vZ3APWH3qpXtueDApsK47poHpMpDxbgBTAR4DQsAf/tw3xhmM+CDl2PkMA6EcIZoQExSKn2tcUABnybFt98oSpX0MAFZ5/8utUFLllva03uSZWasrVmeWWS5nrfT29qKkpMSzTKbX/ODBgxgzJvfjaMPhMEIh77ezXL2eIpEITNP7LUczlr0a6/iMWrFihbF8+fKcTn9SSo3RmUHpNxstwGuVMTrtRCJ5f9sUskj6QkQ4RcxlQPyFFNjaPkmDsePHMdThCPM/rP3uDasTAur83KUgfBFkLkFCN3CQfcIWoSBL1iUmPHCRH3t2xi/D41BHoN1qDCj5y80B3/tGAQAR6Q6+FoS0YeYunTEtH/3oRycA6M5+RHGIyHc6fT+dWQ1EEAIk/UHVirtAGBf42j6OGaPYwOkTiPDVa79/wwuxQLr/eSIw/EEY9L50z0UPD5HRzfwEmeHxq8MvJkOdCuzSDBy03uRTWMBRENKGmds1B/lPRu6FSGvpCaVU4Q1nEAQXMhhUjXYwv6vvG2cZSnltH9exRH27I4qXJshQx2fnwRzxBwCV6Z6HP37ZGaftcCjnlcVJI8OTshjZ69dbaTabFNrNEpl5kma5rhTqTD+gLDCYZ5nlkoBieUuznqkAXguiQV2UUlM1Z2Rt9iswAH9uQpGSwTK6/eZvz+hYlSb2uW2RIMu+PlmKvwBjxzMsMhR9VI+s/d71v4wV7rzjbJhoRE5kiJF0P7DYPqfbaPguihjf7jpY2lK/VjlL264xWb5Xanv2rlvxsXXr1tFEpDtAVa6dkHWYeZNm0dlZDcSZaX4FmPnQmWeeuTMHsQhCIKS/UjXQlpTRsWeBLNmJhIUOOWFL/2ZOPD6hBO/h3uOfixXedvskGMYzgPYHWBqkKiFO5dzuQ+YkRm4iY5Mur3bZXp+TkMXa1r67+2CAmWt0yyqlmrIZiyAAwPHjx18HYm+CXuT0jvIrVqwwiKhWo2hOs1aCkCnpjyFibmIQohJjl6HYhzFg6d1Jb3p9RPH3X7734/tjjQ8d9jCA09KN3RurQNi/t51bRgOnLYLoWJ/TPod40mqXFXr3tgR2ydKkwNLTs1OIR0uIdGaZFdrCjMXSRiG160QQscyePfvA1q1bNwKY61P0vIwbS4EPf/jDZzCz78KuzLxap75C+bnJwoxC2hmiU6fUprgEIUliLMOCEP0wjkqQswzFZ6Ql1KP4yJFjB34ca7jjs9eAcHm6cXvjkIFJyLpEszUpdn2lfB8yt30OXXGu3Xae7W7GnA3HsnMNixMiOkenHDNvrqmp0brnmWa7ZUHVJQxI/qJR5rTW1ta6rEfSDzOfq1NOKfVctmMRhCBJW4he+MY121jx0bjk2GUo1en1CWYVO56JH3/zR5Z7gRn01XRjdscmP0kS4iQ/TmJkERbd7i2n+p2EzDcmj7FD9naZJZVtg5kv0ilHRM8H3O7wIOsTBhbhcPi3OuVM07wy27FEMQxjiV8ZZm5/9NFH12U/GkEIjgzuds/MwCtuMmSVG73p9YnHxx7D6nexRnfdcRYI89ON2eVMkkXDMSvklMXxEBnH7IxHhscvy+SV/dHOLEX3Rf4a7DUsbrZu3TqFiN6lU1Yp9ceAm58acH3CAOKxxx5bw8y+A5OJqCEX8axYscIAcIVG0cdyvVikIGRKBrPMADCv7Xvs+y8xI5T42FfcTYbYcjwS6jmpwvFp9qZxdUbxJgbvkoFJRTRsdWSUFbJknHTq0I0peR8Dp1YFdx3Th5k9v3K1ijMzN/jF0h/PYQB/TqHqUxr1zlm5cmXObqOic57F0EY67eZyVfCgYlm+fLli5l9qXNOFW7ZsmZnl08L1119/PjNXaMTzc906C+XnpvkekJNYhPyQkRApYC3DKjMWCYJVhixvgpywN2o/MRmKf3ADinnn6/fddNDS5PmZxBvHQU6SJERj6rqX4LgKiUWAHMtpZpZ823LNdv0N9a9qr6Mz0CEiYuZbNMs+VVNTo72gJRH5rgZORGVz5szRGpMxkMilBBY7kUjkAWbWudHrp7Idi2maH9Mo9kxNTY3v+kOCUGhkJESncPIlKFYxGUJchvo+gBO2wFqq7/PbdkxUrGJSxYmLBxLOzCTeWAS+suKSnbHKiZfIaGWW3OTH4Ri2bE+qzy2z5BJThP8382s4cGhtbb2CiLQGpIbD4R+lWH2bTiHTNG9Ksd6CJRKJ9OiUmzdv3thsxzJQqK2t7SCiX/mVI6KbW1pasrYuW1NT0yRmvsGvHDPfk60YBCGbZCRELy1v2M+El2OaE/MatyxQPPvjnEWKbolVZLuJJk1IP9p0Mzw+x2hnljy6t1Jq10mgXMSIHWIifjT9axgs+epaidLY2Bgiou/oxMHML9XW1qY0GL2np2eDZt3/1NzcPC1Lp5lAtq/5/Pnzjyulwn5tRCKRQIUoHA7n/fUUJRKJBB5LT0/P3cx80qfOoYZhfCtLp4WSkpK7AQzx6VL6fU1NjfbEg2xcq0wolDiE/JDZGCIASqmngajzcFyGLI99D/0vpqgMWR6tMhR3oSBffB4ZnphApDpwOoUMj68Yec1kS6Vdr/NQAPgVzFrzdoAXNqsQUdrrZOlQXV19F4BZmsXvSrX+mTNndgLwXW2YiEpM03ywf8Bq1lBK+a4dExC+K3kbhqG9EKYAzJw5czuA+/zKEdFHW1pa3hN0+21tbecSkWfXMjP3RCKRz3mVEYRCJuM34EgvP2mVGW8Z4gQJcpIhtkqVylSKohLiJDUpTl1PEigX+fGq36k+pwxPssg416Etbv3XUalHMrygueZdW7ZseTYbg0VbW1uvALBcpywz/yGVv3ptx/63TjkiuuTGG2/8Xjpt+LFixQqjra3tNsMwnslG/Q687leAmf8uF4EMJPbs2fN1ZvZbUJUMw/jlxo0bJwbV7qZNm8qZ+VcAPMd9EdFX6+rqWoNqVxByTcZC9Ndv/WMrM//VKjMAHB+j3mOVIFcZytSFfLu3fLMpDnWkICHs1a5XHal0uelmlgCAD2PfYd9xCLlEM1X+XgCbWltbfxbU+Ijm5uariegJZjb82ldKHent7b093bYikcjDzHxYs+vsztbW1odWrVpVGsR5AkBra+vl119//RvM/CMAo3LUPfGcXxtE9OGXX355WBCNRSmmrpd0Ylm0aNEJZv4IM0d86q0cNmzYqvXr14/O9DyamprKSktLVwE4w+f35IVf/epXaQl9ofzclFIFEYeQP4JJ0avI96wylJgRSnyMS1C0uFWGYr4EgKHSegF6ZUmcJCTVqetOYhTNLPkMtvZql+316cbkl1mKXZb/wpI34wtcFhcmES0lom2tra0PNTU1aa0ZZGfVqlWlra2t3zRN87cAtD6MmfmO+vr6tO/7VldXtw/A13XLE9HHzzzzzHWtra0XpNvm+vXrS1paWhpaW1vXEtEzRJTTm39GIpEnmNlvcPWE8ePH352LeAYSM2bMWMfMn9coevbIkSOfb2lpOT3dtpqbm6eFQqE1RLTQqxwzd0UikQ/JukNCsROIED3/zWv/wMzrAAcZgr37LHpU9MM7LkNWI0rPxe2C4icyHpkWz8ySl2hpDLb2bddJoFxisrablBWKcRIqkpXumFxCRCVE9PGSkpI3W1tb17a0tPyLzht+U1PTpJaWls/U1NRsIaK7oP+6f7i2tvY/M4saeOONN+5j5jW65YloNhG9sGXLltXNzc036Pyl39TUNKS5ufmiLVu23Ddq1KidhmE87vdBli3q6ur2EdHDGkU/39LS8pmsBzTAmDFjxr3M7Pu6JKK5hmGsb21tvb2xsVF7PF5TU1NZS0vL503T3ExEnjeOZeZjSqmr+sfLCUJRE8igVWbmC7+88pMMeplABhD9SO4XnKgMxbtv+sTJJkNOApVCFA4C4bDdcx8c6nDY7lVH2scghTp8Yk2+NA9gztp2jYuYUzJMQS/s/8D/QWtrazv33Y6kDcAeAD1ENJqZpwKYHwqFZgEwUmmPmV/cunXrbdOnT88kRgBAQ0NDpKWl5TpmXkNE01I4dIlhGEtGjhwZaW1t3Qhgk1Kqg4gOMnOYiMoBVACoC4VC8wAMK5S0PjN/hZmvJaLxXuWI6L6WlparlFL3Hj9+/Nn58+f7rrfj0Wa6hwZOtmPZsGHDsjlz5gwjIr9p8OUAHqioqPh8S0vLz5VSz3R3d7+xZMmShBm8TU1Nk4hovmEYV4ZCoesBjNE4hxPMfE1dXd36DE6lYH5uOnHIwowDm8Bm8bzwjYZXL/jyk/cQ8EWOZS9smhMVn9huiyABSOxac/14t+ElFPE2ncVI45i0RMZPyFJp109+/GSIu3GEv611KYuXaiKqtm/M4M7Vrx49evSqyy+/XHsRRj9qa2s7mpqaLjFN8zkimpri4SaAeQDmGUZfcqvQ78o9Y8aMvW+99db1pmn+CT4ZOSL6O9M0/66srOxAa2vry8y8HsB2pVQnM79QX19frF29WaOhoSGycuXKj86dO/cYgE/4lSeiKQC+YprmVyoqKsKtra37mfkQgFIA40KhUKozEPeEw+Gr6+vrX0kjfEEoSAKd5vtiq/py7F5PUeGxPMZkCByXIZsEJY5D8rNxqwzodiVxYjlHkUlltWi3hRpdnnvF5DneyG+wteP1YTB9DIte2u9zIQsSZm5h5q8DOOlbOLg2Hz958uTF8+fPPxR03fX19W1KqUXR7uVcw8z7mdmza4OZTwTV3syZM59j5o+yxirLANCf8bqCiL5CRA+Zpvk0AJme70JDQ0NkxowZS5VSn9IYsxWjfzmLiUQ0nYimEFFKMsTML/f09MwXGRIGGoEKET/eEDmx78AHmPlZv+n1fQc4T8+Pj0NybclFQtKYup4kUFYJcdrnM9haS2R8YtIWN9cLFL2+n8fsF3M11TpwiOhkbW3tV5VSMwH8HEAki82dYObP1NXVfWjOnDnHstXIzJkzOyORyGJm/gF8f4DBwMwvMfPHOjs7qwC86lM8sKwYANTW1v6KmS/xEzEhferq6h5g5gUAsn3T5kNKqc9t3LjxglmzZvnecFYQio3AF4J77WdLjx9ow1Ws+AdWCbLKkNP0+mQZchtY7SAnXpkWx2yKj+DoZHi0yulkeNzkyqVdHRliRMD8acx66ft+P698ojvdtq6ubtuMGTNuCofDdUqp/1BKHdE5VvOLlVJPRiKRmbW1tfdzDgY01NfX99TW1t4RDocXKaVeCPBcrOf0slLqrpMnT55RW1t7fm1t7SPRcSO5nlpcV1f3/NGjR2cqpe5j/9WW044l6PrSJR+rL9fV1W2aMWPGhUqpDzDzxiBfT0qpo8z8gyNHjtTU1dX9e0NDQ2B/mMhK1UIhkZWVgN98vKEHwB3n/+tjj8PAtwG6KFGGYJEhywvN8siAw8KMThLisN1rn3V70j6X7bHYHLIzKbUbVEyevAIV+RfMeXnApbPr6+vbAHy6paXlSwCuZeYPAriYiErSqG6vUuoJwzB+UFdX57fYXVbo73K4qLm5eQn6xoFcQ0RlaVR1ipnfBLCWiBpPnTr1wpw5c3anGZbvDWnTob8L8s7169d/a/jw4R8hogYiejd8FvvTRSl10DAMz8UziUjr3nKZwsx7mTkvsdTV1T0F4Knm5ubz0PeauoyIJqVaD/d1wa0B8Gsieqy2tjYrr4t8Xis7Sqk3iWiMTxm5MfYAhnJhvef/63/PAsxrmXgxM2rBfBpAJf16FMuARJ/HHpmfX3f/zUtiFXXdcRDAaH2R8dhn3e4lOb5ihIDa1RWyJPYCvBWMlxGJPIG5a1/U+Znkm8bGxlBFRYXf2JINtbW1Z3kV2Lhx44hQKHShaZqLAMwBMIOZJxLROCD2xr6fiHYDaGbmDUqpFzZv3vxykH/pBsGqVatKp02btrBfFKajbwbZqP7dPUR0XCm1D8A+AB2GYWyNRCJtu3fvbl2yZElYp43m5ub/JaJr3PYz82t1dXXnZHouOjQ1NZUR0dlEVNc/KH4cM0fHsxwFcEIp9e/19fXyIZQmRESbNm2aHQqFzgVQB2AGgPEARgAYib4u0mNEtF8ptZ2I3lJKvXnixIkX5s+ffzyPoQtCzsmJEAVG12cOgrl/TRZdCXEoq5PhCav3oOaxxhyc1aCksbExNGnSJF8hqqur8xQiITXeeuutRiK6yKNIY11dXeD3whIEQSh0snrzzMDh6KyzdLJCcJcfpzoEYXCyL98BCIIg5IPiEqKkLie4Z37SyQollCuo3hRBCAQiGu5TZG9OAhEEQSgwikuIFAME6MmPw/ZUxv0QfRFvX3uTpfF4e8qeqVLJZWLlohJmXVPJWk4BrB5C/V+LYuxPkPh11xZVd26RoJQa57WoIzNLhkgQhEFJcQkRFAByl5+0Bim7HEN8aWI5WPYhflz0s8X64Z1QDpZyDKsvxY9RjQAGnRAJuYeIKnyKyPoygiAMSgJfhyi7MFJbLTrVRRFtxyTsc7s7vdP6RpYFInVikt45IQesWbNmJIBhPsW25yIWQRCEQqO4MkRJmRafrJDX2KG0u9xSbVcnUzU4kS6z3FJWVlbhd03D4fDWHIUjCIJQUBSXECXIRfR7DfnxkhxPMYJDOR+5cmzXT8gEIfuUlJTUee1n5t79+/e/nat4BEEQConiEiIGQDpZnHQyPJZjtMTIof6U2xWE3MHMc70GVANo0l3gURAEYaBRXELkJzKpDpwOLMOTTkyCkHMW++z3u/GrIAjCgKW4hMi6MGMQ2ZlAutUscjNyMVC2CAiNA8J7gSMvAYdfcKhDACBjiHLImjVrRo4ZM2aJ1zVl5hdyGJIgCEJBUVxClGqGJ+2sEFKrwxgOVH8dGD43MdzRlwHHXgd2/hsQORr85RAETcaMGfMRAEM8ivCJEyeey1U8giAIhUYRTrtnOE6ND3Q6vcY0fuu+yi8ly1CUEfOA6uXZuySC4MMrr7wyCsCXfIqtOeecc+QmqoIgDFqKK0PE7D+o2nNwdKrdahqZpeFzgbKF3nGXLQKGnwUcfyPTKzCgkC6x3DBixIgHmLnSp9jPchKMIAhCgVJsGaKexOyM06KIXhkel+deizh6ZpYUULZAL/SRHtJEkJk9QlbYuHHjXQA+4lNs+1tvvfV4LuIRBEEoVIosQxTpANGE1DI8bhkjuEgSvOuwt2uO0Yvdq5ziTr1KBEGPlStXmnV1dfcYhnGnX9lIJHJnQ0NDTy7iEgRBKFSKS4iAvwE8N/vT6eFff3R7b7de5L17PHbSJr1KBhbSZZYdNm7cWFtbW/ufAM7XmMn3i7lz5z6Vm8gEQRAKl+LqMlORp2NdVRkPnI4+T/XeaLbth/+qF/sRl3KM9ZizZnda10MQLKxbt27ypk2bfghgExGd71eemV8FcFv2IxMEQSh8iitDdDL8ewwPdYK5Ip7tgX73lmu3GmzlNI6JtnuyFTj4NDDmSve4DzwNnNzivI/44TSuhCAAABobG4eWl5e/l4j+qbS09H0ASnxWowYAMPPfiOiy2bNnH8t+lIIgCIVPcQlR/eM9ePuDy2HQg+mP+4H72KG0VqkG0PF9AASMuSI55oNPA53fdzkh3o7D/EiKV2HAIAszps6rr746rrS0dAGAdwNYPHbs2AsBDI3u17lmzPwHIvqQyJAgCEKc4hIiAKh5/CG8fd11AL837XE/qWSWvAZlR+FeYNe3gP1PAiMvAEJjgfD+vm6yEy0eJ8PLsOilExlcDWEAQkT02muvTTYMY7phGNMBzAAwC8CsoUOHVmRQdQ8z33XWWWfdy2KbgiAICRSfEDEzmt//IZQYL4MwPfMMj5MA+QiTGydafATIeh74Ema99Ce9wsJgYu3atSNDodBWIjIDrPa5np6eTy5YsKBFXEgQBCGZ4hpUHaXuqX1gvhhKNcWFJdWB0/3b2eEYV0kK6oNEfQ2zXvxWQJUJA4yFCxceJqJAbrTKzK8AuHzOnDmXLFiwQNPWBUEQBh/FKUQAUPNkO3ByEZR60n+hRi/hcZhN5rhQYyAcRUTdgHe9tDyoCouVPXv2MDOfZGZ4fQ1WIpHIX/yujcdXDzM/FYlELpo7d+65c+bM+WO+z0cQBKHQKV4hAoCaZw5j+m+vBfgjYLUnnu1xEiPLlHmv6foJYhStIwCYf4tI7xzMeemxYCosbhoaGiJHjx6dyMw3MfOf0fdDEPohor+kUp6ZwwD+xMw3h8PhiXPnzv3AvHnz5O71giAImtCA+Su8ZfFI0Og7Ab4dwISkAdVpDbYOAOYXoOjLmPOi5oJFg5N169ZNKikp+RCAG4joHABg5g1nnXXWWXkOLS+sXLlyyPTp0w8S0TCn/cx8GMAbAP7KzI2HDh1au2TJkqO5jVIQBGHgMHCEKErje4aisvTDUHwLCH03EEt3On26MA4AeBwI/xiz1m7MvMLBxWuvvXaGYRjvI6LaefPm3ZrvePLF66+//gUimsTMBwAcJKK9Sqmtvb297yxcuFBziXRBEARBh4EnRFaaLpkCg68F4zIQLwZjWKIYAQHK0GYAqxFRT6O35y+Y/1pvxvELgiAIgpATBrYQWVk1vRSTqxfBwLlgng9S8wGcDiB1GWLsAfFGABsArEME/ye33xAEQRCE4mXwCJETjacPxejTzkAoNA3gKgAjQRgF4lEA9YBxEkwKxHugaBdM7kQE20V+BEEQBGFgMbiFSBAEQRAEAcU+7V4QBEEQBCEARIgEQRAEQRj0iBAJgiAIgjDoESESBEEQBGHQI0IkCIIgCMKgJ5TvAIKEiMhtVxaac5yexzJtTxAEQRCKjoKfdm+THLI9Om1z2md/Do3tgPtqjezz3P7ouE3kSRAEQRAKg4IQIov0OD3an/uVcXp022bfZ8XpwuiIjvXRbZtfGZElQRAEQcghORcim/y4CU8m++Cwz74NDs/d8JMfL+lx25bOPpEkQRAEQcgSWReifgHyExu/LyONY+ztweHR/tyOjgz5iY3bl0rjmIT2RJAEQRAEIRiyIkSaEuQkOYbDPrfn6cgSPB6d8OsOS0d6lM9zv2NEjgRBEAQhYAIVIosIpZLtsUqQXX7sguT2qCNOut1oUfy6x9IVHadHe3k3OfLNKokYCYIgCELqBDLt3iMj5CU/bo/25177dGVJJ2PkhG5GKBXpcXpu/T4au7I8Wvc5SVKM/p+FiJEgCIIgpEDQ6xC5yZBO5sdNhty2+clRJmKUjgjpSFBUaqh/uzUGZXtujwOIS5JVhAwkSpGIkCAIgiCkSMZC5JEdgmUbbPvtZf2263S/ecmVV8bKHheQ2D3m1W0FJAqINatDtuc652qXJDhsZ9t2IDl2IiKZlSYIgiAImmQsRMzMlqn01g9g6zbr8+j3TmNy7OX8ttszJobDPi85sdbteHouX27jhfz2sUfdXm3CpZzTMX0bRIYEQRAEQZugusyskgPbcyAuJ9GyVlmxdvlEP9QN2/d2kYoeZ5eh6KM1++PVZQb4C5FTHPbxO35jh3S2u5Xzky4nYRIZEgRBEIQUyPUsM79ZYTpjgVKdaQbbc10ZiuImHMr23CtDpDvY2k2C/LJOsS/JDAmCIAhC6uRiHSInMdEdC5SKTOl8weG5H25CpPOlKzV+EuSUlUp4LiIkCIIgCOlTqCtV64iTrvg4CVC6QmR/dOu20pUkne1OX4BIkCAIgiAERk7vZeZyE1c/kXETHvsMMTfxyUSGovhJkdM26z77GClf2XHZJoOlBUEQBCEL5P1u9w6SFH3uJklw2O703KlO+zan763YL47ToGU/SfISJqfvY2VFfgRBEAQhN+RdiLywyBLgLExO250e4VDGa7vbRXHa7pY9sm9z2i7SIwiCIAgFQEELkS42cYpt9jsshSb8LlLSfhEdQRAEQSgeBoQQCYIgCIIgZILhX0QQBEEQBGFgI0IkCIIgCMKgR4RIEARBEIRBjwiRIAiCIAiDnv8P5ERgF4m+TK4AAAAASUVORK5CYII=;" parent="1" vertex="1">
          <mxGeometry x="461.28999999999996" y="320" width="261.71" height="74" as="geometry" />
        </mxCell>
        <mxCell id="wVApdM7j8vLzc2VSNfJm-17" value="" style="shape=image;verticalLabelPosition=bottom;labelBackgroundColor=default;verticalAlign=top;aspect=fixed;imageAspect=0;image=https://fastapi.tiangolo.com/img/logo-margin/logo-teal.png;" parent="1" vertex="1">
          <mxGeometry x="738" y="304" width="304.26" height="110" as="geometry" />
        </mxCell>
        <mxCell id="wVApdM7j8vLzc2VSNfJm-19" value="" style="shape=image;verticalLabelPosition=bottom;labelBackgroundColor=default;verticalAlign=top;aspect=fixed;imageAspect=0;image=https://miro.medium.com/max/440/1*J3G3akaMpUOLegw0p0qthA.png;" parent="1" vertex="1">
          <mxGeometry x="1227.2" y="311" width="140.8" height="80" as="geometry" />
        </mxCell>
        <mxCell id="wVApdM7j8vLzc2VSNfJm-20" value="" style="shape=image;verticalLabelPosition=bottom;labelBackgroundColor=default;verticalAlign=top;aspect=fixed;imageAspect=0;image=data:image/png,iVBORw0KGgoAAAANSUhEUgAAAaAAAAEZCAMAAADmLQHWAAAAAXNSR0IArs4c6QAAAARnQU1BAACxjwv8YQUAAAMAUExURQAAAFub1Vyc1V6d1l+e1mCe1mGf12Og12Sh12Wh2Gij2Gqk2W6m2nCo2nOp23Oq23Sq23Wr3Has3Hmt3Xqu3Xyv3X+x3oCx3oGy34S034S04Ie24Im34Yq44Yy54o664pC745O94wAAAAAAAAAAAAAAAAAAAAAAAAAAAAAAAAAAAAAAAAAAAAAAAAAAAAAAAAAAAAAAAAAAAAAAAAAAAAAAAAAAAAAAAAAAAAAAAAAAAAAAAAAAAAAAAAAAAAAAAAAAAAAAAAAAAAAAAAAAAAAAAAAAAAAAAAAAAAAAAAAAAAAAAAAAAAAAAAAAAAAAAAAAAAAAAAAAAAAAAAAAAAAAAAAAAAAAAAAAAAAAAAAAAAAAAAAAAAAAAAAAAAAAAAAAAAAAAAAAAAAAAAAAAAAAAAAAAAAAAAAAAAAAAAAAAAAAAAAAAAAAAAAAAAAAAAAAAAAAAAAAAAAAAAAAAAAAAAAAAAAAAAAAAAAAAAAAAAAAAAAAAAAAAAAAAAAAAAAAAAAAAAAAAAAAAAAAAAAAAAAAAAAAAAAAAAAAAAAAAAAAAAAAAAAAAAAAAAAAAAAAAAAAAAAAAAAAAAAAAAAAAAAAAAAAAAAAAAAAAAAAAAAAAAAAAAAAAAAAAAAAAAAAAAAAAAAAAAAAAAAAAAAAAAAAAAAAAAAAAAAAAAAAAAAAAAAAAAAAAAAAAAAAAAAAAAAAAAAAAAAAAAAAAAAAAAAAAAAAAAAAAAAAAAAAAAAAAAAAAAAAAAAAAAAAAAAAAAAAAAAAAAAAAAAAAAAAAAAAAAAAAAAAAAAAAAAAAAAAAAAAAAAAAAAAAAAAAAAAAAAAAAAAAAAAAAAAAAAAAAAAAAAAAAAAAAAAAAAAAAAAAAAAAAAAAAAAAAAAAAAAAAAAAAAAAAAAAAAAAAAAAAAAAAAAAAAAAAAAAAAAAAAAAAAAAAAAAAAAAAAAAAAAAAAAAAAAAAAAAAAAAAAAAAAAAAAAAAAAAAAAAAAAAAAAAAAAAAAAAAAAAAAAAAVo814AAAEAdFJOU////////////////////////////////////////////////////////////////////////////////////////////////////////////////////////////////////////////////////////////////////////////////////////////////////////////////////////////////////////////////////////////////////////////////////////////////////////////////////////////////////////////////////wBT9wclAAAACXBIWXMAAA7DAAAOwwHHb6hkAAANOklEQVR4Xu3d7WLbNhKF4U1309Ztsmm23m6TfqS9/4vU2vJre44okCDEAQfMPL9qHRAEcWpTlhz7H6cUWhYUXBYUXBYUXBYUXBYUXBYUXBYUXBYUXBYUXBYUXBYUXBYUXBYUXBYUXBYU3JWC3qQa7Ja3LKgVu+UtC2rFbnnLglqxW96yoFbslrcsqBW75S0LasVuecuCWrFb3rKgVuyWtyyoFbvlLQtqxW55y4JasVvesqBW7Ja3LKgVu+UtC2rFbnnLglqxW96yoFbslrcsqBW75S0LasVuecuCWrFb3ioLIvpasQuCyFsWVINdEETesqAa7IIg8pYF1WAXBJG3LKgGuyCIvPUo6I+Pbz/xn4NiFwSRN/eC/mSGNz/zwIi4BEHkzbsgjj/joQFxAYLIm3NBHA4eHA/rF0TefAvi6Bc8PByWL4i8uRb0M0e/IhgNqxdE3lwL4mCLZDAsXhB5613Qv4jGwuIFkTfPgj5xsHhHOBTWLoi8eRb0loPVf0lHwtIFkTfPgj5y8IU/iAfCygWRN8+C/uDgS8QDYeGCyFvvJwlnxONg3YLI2y4FDdcQyxZE3lwLenmhdIIBo2DVgsiba0HlT6HBGmLRgsibb0Hlhu4YMAYWLYi8ORf0N8dPfWDEEFizIPLmXNDpMxNM/cqIEbBkQeTNu6DSd6sP/mLEAFixIPLmXtDpB6aYYsAAWLAg8uZf0NX5njAgPtYriLx1KOgADbFcQeStR0HjN8RqBZG3LgWVG/qGAcGxWkHkrU9B5YZ+ZEBsLFYQeetUUPlVuSF+npG1CiJvnQo6/cJEU78xIjKWKoi89Sro9J6ZphgQGSsVRN66FXT6lqmmGBAYCxVE3voVdHXeJwyIi3UKIm8dCxq4IZYpiLz1LGjchlilIPLWtaByQ98yIChWKYi89S2o3NB7BsTEIgWRt84F/cZ8U78wIiTWKIi8dS7oyr9IefYnI5LoXdDpR2acYsAGPt3f3d1/4YPBdS/o9A1TTjHgJu+Y6xkPj6t/QVfnf8KAZnfMo8b+VNqhIK+GrtfziAFD2qMgl4bK9Txi0IB2Kajc0A8MWGu+ngdj/SSrsU9BX5h26j+MWGexnwcMHc0+BZ1+Zd6pz4xYg0MXMHgwOxV0+jcTT/3NiGrlT8cL9xwwlL0KOn3PzFMMqFXdz5s3I/7Ord0Kmvm6xIBKHFRlwG+J9itoo4Y4pBIHDWTHgjZpqOb5m8Vh49izoHJD1b8wZm0/430/tGtB5YZqf2EMw1fgwGHsW9DvTD9V9wtjVn8CPeDQUexb0Ome+aeqfmEMY1cZ7JnczgVN3r95xYA5LZ9Ao30K7V3Q6Z+cYYoBMxi4EgcPYveCyru8+C9T2j6BBnsit39B5YbIixh2JFyZEaCg5oYYdSRcmRGhoOJOExeUn1+Mi0szIhRU3GnyAgYdCpdmBCiofK9nQAGDDoVLM/YviDNcw4gCBh0Kl2bsXdDs222MKWDQoXBpxs4FzX4rM/9vUla8kzoOrs3Yt6D5bzXnX44rv4w3MK7N2LUgJi9hVMERn2XHKmjpU4BhJY0v9MTGtRn7FbS0wQwryi9xFtGGbu3n+p/uGB3XZuxU0NJTsJo3VBl6KFyasU9BCzf47xg2j8GHwqUZuxS08OWt8kd0GX0oXJqxR0HMWcKoRQw/FC7N6F/Qwu2n/v3OfLvBINrAwraueT+aQ46EKzN6F7Rw+1n17w845ki4MqNzQUxXwqhKHLRWlB8aYTmCyOha0Ga3H3DcSlF+cpHlCCKjZ0ELt5/1f8CTA1fi4N2xHEFkdCxoy9sPOHSVMD/6y3oEkdGvIGYqYdQ6HLtGnB9bZEGCyOhV0MJLm63bxuErcGAALEgQGZ0K2ubFnSmOrxfnEyhUQQ63HzBDNQ6LgBUJIqNLQUxSwqg2zFGJg0JgSYLI6FDQwluft37RYZoqHBIDaxJEhn9BXrefZyve+o71q0ZYlCAy3Ata6GeD70qqGwr2q2BYlSAynAva+sWd65htQbR/nMqyBJHhW9CG7y3MYr5ZDI2DdQkiw7Ug79vPK2YsC/T9zzNWJogMz4I4toRRG2HS6wLWs39BfW4/BhNfEfPXkLE4QWS4FdTr9mNc/1/iLupviWN9gsjwKsjvxZ15zP/sLvDvFWGJgshwKojDShjl5Mund2/u3oX/2wDshSAyXArqfvsZErshiAyPgjZ/a/uY2A5BZDgUtNftZzTshyAyti+II0oYlXYqyOmt7SNiSwSRsXFB/V7cGR97IoiMbQuqu/18+I6PF3z/8Wn8QXGVgsjYtCAGl5zHlP9qw1W/nw86JK5QEBkbFlT11jYf1PvmfNgRcYGCyNiuoKrbDx+scj7wgLg8QWRsVtBCP0+vu/DBOm/Phx4PlyeIjI0KqntxZ+X959lB/8IqVyeIjG0KqnxvgQ9X4/CD4eIEkbFJQbXf/fDxahx+MFycIDK2KIgxJYw6nX7igdX+xwTHwsUJImODghhSYF7cqfz+dOqYr39zcYLIuL0gRhTYF9+yIMHFCSLj5oLm7z/y3sIHHlwtv8QJxgqiqfnnbwx6xqOrcfjBcHGCyLi1IPKr7Je3Mx5fjcMPhosTRIZjQdM7R36janF1gsi4saCZr3DX3tomWidf6rnAWEE0UX6KwIALhKtw6OFweYLIcCpocvt5Rl5vmLcbVv+ZeC5QEBk3FlR4D2jmre3DvmFX+Wf3XnGFgshweZKw8JNVPx3yLe/HFfOfdc7XeIHI8CiI6CtzvvT5v2agzgdcIDJuLWj6Na54+zk4Lr/+s54DBJFxa0GT0V/tT1Zx/fW3IoYLIuPmgi6GR/8nBX7YgEc8soDBgsi4vSD7VPtr/fL2iC04q7oVMVYQGRsU9HrEV/1z8ewBKm5FjBRExiYFPbgP/++lvLFTLxZvRYwTRMZWBSV2yiAoYZQgMrKgrbBT1vytiEGCyMiCtsJOqblbEUMEkZEFbYWdulS+FTFAEBlZ0FbYqSnyCWJBZFQWlG5QuBWRCiIjC+rh6q2ITBAZWVAfV25FJILIyIJ6YXdf8bggMrKgbi5vRTwsiIwsqCO9FfGgIDKyoK7srYiHBJGRBXXGJj/gAUFkZEG9vdyK+FgQGVlQf/wEHR+Jp8TKgvrLgkLLL3GxsckPeEAQGVlQV/k0O7T8RjW0fKknNnb3FY8LIiML6iPfbggt37ALbeu3vGNZ+EVNVy5pJ6xninyCWBAZ4Qti5UUM2x/rueTwY1exsPIihu2P9SiXH1wMZfFPPIb5Fy+sxyrcfMAgQWREL4iFz2Dg7liOQVDCKEFkZEFbYTkvyjcfME4QGcELes/CZ0T5GsdyMHfzASMFkRG8INY9i6F7YzVn8zcfMFYQGbEL+sy6Z71n8M5YzSMeWcBgQWTELohlL2DwzlhMxc0HDBdERuiCqj6BenwKcSJB9IKHK24+4ABBZIQuiFUvYrgfziOIXpwfrLr54HzABSIjckGL36Q+c38ix3kE0Ytrj806z3KByIhcEIuuwAFuOI0gelF/8wHzCCIjcEFLr2NbHOKFswiiF/1+oV8Qlc8Qnjg/T+Asgqgd8wgiI25BLLmS7+854SSCqB3zCCIjbEGsuBqH+eAcgqgd8wgiI2pBa25ATzjQBacQRO2YRxAZQQuqeJH0kudzbU4hiNoxjyAyYhZU/R2Q5dgQZxBE7ZhHEBkhC2rqx/OpHCcQRO2YRxAZEQtq+Pr2xO1ziPkFUTvmEURGwIKa+/FriOkFUTvmEURGvILWP3+zmGRjTC6I2jGPIDLCFcRKmzHNtphbELVjHkFkBCuo8emB5fGLu5laELVjHkFkxCroti9vz5hsQ0wsiNoxjyAyIhV0w7MDtflzBeYVRO2YRxAZcQra4Kvbq42/zjGrIGrHPILIiFLQpvU82rQi5hRE7ZhHEBkxCtrm3nOJyTfAhIKoHfMIIiNAQZt/8rza6mbEdIKoHfMIImPngu59Pnesz5zqFkwliNoxjyAy9ino/v7+zr8a6+79/Q1NMYkgasc8gsjYpyCW0xknb8AEgqgd8wgiIwuqwQSCqB3zCCIjC6rBBIKoHfMIIiMLqsEEgqgd8wgiIwuqwQSCqB3zCCIjC6rBBIKoHfMIIiMLqsEEgqgd8wgiIwuqwQSCqB3zCCIjC6rBBIKoHfMIIiMLqsEEgqgd8wgiY5+CRsP2CaJ2zCOIjCyoBtsniNoxjyAysqAabJ8gasc8gsjIgmqwfYKoHfMIIiMLqsH2+eN8RhZUg+3zx/mMLKgG2+eP8xlZUA22zx/nM7KgGmyfP85nZEE12D5/nM/Igmqwff44n5EF1WD7/HE+Iwuqwfb543xGFlSD7fPH+YwsqAbb54/zGVlQDbbPH+czsqAabJ8/zmdkQTXYPn+cz8iCarB9/jifkQXVYPv8cT4jC6rB9vnjfEYWVIPt88f5jCyoBtvnj/MZWVANts8f5zOyoOCyoOCyoOCyoOCyoOCyoOCyoOCyoOCyoOCyoOCyoOCyoOCyoOCyoOCyoOCyoNBOp/8DxkVo1a223okAAAAASUVORK5CYII=;" parent="1" vertex="1">
          <mxGeometry x="1233.72" y="69.70000000000002" width="122.29" height="82.6" as="geometry" />
        </mxCell>
        <mxCell id="wVApdM7j8vLzc2VSNfJm-24" value="&lt;span style=&quot;font-size: 36px;&quot;&gt;Pass组件&lt;/span&gt;" style="text;html=1;strokeColor=none;fillColor=none;align=right;verticalAlign=middle;whiteSpace=wrap;rounded=0;shadow=0;dashed=0;fontFamily=Helvetica;fontSize=150;fontColor=#FFFFFF;" parent="1" vertex="1">
          <mxGeometry x="238" y="497" width="160" height="150" as="geometry" />
        </mxCell>
        <mxCell id="wVApdM7j8vLzc2VSNfJm-25" value="" style="shape=image;verticalLabelPosition=bottom;labelBackgroundColor=default;verticalAlign=top;aspect=fixed;imageAspect=0;image=data:image/png,iVBORw0KGgoAAAANSUhEUgAAAhwAAAItCAYAAABy2KN0AAAABmJLR0QA/wD/AP+gvaeTAAAAB3RJTUUH2AEQExIBTlMXoQAAIABJREFUeJzsnXd4VNe1t98Z9VHvEipIQkIIJHoRGDBgsDFgcInjuCZOnDhxi50b3/jmxkmu05zYn+PENYnjuOKCwdjGdNOrqBLqoIJ6r6Oumfn+OIAxSCCdfUYzGu33eebRIM1eewGaM7+z9io6JBKJRDKcCQZCAX8goI+HAfAAvAEXwA9wBTwHuY8FaDr3vBkwA21AO9AANPbxtR4oAYyq/mYSh0JnawckEolE0i/BQMy5RywQBUSiCIzzX11t5NtgaAFKgbKLHiXAaSAXqLWda5KhQgoOiUQisS2+QOK5x7hzXxOAMQw+CjFcaQDygRwg79zzDKAQJbIicQCk4JBIJJKhQQfEAVOAyeceKUC0LZ2yc1qAdODkucdRIBvotaVTEnVIwSGRSCTa4wKMRxEXU1HExSTAx5ZOOQgdKOLjGIoAOYpyLGOypVOSqyMFh0QikYjhDEwDZvJ15CKZ4ZFb4SgYgX3ADmAXcBwpQOwOKTgkEkl/BKOE+yOBMCDo3CPw3FcD4HXuqxtK9YMzV7+Lb0EJiTed+9oKdKLcuRqBnnM/6zj3s1qg7tyj6qLnXZr8LQePN5AKzAXmoQiNkZJrMVxoAXYDO1EESDpKVY3EhkjB4RgYUD4cfFFCufpzz0Eph3M/99yPvv/P24BulDuClnPfO3/hP/+B0IKS2CXftI6FP5CEEv4fd+5rzLmHh828GhitfFOAVAFnURINi849qjXYxwu4DliIIjImA04a2JUMHZXA58B6FBFiK7E6opGCw74JQkkyG4NS/hZy7mvwuUfYua9DeXdVjyI86vt4fr7sreTc884h9EtydeL4Op/g/CPCph5ZnzagmK9FSOG5P+ede97dxxo9yr/TEmApMAclciNxDFqBzcCnwCa+7i0isTJScNgeHUp9fTIwAZgIjEURGb5XWDccqEERHqUoIqQE5UKfh3Lxl5nm1iMIJdw/AyW/YAZKNEPyNb0ooiMDpQxzFMr7bhyKkJc4Pj0oEY93gHUox3gSKyEFx9DihlIGd3FZ3ESUkO1IoxvlYp+DcrHPR8k0z0becaghACXsfy2wAOVoRL6/JZKB0wx8giI+9iL7f2iOvCBZl3iUcOzMc49JyMz1gVCEUvaWjnL3efLc9yTfJAVYAdyI8nsm8wokEm0oAN4+9yixsS8OgxQc2jIaJbFsIbAIJbtfog1NfN3857wQyaTvM3hHZhLwbeAOlPC/RCKxHmaUUtu3UKIfMtlUACk4xNCjlMfdhHKnmWxbd0YcPUAWkAYcBg6hHMs4WiXNKOB+4B6U/AKJRDL0NACrgVdRjoIlg0QKjsGjR0nGuwu4BZlcZm80owiQQ3wtQupt6pE6XIBlwI+AG5DHJRINcXFxwctLSR3z8fHByenKv17Nzc309vbS3Nw8FO7ZOxZgC/BXYBsy12PASMExcFKA+4DvII9KhhMWlCjILmDPuYcWvRmsxTjgeygRjRDbuiKxZ3Q6HSEhIYSEhBAWFkZoaCghISGEh4fj7++Pr68vfn5++Pn54evre+HPrq5iaWRGo5H29naMRiPNzc20t7fT0NBATU0NlZWV1NbWUltbS2Vl5YXvNTY2avS3tjuygL8B7yLbAFwVKTiujC9KJOMHKKWFEscgB6UL4R7gK5TyXVviDNwGPIQSPZPvSwl6vZ7o6GgSEhIYPXo00dHRxMTEXHgeERGBi4uLrd0cEE1NTRQWFlJYWEhRUdGF54WFhRQXF9PbO+wr5OuA14GXse8bGpsiL2x9Mwd4ELgd+++2KBHDgpKIuh3YijKPYajuVPxQjkweAaKGaE+JnREYGEhiYiLjxo1j7NixJCQkXPjq5uZma/esTnd3NwUFBWRlZZGRkcGpU6dIT0+nuLgYi2XYnVZ0AK8Af0YRIZKLkILja3yAu1GExiQb+yKxHR0oNfhbgS9RklC1JgR4EvgJcgbHiMHd3Z3k5GRSUlK+8TU8PNzWrtklLS0tnDp1ilOnTnHy5EmOHj1Kenr6cImGGIEXgf+H7Ct0ASk4lAqAJ1CEhreNfZHYH2dQhMeXKMcwImW4YcB/o/yuGcRdk9grer2epKQkZs6cyYwZM5g5cyYTJ04cNkcg9orRaOTQoUMcOHCAvXv3cvjwYVpbW23t1pVoQhEdL6KIkBHNSBYcY1Eu/vcim3FJBoaRr2cwbODrQXdXwwt4CvgpDthV1tPTE3d3d3x9fTEYDFc8BmhpacFkMtHa2kpvby9Go5Genp4h9NY6jBo1itmzZzNr1ixmzJjBtGnT8PaW9y/WxmQycfLkSfbv38+WLVvYtWsX7e3ttnarL+qAP6HkeIy03kEXGImCIxr4P5SKE72NfZEMX7pQjl3Wokyh7CsN3xklR+PXKEP3hg2urq5ER0cTFxdHTEwMUVFRhIeHExwcTHBwMCEhIQQHB+Pjc7VJ9Fenvb2dpqYmmpqaaGxspKmpibq6OioqKqiqqqKqqorKykoqKiooLS2lu9v21+vQ0FAWLFjAwoULWbhwIWPHjrW1SxKgs7OTnTt3snHjRjZt2kRBQYGtXbqUXOAxlHLaEcdIEhxBwC9RKgGGbSaWi4vLhQv++Q+Ai58HBwfj7u5+4e7Kz88PnU6Hp6cnrq6u36i/P3+XCUoWucViwWQy0dLScuHnDQ0NFx719fXf+HNDQwO1tbVUVVUNx+QuLTk/AGoNyvjrOuAalOQxu84H8vf3JyUlhfHjx5OcnExiYiKJiYlERESg19ufHjeZTJSXl1NcXHyh4iEvL4/c3Fxyc3Pp6rJOI0hvb28WL17MwoULWbRoEePHj0enG0mXz+FJbm4umzZtYsOGDezevRuTyWRrl87zCfBfjLC26SPhHeMMPAz8FqUqwO45n7WemJhIXFwc8fHxxMfHM3r0aIKD7a/PWHd3N+Xl5ZSVlVFSUnLh+dmzZykrK6OoqMiR6/CHDSEhIaSmpjJr1iymTZvGhAkTiIx0nJYyJpOJoqIisrOzyc7OJisri1OnTpGdna3q2GbMmDGsWLGCFStWMH/+fOH+FRLbUllZyUcffcQHH3xAWlqard0BaAP+gJLjYfuw3RDg6ILDru8yDQYDycnJTJw4keTk5AvP7VFUiFJbW0teXh55eXmcPn2a/Px88vLyKCgosNpd6UgnJiaGxYsXs2DBAmbPnk1cXJytXbIJnZ2dZGZmcuzYMU6cOHHFaofk5GS+853vcOutt5KUlGQDbyVDwenTp/nggw9YvXo1eXl5NncHeBSle6lD46iCIwilDvp+7OjvmJSUxKxZs5g1axapqakkJyfj7Oxsa7dsislk4uzZs+Tk5JCbm0tWVhbp6elkZmbaxVn9cMJgMLBkyRJuuOEGlixZQnx8vK1dslva2tpIS0tj7969HDlyhISEBJ5++mn8/f1t7ZpkiDl27Bhvv/0277zzjq1bt68BHgcqbOmENbGbD2ON0KG0hf4LiuiwKWPGjGHRokUXzn1DQ4dV3qBN6e3tJTc3l5MnT3Lq1ClOnDhBRkYG1dWyid/F+Pn5sWLFCm655RaWLl2KwSCrbSUSNRiNRt59911effVVMjMzbeVGC/ArlMi8ow2hdCjBMQ74BzDfVg44Ozszd+5cbrrpJlauXCnvMK1ARUUFaWlpHD58mEOHDnHs2DF7r8PXHDc3N5YuXcr999/PsmXLZG8HiURjdu7cyauvvsr69ett1WgsDfgu1mk8aDMcQXDoUcqM/ogN2pA7OzuzZMkS7rzzTpYvX05AQMBQuzCiMZlM5OTkcPjwYQ4fPsyBAwfIzs52yKqZSZMm8cADD3DXXXfJ3zOJZAgoLy/n9ddf57XXXqO+fsiHTncAv0Dp3eEQF7ThLjhGA28Ci4Z649mzZ3PXXXfx7W9/m5AQOdTTnqirq2Pfvn3s3r2bPXv2kJ6ebk/lcIPCxcWFW265hUceeYR58+bZ2h2JZETS2trKyy+/zAsvvEBd3ZCPSNkOfB8oHeqNtWY4C47voByhiHceGiA+Pj7cc889/OQnPyE5OXmotpUI0tLSwr59+9izZw/btm3j5MmTmM32fTzq7e3NQw89xKOPPkpERISt3ZEMQ1rauzC2d2Hs6MLY0Y2xU/na2a0cERg7urBYoKunl66e/o8NvD3c0Ol0ODvp8XBzwcvDFXdXF9xdnfE2uOHh6oKPwQ0/bw/0Dt6bxGg08uqrr/L8889TW1s7lFs3olSyvD+Um2rNcPztcAGeQ2kTPSSMHz+exx57jLvvvvtC0yzJ8KWuro6vvvqK7du3s337doqLi23t0gUCAwN57LHHePTRR2XFhOQyuntNVDW0UlXfSnWTkdomIw2t7TS0dFDX3EZjawf1LW20tA99qblep8Pf2wN/bw8CfAwEehvw9/Yg2M+LUYE+RAT5EBHki7dh2PZdvEBbWxuvvfYazz33HDU1NUO59RqUoY9Dfr6jBcNNcEQAHwJzh2Kz1NRUfvGLX7By5Uq77Loo0YbTp0+zZcsWNm7cyM6dO+nsHKrp9F8TGBjIk08+ycMPPyxF7Qinpb2Ls9WNlFQ3cra6ibLaZirrW6hsaKWuuc3W7gnj4+lOZJAPo4J8iQsPID4iiLGRQUQE+TLcAiTt7e289tpr/OUvfxlK4VEO3Iky1XpYMZz+e6ejzKyw+iznRYsW8fTTT7NgwQJrbyWxM9rb29mxYwdffvklGzdupKTEup2Hvby8ePLJJ3niiSfksK8RhslspqCigdNltRRU1HO6rJ6CynpqGkfmUFGDmwvxEUHERwQyLjqEyfGjiA0LGBYixGg08sorr/Dss8/S1DQk0+h7UQZCvsAwSigdBv+VACwDPsLKkzbnzp3L73//e6699lprbiMZRqSnp7Nu3TrWrVunaW2+q6srDz74IE8//bRDdpaVXE6TsYNj+eWkF1SSfbaa3JKaC/kUkr7x8XRn8phwJo0ZxaQx4YyPCcXV2cnWbvVLVVUV//u//8tbb701VHli61F6T9m0Y9lAGQ6C40coTVCs1pIzOTmZP/3pT6xYscJaW0gcgLy8PNatW8fatWs5duyYaju33norzz333IhtNT6SaTJ2sGb3KdbsSqehtcPW7gw7XJ2dGDc6hFnjopiXEsu40SF2mah64sQJHnroIQ4dOjQU2+UAq1BapNs19vc/9U3+D2W0t1WIjo7mmWee4d5775U5GpJBUVxcfEF8HDp0aEB3MwkJCbz00kvccMMNQ+Ch9pgtFpqMnTS1ttNo7KDJ2ElzWyfdPSa6enoxdnTR1WOis7vvQWnnqxyc9Ho83V3R63V4urvibXDDx+CGt4cbXue++nl5DItQulq6enr54kAO728/QWntkITgHRJ/bw/mTIjhmuTRpCZF4+PpbmuXLmCxWPjwww/5xS9+QWmp1StaG4E7sPOx9/b6lnYCXkWJbmiOq6srP/vZz3j66acdqhV0d6+JptYOekwmWtu7sACd3b309JjoNZlp71Jmk7S0d6HX6fDyUKZfujg74eGqdKt0d3XGxUUJWXp5uOJrcLerN7E9UlFRwSeffMJ7773HkSNHLvu5u7s7v/rVr3jyySftfuJoc1snp8vqOFvdSEV9CxV1LZTXt1DV0EpTawfmIWqo5qTXE+DtQZCvJ0G+ngT4GAj19yIiyIfwQB8ig3wJ8vO0y7vbwWC2WPjq+Bne+DKNgophWXhgN+j1OibFhXNNcgxLpicQEeRra5cAJb/j2Wef5YUXXqCjw6pRLRPwBPCSNTcRwR7frW7Ae8C3rGF84cKFvPLKK8NqEmR7V8+FTPW65jYaWjtobG2nrrmdxtZ2Gs6Vwhk7rDPsTKcDH4M7vp6K+PDxdLsgRPy8PAgP8CbE34tQfy/CArxxcxm5A+lyc3NZvXo177//PoWFhaSmpvLmm2/a5e9bS3sXmUVVFx65pbU0tLTb2q0B4+LsRHiANzFhAcSG+xMXHsDYqGDiwgNwGmYRS7PFwpYj+fzzi8My4qERKbFhLJ2ZyJJpCQT42P7GMj8/nx/+8Ifs2bPH2lu9CPwXdjiLxd4EhwH4DFistWEfHx9efPFF7r//fq1Na0Z3r4n80lryy+o4U15PQUU9xVUN1A+jDwEAPy8PRYD4eREa4MWoQF9Gh/oRE+ZPRJAvzk7D68NADRaLhYqKCsLDw+3muK6lrZMjeWUczinhxOkKiqsbcMAO8Li6OJEQEURiVDBJo5Vqh5jQ4VHt0NNrYv3+LP698YhDlMDaA3q9jlnjorlhxlgWThmDp7vtoowWi4XXX3+dp556ipaWFmtutRa4Bxj6Gv8rYE9vQauJjQULFvDWW28xevRorU0LUd3YyrH8crKKq8kqriavtJae3uHZgnugOOn1jAr0IfqcABkzKpCxkUHEhQfi6mK/2efDEYsFcs5Ws/NkAYdzS8k9WzNkRyL2ho+nOxPjwpgYF86UhAiSY0JxseNqh/auHj7ccZJ3tx2n1QZNvBwVNxdnrp0Ux7euTWFqgu06+JaVlfH973+fbdusmnKxH1gJNFhzk8FgL4LDAHyBxjNR3Nzc+OMf/8jjjz9uF3eZja0dHM0v40huKUfzyiipkaHT8zjp9cSE+RMfEUhiVDAJkUEkRgbbRSh0OGE2Wzh2upydJwrYlV4wYns6XA0PNxemxI9ixrgoZiRGMjYq2C7zQZqMHby15RhrdmVcsf24ZPAkRARx+4KJ3DgzEQ+3oZ+4bLFYeOmll3jqqaesmduRDVyP0izM5tjDO8wdRWxoGtmIjo7mk08+YcaMGVqaHTTFVY3syShkT0YRGYWVmM0j8w5TLWEB3qTEhpEcG8aEmFCSRoeM6ByR/jhTXs/Gw7lsOpxLrQzFD5oAHwNzk2OYmxJD6vjRGGzwAXQlqhpa+eeGw3xxMNshj8FsibfBjZtmJ/GtaycSHeI35PtnZ2dzzz33cOLECWttcRZYih2Mure14HAC1qGEfTRjyZIlrF69mqCgIC3NDpiz1Y1sTstjy9F8SqplFENLnPR64iMCSYkLIyU2jCkJEYwKHLL5fXZFe2c3Gw/n8dn+LHJKhnSeg0Pj4uzEtLERLJoSz4LJYwjw9rC1SxfIKKjk2Q92kl825BNLHR6dDlKTRnPvkqnMTIoa0r27urr4+c9/zssvv2ytLeqAG4Gj1tpgINhacLyKMohGM375y1/yzDPP4OQ0tOezja0dbErLZXNaHtln5cV/KAn192ba2AimJIxiSnwEMWGOPfSspLqJj3als+FgDm2d1qlMkijo9TqmJUSweFoCi6bE428H4sNkNvPRzgxe/+IQ7fL/3ypMHBPOD5fPZPb4oc37W7NmDQ888IC1EkpbgJsAq5fJ9IctBcdTwJ+0Mubs7Mw//vEPvv/972tlckCcPFPBmt0Z7DxRQLeDJ3wOFwJ8DExNiGDmuChmJUXZTT2+KBkFlby5+Qj7M4tlWN0GODvpmZUUzU2zk5g/Kc7mLbZrm9t44eM9bDtm9w0mhy0psWH8cPks5iQPnfAoKiriW9/6FsePH7eG+Q7gduBLaxi/GrYSHDejHKVosr+Xlxdr1qxh6dKlWpi7Kt29Jr48lMMHO9IplM167J7IYF9mjosidXw008dGDrtGZsfzy3l9wyGO59tF3pcEpSne9dPHsuqaCUyICbWpL4dzSvjzB7tkEroVmRATymO3XsO0sZFDsl9HRwcPPPAAq1evtob5bpSS2TXWMH4lbCE4xgJpgCa3nWFhYXz55ZdMnTpVC3NXpK2zm7V7Mln91QlZIz9M0et1JEWHMC8lljnJMSRFh9htf4b8sjpe/nQ/B7LO2toVyRVIjArmtvkpLJ2ZaLNk0+5eE298mcZbW47KxHQrsnhaAo/fNpewgKGZ7Pzcc8/xP//zP5hMmkfPTSgj7odUdAz1pdaAIjYmaGEsLCyMnTt3Mm7cOC3M9UtXTy9rdmXwn81HaW6zqz4qEkECfQxcc646YVZStE2bAp2nydjBq58dZP2+rBHbN2M4YnB3ZUVqEncvnmyzY7yMwkp+859tslupFXFzcebuxVP4wbIZQ1Ixt2XLFu644w6amzUfCNuLIjo+0dpwfwy14PgA+I4WhsLDw9mxY4fVxcbmtDxeXn+AqoZWq+4jsT2uzk7MTIpi0ZR4rp0Uh+8QH72YLRbW78vi1c8O0mSUk0SHK3q9jkVT4vnuDdNIig4Z8v07unp4ce0+1u09JXN9rEhYgDeP3nIN108fa/UoaVZWFsuWLaOkpERr0z0oomOt1ob7YigFxyNoNFRmKMRGUVUDf/5gF0fzyqy2h8R+cdLrmZYYwXVT4lk4Jd7qpZGFlQ088852MouqrLqPZGiZnhjJvUumMmdCzJAf3R3IOssz72yXx79WZnL8KH5x5wISIqzbhqGqqooVK1Zw7NgxrU13o4y336y14UsZqrfANOAAIByvDg8PZ+fOnSQmJop71Qed3b28sTGN97efcPg245Kr421w47XHb2Gcle5UTWYz72w9zr82HJZVTg5MfEQg9yyeyo2zEod0sFxLWyd/Wr1TVrJYGWcnPd9bOp0f3DjDqi3z29rauOOOO/jyS82LTNqB64BDWhu+mKEQHH7AcSBW1JC1IxuZRVX89u1tFFc1WsW+ZHjh5eHKqz+9hfFWqkIormrk1//ZIvu2jCCigv34yapUlkyzfhj+Yr44mMOfP9hJZ7dsj25N4kYF8vS915ESG2a1PXp6erj//vt5//33tTbdDMwDTmlt+DxDUUj+PjBH1Iivry87duxgwgRN8k2/Qa/JzL++PMz/vb2dxlZ5di5REgBfenQVyXHWuXB8fiCbn7/+JZX1MjdoJNHS3slXx8+w91QREUE+RAYPTXJpYlQwc1NiOZJbKhPfrUhjawdfHMymq8fElPhRVolmOTk5cfPNN1NfX8+RI0e0NO2O0rJiPWCVu25rC47vAv8jasTV1ZUvvviC1NRUDVz6JuV1zTz20mdsOZKPRWZYSQB3V2f+9shKJseP0tx2d4+J37y9jX9vPEKvyay5fcnwoK65jY2Hczl5poLYsACC/bysvmegj4HlqUkUVzfKKK4VsViUhpD7M88yOX6UVbrT6nQ6li1bhslkYs8eTRuHegMLgdWA5mOKrSk4ooHPUVSTanQ6HW+//TarVq3SxquL2HeqmEdf+ozyOqu0kZUMQ1ycnfjzj5aRmhStue3iqkZ++MInHJMNvCTnKK9rYf3+LIqrGkmJC7N6WbarixNLpo3Fw82Fo3ll8ibLitQ1t/H5gWy8DW5Waw63aNEiPDw82L59u5ZmQ4GZwIco/To0w1qCQ4fSSTRJ1NDvfvc7HnnkEXGPLsJssfDPDYf50+oddPXIRD2Jgk4Hv/3e9Vw3NV5z2ztOFPDTlz+jrrldc9uS4U9BRT2f7s3EzdWZ8TGh6K2Y4KHTwaQx4UxLiOBA1lk6unqsttdIx2Q2sz+zmNNldcweP9oqfTvmzp2Lr68vW7du1dJsLBAHfKqlUWsJjkeBh0SN3HzzzbzyyivoNHzztXf18OTrX7J+f5ZmNiWOwSM3z+H2aydqatNigX9sOMRfPtxFT688QpH0T4/JzMHsEnafLCQhMsjq3SzDA324cWYiJ85UUNskS2etSXFVI9uOnWbSmFEE+3lqbn/27NnWEB0TUZqDaXZmYw3BEYGiioRigwkJCWzcuBF3d+2aL9W3tPPI39Zz/LQMaUu+yco54/npbXM1tdnda+K3b2/j410ZmtqVODYNre18cTCbqoZWJo0Jx93Veu3SDe6uLJs1jrPVjRRVNlhtHwm0tnfx5aEc/L0NJI3Wvsw+NTXVGqJjIZB97iGMNQTHP1D6bqjGYDCwbds2oqO1O0c/W93Ig39dJ99UkstIjg3jzw8u0zSjvKW9i8df+Zy9GUWa2ZSMLPJKa/lsfzY+nm6Mi7LezB9nJz2LpybQ1dNLekGldTaRAGAyW9h7qoj6lnZSk6I1r2JJTU3Fz8+PzZs16+GlA5YDG4BqUWNaC46FwPOiRt544w2uv/56DdxRyC6u5sG/rpMd9ySXEehj4LXHb9F0gmxtcxs/fmGt7K8hEaarp5e9GUWkF1QwPTESLw83q+yj08GspGhC/Lw4kHVWzvCxMjlnaziaV8a8lFg8NB74l5qaiqurKzt27NDKpAuwFKVyRSgJTUvB4YJSlRIsYuS2227jD3/4gzYeAVnF1Tz8t09pbde8wkcyzHFxduJvj6xizKhAzWxW1LXwoxfWylHhEk0pr2vh8wPZhPh7kRBpvRba46JDmBgXzu6MQtn51spUNxrZcjSfWUnRBPgYNLU9b948jEYjBw8e1MqkP8rJxfuAajWqpeB4BLhPxEBYWBgbN27EYNDmH/9MeT0//utajB3dmtiTOBb/c9dCFkweo5m9kpomfvT/1spBfxKr0N1rYufJAgoq6pmRGGm13I6IYF/mT4xlf+ZZWjvkjZo1aevsZlNaHknRIZo3gVuyZAllZWWcOHFCK5OxKG0uVNfgaiU4PFFG3Ap1r3nvvfeYOnWqJg7VNBp58K/rZOdQSZ/cOi+ZH62YpZm98rpmHnxhHTVNRs1sSiR9UVTZwMbDecSEBRAd6meVPfy9DVw3NZ79WcU0GWVnUmvS02ti69F8gv08NZ3ZpNPpWL58OSdPniQvL08rs7OB3cBZNYu1Ehw/R5k2p5rvfve7PPXUU5o4Y+zo5icvrqO0plkTexLHYmxUMM89uFyzhK2aJiMP/XU9lfWygZxkaGjv6mHL0TzqmtuYlhhplYFhnh6uLJ42lrTcUupbZP8Ya2K2WNhzLsF82thIzezq9XpWrVrFV199RXm5JtWZOpRczX+jTJkdFFr8lvoBHwOq+7cGBgby2Wef4ekpXp/c02viZ69+QWaRcEKtxAFxdXHipUdXEeSrTS38eXErW0VLbEFOSQ27M4qYkRiFn5f2LbQ93Fy4fvpYTpypoLpRRu+szbH8cprbOpkzIUYhWyRkAAAgAElEQVSzqiQXFxdWrVrFp59+SkODJlWafkAASuXKoNDiFu/nKAklqvnd735HcLBQrukFXvp0P0fyyjSxJXE8Hrl5jmZJoj29Jp58fQNnyus1sSeRqKGwop77nv2I7VYaQe9tcOOVx25mZlKUVexLvslHO9P5zVtbMZu1qxQKDg5m06ZN+PlpdgT3I5Rx9oNCNMIRiNJvXXWTr+nTp/Paa6+h1yC8vfVoPi+u3SdsR+KYzEiM5Kk7F2l25/C7d79i18lCbYxJJAL09JrYfvwMxo4uZoyLQq/XtmmHi7MTS6aP5Ux5PWerZTTP2pwur6O4qpFFU+I167QdEBDAzJkzWb16NWazcNdjHcoo+3+idCMdEKKC42lUqJzz6HQ61q5dq0mDr8KKep54dYOcwCnpEx+DGy//9GbN+his/uokb285poktiUQrThVVcSSvlNkTRms+CM5Jr2fxtHhKqpsoqJBRPWtTWNmgueiIjY3VsjGYP0ozsLSBLhARHAEojUBUX8HvvvtuHnvsMQEXFNq7evjJi5/Kxl6Sfnn63sWajZs/klfGr/+zBdkbSWKPVDca2XQ4l6TRoYwK8tHUtl6nY+HkMRRXNVIouzZbncLKBs5WN7Fw8hjNRMesWbMoKSnh5MmTWpibCLzKAKMcIoLjf4HFahc7Ozuzdu1aAgICBFxQ+MuHuzmUUyJsR+KYLJ6WwI9Xpmpiq6K+hUf/vl5O2JTYNR3dvWxMy8Xfy8B4jUej63Q6Fk2Jp6CigaIqKTqsTUFFPfUt7cxNidXsOPjGG29k27ZtWlSu+ABVwJGBvFit4PACPkBpAqKKBx54gPvuE+oTBsD+zGJeXLtX2I7EMfF0d+XFR1ZqEl7u7O7l4b+vp7xWlltL7B+LBfZlFmPs6GZWUrSmU7d1Oh0LJseRX1onu+oOATklNfSYTMwcp03irpOTE0uXLuWtt96is1O4z8ok4GXgqq1p1QqOB4FbVK7F3d2dTz75BB8fsXBfS1snj730GW2d8m5T0jeP3nINqUniOUIWC/zmra2k5ZZq4JVEMnScKqoiv6yO+RNjNe3X4aTXs2hqPFnF1ZRJEW51Tp6pwNXZSbOjYR8fH0JDQ/nss8+ETQEVwNGrvVDNb58zSu6G6lLYRx55hG9/+9tql1/gmXe3k1FYJWxH4pgkRATx6/uuQ6/Bnd3Hu9J5d9txDbySSIaes9WNHMouYd7EWE2TSZ30ehZNiedkQQWV9bKlv7U5kldKVIgfCRHazNOZPHkyaWlpnDlzRtRUMkouxxWrNtTUot6K0lNdFZ6enpp0FD2YfZYtR/KF7UgcE50OfnHnAk26iRZWNvC3dbLcWjK8ySmp4bvPfqR53xh3V2defOgmJsaFa2pXcjkWCzzzznZNe0298cYbWjTdjAHuudqL1FyNn1Cx5gIPP/wwoaFiSUzdvSae+3C3kA2JY7M8NUmT0GNPr4mn39xCd4+cnCkZ/tQ0Gvn+c2tIy9H2aNDg7srfH11FkoazQCR9o3XDwVGjRvHwww9rYeqqJaeDFRxTAdXp/h4eHvz85z9Xu/wC7207LhOVJP3ibXDjp7fO1cTWPzccJq+0VhNbEok90N7ZzeOvfM7udG2b1nl5KKIjKtg6A+UkX2Ps6Oaxlz/TbMbNk08+iZeX0OxVgMnAhCu9YLCC4/vqfYF77rlHuIV5VUMrb24aUAWOZITyoxWz8PcWnytx8kwFb2+Vzb0kjkd3r4n//sdGNqVpNkUUAH9vD/7+2EpN3n+SK1PTaOTJf3xJT6949DUoKEirKMcVj1UGIzjcgTvVeqHT6Xj88cfVLr/A39ftp7N7wJ1UJSOM8ABvbpufImynvbOb37y1TdN5BhKJPWEym/nNf7ayds8pTe1GBfvx14duwt3VWVO7ksvJKKjkzx/u0sTWE088gYeHsFC8E6XteZ8MRnDcjNJdVBXLli1j/PjxapcDkF9ay7ZjMlFU0j8/uikVVw1K/57/eA/ldbLUT+LYmC0Wnv1gJ+9oHMlLjg3jjw8s1Xymi+Ry1u/L4uNd6cJ2QkNDefDBB0XNjAZm9vfDwQgOoeMULXI3Xvv8kGwnLemXuPAAls8aJ2zneH45XxzM1sAjicT+sViUyPE/NxzW1O78iXH89x0LNLUp6Zu/frKPk2cqhO387Gc/02KQ6vL+fjBQyxEIDGlLTk5mwYIFapcDkFVczd5TRUI2JI7NT1bNFr6j6jWZ+fOHu6SwlYw4/rnhsOYDCb91bQrfvWGapjYll9PTa+K3b28THrkQFRUl/FkNLO3vBwMVHLcO4rWXcf/996tdeoH3ZNMlyRVIjg1jwaQxwnY+2HFSTsKUjFhe+nQ/H+zQZKjXBR5eNYe5KTGa2pRcTlltM69+dlDYzl133SVqYhrQZ330YASHKlxdXbnnnqv2A7kiVQ2t7DhRIGRD4tg8tHK28GCjmiYj/9I4rCyRDDdeWLOHdXszNbOn1+v4/feXEhOmujm1ZIB8tDOd7OJqIRu333477u6qx6SBoiuW9PeDqxEMzFO78/LlywkJEWsG89HOdEzmK3ZMlYxgpidGMjNJfKjRX9fspV1OgZWMcCwW+NPqHWw4mKOZTS8PV1546Ca8PLRrqy65HLPFwj+/FLtp8vHxYdmyZaKuLOzrmwMRHDcjMMb+Bz/4gdqlALS2d7FWQ7UtcTx+fJP46PnDOSVsO3ZaA28kkuGPxaLMqtqToV1zsOgQP/74gxtl5YqV2Z9ZLNwYc/HixaJu9JnzORDBofo4JSwsjBtuuEHtcgA2peXR3tktZEPiuMxMihJuYW4ym3nuI9kqXyK5GLPZwi/f2ExmkXYDMuckj+aRm6/RzJ7kciwW2HQ4V8jGwoV9BigGQ8y5xze4muDwop/QyEC45ZZbcHYWa/7y+QFZnijpn/uWiGfAf7Y/m+KqRg28kUgci87uXp549QtKa7UbJXHf9VNZMi1BM3uSy9mcJtavaty4cYwaJTyL6rIox9UEx3WAm9rdbrvtNrVLAcgvqyO3pEbIhsRxSYwKJnV8tJCNrp5e3vgyTSOPJBLHo7G1g8f+/jmNrR2a2Xz63uuIDpUzV6xFaW2TcGRKgyjH7Eu/cTXBofo8JDAwkGuvvVbtcgA+P5AltF7i2Nx3vXh046OdGdQ0GTXwRiJxXEprm3ji1S80GythcHfl2QduxNVFvCuwpG9Ec9LmzJkj6sJlMyauJjhUp6quXLlS6Dilp9fEpsPaDhaSOA7hAd4snhYvZKOts5u3txzVyCOJxLHJLKril29s1my+0NioYH7+bbGbUkn/HMktFVo/ceJEURcmcInGuJLgSETpi66KW29VnWsKwN5TRTS3dQrZkDgu9yyZipNgC973th2Xv2MSySDYk1HIy+v3a2bv1nnJXD99rGb2JF9zpryeJqP6Y7CUFOEhmJ5A3MXfuNIVW3VdjMFgYMmSPvt+DJjtx84IrZc4Ln5eHqycIzYIsL2rhw93ig88kkhGGu9sPc6WI9oN0fzVPYsYHSqbgmmN2WLhWH656vW+vr5ER4vlyHHJsYpVBMf8+fNxc1Oda0p3r4n9mcWq10scm1vnJePh5iJkY+2eU7S2d2nkkUQysvjdu9vJ0Sih3+Duyh9+cAMuGkx5lnyTo3llQus1iHJ8Y5pmf4LDCYFyWNGmIYdzSmiTvTckfaDX6bhlXrKQjZ5ek+bzIiSSkURndy//9doGGjSqXBkXHcIPl/c71VyiEtFKleRksWstEHnxH/oTHDMBX7U7iAqOnXJuiqQfZk8YTXiAt5CNrUfzqWmUlSkSiQg1jUaefH0DPb0mTex974bpTBwTroktiUJhZYNQkm9SUpKoCwMSHIvUWg8ODhbKbjWZzexO166drsSxuG2+WIjPYkHzEdwSyUglvaBSsy69er2OZ753PQbB41LJ13T19Ao1bUtMTBR1wbqC47rrrkMnMLYzvaBSVg5I+iTE34trklUXTgHKnIHCygaNPJJIJOv2ZrIpTZsWBpHBvjxxu+pZoZI+ELnexcbGim5/VcGhB2aotX7ddX3ObBkwaYK1wxLH5eZrJgiXwq7+6oRG3kgkkvP86f0dmo0HuGVuMvMnCn/QSc5RWd+qem1ISAiurkITfkO4qFt5X1fvJED1IfmMGaq1CiAFh6RvnPR6br5mgpCNkpomjuTJ3y+JRGvau3p46l8bNetE+su7F+FjUF/pKPkakU7KOp2OiIgIURcuJOb0JThmqbXq5eUllNVq7OjWdDKhxHGYM2E0If5eQjY+3ZuJRZsmiRKJ5BLOlNfz/Mfa5HME+Xry2K1zNbE10hFNkI+MjLz6i65MyPknfQkO1bVJ06dPx8lJfS318dNlmrXNlTgWN84SS17q6TXxxcEcjbyRSCR9sX5fFhsFR6OfZ9U1E5ieKPxhN+KpblR/pAKaCI4LY2c1jXDMnClWR30oW4a7JZdjcHdl/sS4q7/wCuw4USDU5lcikQyMZ1fvpKRGfJy9Tgf/e88i3FzUz+SSQF1zu9B6DcbUB59/cqngMACqz0RmzVKtVQAlwiGRXMqCSXG4u4pddNbuOaWRNxKJ5Eq0d/Xw6/9s1SRaHRXsx49WiH2ujHREm2h6e4v1PeIKgiMJUH1lF4lwtHf1yHJFSZ8snSl2nFJc1ciJM+pnCkgkksGRWVTFm5uOaGLrniVTSIwKvvoLJX0iKjh8fHxEXbhg4FLBoXoiVkBAgNBZT1ZxtczfkFyGv7cHs5KihGx8fiBLJotKJEPMGxvTyD4rPm/FSa/nqbsWItDeaUTT02uiu0d9N1i7FBzjx4tN78w5Wy20XuKYXDc1Xqj3htliYcuR0xp6JJFIBkKvycxv/rOVrh7xUtmU2DCWpwq32R6xGAWiHNYUHKobHUyYINYj4VShLIeVXM4NM8SOU06erhDO0pZIJOooqmrg7+v2a2Lr0VuuwVv25lBFu4Dg0CCHw/4iHLL/huRSArw9mCQ4zGnzEW1aLkskEnV8vCudY/niBQGBPgYeXJGqgUcjD5GGbF5eYv2P6EdweACq+8mKCI6aJiO1zW2q10sck7kpsegFDm57ek1sP35GQ48kEslgsVjgD+/tEMojOM/tC1IYMypQA68kQ8iF5lwXC45E+h/mdlVEBMeZ8nrVayWOi+g8hYPZZ2mRgwAlEptTUtPEP788LGzHSa/n53dcq4FHkiHEcP7JxQIjRq01Pz8/oeYgRbIcVnIJbi7OzJ4gNhl2c1q+Rt5IJBJR3t16nLzSWmE7MxIjmZcih7sNhh6TeHRJAJfzTy4WHKqv7qL5G7L/huRSUsdHC3UY7OzuZU9GoYYeSSQSEUxmM7979ytMZrOwrUdvvUZ4cvRIoksgh8PFxeXqLxogF/+PRas1kpgoVkkgIxySSxE9TjmUfVazyZUSiUQbcktqeH/7SWE7ceEBrLpG7EZXMjAMBsPVXzRANIlwxMfHCzlRXCUFh+RrdDqYJzg7ZU9GkUbeSCQSLXnjy8NUNYiXqj94UyoGN+3uviXWRxPBER2tOjiCsaOblvYu1esljkdCZDAB3h6q15vNFvadkoJDIrFH2rt6eHHtPmE7gT4G7lkyVQOPHB+RWVStrdr1MdJEcIwerT65TwulK3EsUgVbmWcUVtLQKifDSiT2yvZjpzmaJ96b4+7FU/DxdNfAI8fGxdnp6i/qh56eHtHtL5QKnhcc7lw00W2wiAiOyoYW1WsljsmMcWKCY3e6TBaVSOydP3+wi16TWAKpp7sr98oox1XxdHdVvdZoNIpuf+EI47zgUF3T6uzsLFQSW1kvIxySr3F1dmJqQoSQDZm/IZHYP0VVDXy4QzyB9I6Fk4SOYEcCIhGOjg7haPGFD/nzgiNEraWIiAicndWfD1XJCIfkIiaNCRcqhy2pbuJsdaOGHkkkEmvxry/TaGhpF7JhcHPh3uunaeSRYyJyTe3uFhtvD1wwcF5wqB5YIXKcAjLCIfkmM5PUJyADHM4t0cgTiURibdo6u/nHBvEOpN9eMJFAH+3KNx0NDzf1gqOlRTgocGFuyXnBEarWUlhYmJAncoaK5GJmCuZvHM4p1cgTiUQyFKzfl0WRYGsENxdn7l86QyOPHAsnvV6oSVpXl3AV6YUzGeEjldBQ1VoFgCajrCaQKLi7OjMuWnXuMmazhaN5UnBIJMMJk9nMS+sOCNu5dV4yIX7Ck00dDl9PN6H1DQ3CfbIui3AEqLUUGCg2ua9ZDteSnCM5NkxIiWcWV2HsED5vlEgkQ8yejEKO55cL2XB1cZJ9OfpAtGxYA8FxwcD5q7vq28qAANVaBYsFmo1ScEgUJo1RnUoEwJFc8bp+iURiG15ctw+LRczGLXMn4OclK1YuxldQcNTWCg/c005wiBypNLd1YBb9DZM4DJPGqC+vBjicIxNGJZLhSnZxNbvSC4RseLi5cMfCSRp55BiICjANIhx155/Y9EhFHqdIzqPX6ZgYpz7C0dXTy6miKg09kkgkQ80/vjgkfBN6x4KJcsbKRYhGODQQHPXnn9j0SKVJHqdIzhEfEYiXh/pueFnF1fT0mjT0SCKRDDVnyuvZfuy0kA0fT3dunZ+ikUfDH3vM4QhSaykoSPVSmttkhYpEITlWrLz65JkKjTyRSCS25M1NR4RzOb6zcJJQAroj4WdnORzugOqOKT4+Pqq9aO8UHgojcRCSRquuzAYgvaBSI08kEoktOVNez75MsfEEYQHeLJoyRiOPhjdBvp6q1xqNRi1mqVxQLOcFh2rc3dUv7+zuFdla4kCMi1YvOMwWC6cKpeCQSByFtzYfFbZx+4KJGngy/AnxV9+bpKxMuPKvk0tmqagPUQBubuqbinT3SsEhUQYLxY9Sn3xcXNlAS7twNzyJRGInpBdUcvy0WF+OqQkRJEapbyToKIQKCI7ycrH/A+Abd4JCEQ5fX18hT+SRigQgflSg0DTDk/I4RSJxON7aIh7l+M6iyRp4MrwJFui+qkGEo+biP+gB1SEKkegGQGePjHBIxI5TADJlOaxE4nAczDpLYaVYhcSSaQl4G8Q+p4Yz3gY3oRJhDQTHN7L59YDqMIVI/gZAd48sY5SIJ4zmltRc/UUSiWRYYbHAJ7szhGy4uzqzdEaiRh4NP4IFEkYBKiqEq/8uO1JRLf9EKlQA2rvk3AuJ0oNDLV09vRRUCNeJSyQSO2TDwRxaBfOzbp2frJE3ww+RhFHQJMLxDQNCORw6nU7Iky5ZpSIB4sLVC47TZXWYzGYNvZFIJPZCe1cP6/dnCdlIiAhivGAUdbgSHiAWFDh79qyoC5cdqYh5JECPSX5QjHTCAryFOozmyOMUicShWbM7Q7jd+YrZSRp5M7yIDBYr7CgsLBR14bIIh1iYQiIRIC5cfWt8gJyzUnBIJI5MRV0LaTmlQjYWTxs7IjuPigiO6upqWltbr/7CK/ON/7iR9z8gsStE8jcAckuF2+5KJBI7Z93eTKH1Ad4ezJ4QrZE3w4coAcFx5swZLVy47EhFNaJlsRJJrED+hslspliwbE4ikdg/e08V0dAqNnvr+uljNfJm+CAS4dDgOKUJ+EZfdCHBIVoWK5GIHKmU1TbTLSfESiQOT0+viQ0Hc4RszE2OQa8fORkEAT4GDO7q8+NOnxab2sslxykgj1QkNiYmzF/12jPl9Rp6IpFI7JnNablC63083ZkYF66RN/aPaMJoQUGBqAuXGZCCQ2Izgn098RRQ4KJdCCUSyfAhv6xO+CZjbnKMNs4MA0aH+Amt1+BI5bIQibOINbNg/4ORE9yS9EWEoAIvrpKCQyKxR3Q68PPywODmeqG9tse5x6W0d3bTazbT2taFyWymrbOH5rYOjB2XN4bceDiXx269RrVfc1NieXn9AdXrhxNxAgMxAXJzxSJKwGWKRUhwiJbMeAr0X5AMf0YFirWAqahr0cgTiUQyWAzursSE+RMXHkBMqD/RoX4E+XoS5u9NgI8BZyexAHqvyUxzWyfNxg6ajJ00tXXi4ixmMz4ikLAAb6oahMs97R6R/Ljq6mqamppEXbiszMWZi2bVD5aeHrFpr6K/kJLhTUSQmOAoq2vWyBOJRHIl/L09SIkNZ9KYcJKiQ4gO9SMswNuqezo76Qn0MRDoY9DU7jXJMazdc0pTm/bIGIEIR06OWILuOS7L4XAGVJ+LtLe3C3nj7qp+ip1k+COS1NTe2U2jYJmctXBzcSYqxJcQfy8CvQ0E+3kR6GPAxdkJT3dXnPQ6XF2c6O4x0dndS3evCWNHF9WNRirrW6hqaKWsroX2TjlrSGIbnPR6piSMYm5yDNekxBAbJtagz55IiQ1zeMFhcHcl1F+9IMzKEmsnD/QAJZd+0xlQfZvY2dkp4hCuzk5C6yXDm1FB6gVHRb3tQ6I+nu6MjQxidKg/sWEBxIQpYeXwAB8ExwwBUNNkpLiykcziKrKKq8kqrqauuU3csETSDxPjwlkxO8mhx7onx4bZ2gWrExceIHQN0kBwFAGX9Sxw7uubA6WrS2yKnxQcI5sIgRyO8iE+TnHS65kQE0pKXBgTYkJJGh1CVLBYFvjVCPHzIsTPi5lJURe+V1LTxM4TBXx1/DTZsq27RANcnJ24cWYidy+eIhSGHy5Eh/jh6uzk0D18RP8fNRAceX1905lLOoENBqNR9VIADO7ySGWk4ursRLCf+tHJQyE4xkYGkTo+mmljI5mSEIGhjwz7oSY6xI/v3jCN794wjYq6FtbszmDd3kza5PGLZJC4ujhxy9xk7l0y1er5GPaEXq8jOtTPofv4jI0MElqvgeDo04AzoDpMYTKJKUS9TiaNjlRGBYkdO5TVal+h4ursxPRxkcxPiWNuSozdX4RHBfnw09vm8sDymazbm8nq7SeolUcukqvgpNez6prxPLBsJiH+6kX/cCY6xN+hBUdSdIjqtVVVVdTXC//bZPf1TWdAKBGjubkZX191Z/EiY8klw5tRghUqFfXaRDh0Opg8ZhQ3zhrH4qnx+HgOv3b9nu6u3LtkKt9eMJG1ezL5z+YjdptQK7Et08ZG8t/fuXZEHJ1cifBA+76ZEEGv15EgEOHIzu5TKwyWfiMcQqUmIqWx8khl5BIpkDAK4j04YsL8WTZrHEtnJgr3A7EX3Fycueu6ydw0O4mXPt3P+n1ZmC0WW7slsQM83V158o5rWTE7ydau2AV9NSBzFEaH+Av9/TQ4TjEDfdbVOqOUr6imvr6eoCB1asrfW9v6asnwQfRDvlyF4PB0d2XlnPEsSx0nFHK0d7wNbvzy7kWsnDOe37/3lUOHjiVXJyU2jN//4AYiBEW+I9HTK9Yl255JGi12bcvMzBR1oRDoM8TqDLSgKBJVCRUiZz2+wzB8LdEGkbPjJmMHXT29A359VLAfdyycxMo5SULTE4cbybFhvPWLO3jmne1sPZpva3ckNuD66WP57feWyIrAS6hpEit4sGcSo4KF1p84cULUhX7PZJwBC9AAqApT1NSoL82TgmPk4ufloXptc9vA0o5mJEZy53WTmZsSi16LxhjDEHdXZ/7wg6UkRAbx2mcH5RHLCOJ7S6fz8Ko5mvSEcTQq6x13LIKI4Ojt7eXUKeGmaP2eyZyfpVKPSsHR0KB+gJavpzsuzk70OHA9tKRvRNoV1zf3n3bkpNezbFYidy2eQkKEWGmYo6DTwf1LpxMR5MOv3tyC2SxFh6Pz/Rtn8NCq2bZ2w24xdoj1kLJXdDoxwZGVlSXc0BPI6O8H5wVHHZCoxnJlZaWaZRcI9feirFbOxBhpiOTvNBovPx7U63XcOHMcP1w+U6hluiNz/fSxAFJ0ODjfWzpdio2r4OzkmEdM0SH+Qh1ijx8/roUb/Ro5Lzhq1VouKbmsXfqgCPX3loJjhKHX6/DzUn+cVt/yda8JvU7HdVPjefCmVGLC/LVwz6G5fvpYunpMPPPONuTpiuNx56LJPHLzHFu7Yfe4uwoNSrdbJsaJtW3XIH+jlT6mxJ7n/L96mVrrpaWlapcCSoRDMrLw83QXyqlobO1Ap4N5KXH8ZFWqPDoZJDfNTqK1vYsX1uyxtSsSDVk8LYGf3T7fZvu3tndR22SkpqmNuuY26lvaaWnvpL2zh/auHrp6emlpvzxc72Nwx0mvw9PdFTcXZ9xdnfH1dMfPywNfL3d8Pd0J8/cm0NeAk142i7wSKXHhQuuPHTsm6sIJrjAQ9rzgUB2mEI1w2Hs3R4n2iJZD+3q68/Yv7mB8TKhGHo087rpuMk3GDt7cdMTWrkg0YMyoQH5z3+IhSxA1dnSTUVhJZlEVmUVV5JTUWL3ZnF6vI8jHk7BAb26YPpY7Fk6y6n7DEZHBdGazmYyMftMvBsoVz2TOCw7VYQrRCIcUHCMPkYRRgO8smqyRJ0NPd4+JzotKer3cXdHrbVNG8OOVqWQUVnI0T3WAU2IHuLo48eyPbrR6M6vCygb2nSpib0YR6YWVQ54HZDZbqGkyUtNkFG4c6IgY3FyIF+ggm5+fLzwfDTh5pR8KC46Wlhaamprw81M3OTMqxLoTNyX2h7+3+pJYe8bY0U1OSQ1FlQ2crW6ktqmN+pY2apvbaGhpp7O7794hOp1SJhzs60l4oA9jI4NIjg0jJTbMqq3W9Tod//e9Jdz5u9W0tDtm1v5I4IfLZxEbFmAV2w2tHWxOy+XzA9l21UDOU7CfjiNWqUyICRW6eTl06JAWbgwowiF0LpKfn8/MmTNVrY0OkUp1pCEa4bAHLBYoqqznaH4ZpwqryD5bQ0lNo6pETItFyUtpbO0gv6yO3emFgBJCnpYQwcIp8SycMoZgX0+N/xZK0vYv717EU//apLltifWJGxXIfddP1dxuaW0T/9l0lE1peXbZtsBTcA5Xe6dQg227RDR/QwPB0UE/Lc3Pc15wVAC9F/15UJw+fVq14Ajx88bg5kJ7l+P9Akj6ZrjOMahrbmPfqWLScks5ml9GQ4vQGKKrYjZbOJJXxpG8MkwnMZkAACAASURBVJ7/aDdzU2K59/qpTIkfpek+i6clMOdANgeyzmpqV2J9frIyVdNEys7uXv654TAf7Dhpl0LjPKIRjrbObo08sR9E8jdAE8GRgaIj+uW8wDAB5cBoNbvk5FxR1FwRnQ4iQ/zIL1VdmSsZZhjchk978TPl9ew4cYZ9p4rIKamxWSmp2WJhT0YhezIKWTRlDP/17fmE+muX//TwzXM4mH1WlsoOI5Jjw1gwaYxm9nJKavjVv7dwtrpRM5vWwlNw8Kej3eDqdMrMHLUYjUYtZqhcVbFcHNEoQaXgOHOm37LbARET6i8FxwhC9O7E2tQ0Gdmcls/Gwzl2dW59nh0nCjiUXcLPbp/PzXMnaGIzMSqY66ePZcsROXNluPDgTbM0q0r5YMdJ/rZ2H70mdUPN3F2dCfb1IsjXgIuLEy5OTpjNFlraO6lpNFLb3HZ1I4NA5Kalu9dk19EbNcSGBQjlxqWlpWEyCf+bDEpwFAPz1OwiEuEAGB0qE0dHEgbBuxNrYOzoZufJAjYeyuFYfrndzxxp7+rh9+99RX5ZLT+7fT7OTuJh9Z+snM1Xx8+o/tCRDB2T40cxe7yq+8NvYDZbeP7jPXy8K33Aa5z0eibEhDIzKYoJMaHERwQRfpVqw5a2To6dLmfniQK+On5mUMMX+0Ikh6PdAY9Tpo6NEFqvUcLooARHntpdzpw5g8ViQadSbkeHyg6RIwmDHeVwHD9dzie7T7E7vVD4ImgLPt6VQXFVIy88dJNw98TIYF9umj2eT/cJh1YlVuaexVM0sfP8x7v5eNfAei8kRgWz6prxXD997KCHL/p4urNw8hgWTh7D49+ax+ufH2TdXvW/Z6F+6htGNli5X4gtmJpgc8FRhRK0uCIXX6FOq92pvb2d0tJSoqOjVa2XLalHFrbO4ejuNbHtaD4f7Egnt0T9tGN7IS23lP/51yae+/Fy4UjH95fNYMOhHIcLOTsSYQHezJsYK2zn8wPZAxIbE2JC+eHyWVyTHKPJEU6Atwe/vHsRXh5uvLNVXWfLEIEO1XVN2h7v2AN2IDgODuRFFwuOXJHd8vLyVAuOaNmLY0ThYaMjlYbWDtbtOcWa3RnUW7nCpD+CfT2JDvUnwNvjwpClzu5epS10cxs1TUZV1S97TxXxzw2HhYd2hQd4s2jKGJnLYcesnDNeuDLlTHk9z36w84qvcXd15vHb5nHb/BSrdDC9f+l01uzOoGOQCZxOej0BAt2KqxpbVa+1R6JD/QgSKJk/ffo0tbXCOZQDUiwXC44zgAVQ9at1+vRplixZomYpnu6uBPt6ap5YJLFPPFyHVnCU1zXz741H2JyWR/cQ37kb3F2ZlxLD/IlxzBgXRcAAErsaWzs4XV5HekElaTklnCqqGlBexVtbjjJnwmgmC5bNrpozQQoOO+a6qfFC681mC8+8s43unv7fC24uzrz82M3Cv0tXwtvgxuhQ/0FHGQN9DUINrmodLMIxLSFSaP3u3bu1cGPQgqMdgUoV0cTRqFA/KTgkmlLd2Mq/Nx7h8wPZNkmEvHVeMg/fPAffQXYL9ff2YOa4KGaOi+KHy2fS3NbJtqOn2Xg4l4zCyn7Xmc0Wnn5zC6t/dZfQiOrp4yIZFeRDRV2LahsS6zA61J8xAu2rAT7ceZLss1f+kL/v+qlWFRsAPb0myusGPyk8RCB/A5QqNEdCNGF0zx7hIY7dQNpAXnhpXE71bY0WpbESiRa0tHXy/Me7ueXpd1i3N3PIxUaAtwe/vm8xv7x70aDFRl/4errzrWtTePO/b+fdX36H+RPj+n1tZUMrr30+oOPUftHrdKycPV7IhsQ6zEqKElrf02virc1Hr/q6oRiMtvNkAa0qWuqLCg5Hi3BMTRAThhpEOI4Dl48B7gPNBId4aawUHCMFg5X6cFgs8Nn+LG79zbt8uCN9yI9PzrP1uR+yco51PrCTokN44aEVPP/j5fj0E8VYtzeTstrB3zlezLJZ44TWS6yDaHLgtmOnr1ql4WNwG3QViho+2X1K1bqIIB+hfR0phyMy2FeoAWBRUZHwxHdgwIrlUsGhOnG0tLSUzs4BiZw+iZa9OEYMXoJzEPoir7SWHzy3ht+9+xVNRscre7uUBZPH8PoTt/bZ7KfXZObdbVecoXRVRgX5EBUs35P2hugxx4aDV78xbGnv4nR5ndA+V+Or42c4frpc1drIYLH5W+WCYtyemJWkrlDjPBocpwAM2MilgkN1aazZbOb0adXLGRMudi4pGT64uThpZquts5u/fLibe//04RXzGxyRsVHBvPr4LX3239icltfvdNqBMlMwfC/RFn9vD6FqhMbWDo7mlw3otW9vUVeuOhBqGo0895H6ML6IEG5oaXeoOSqigkOD4xQTsG+gL9YswgGQnZ2tem14oI/VQu0S+0KrYVNZxdXc/YcP+HhXOmaz/XQGLaxsGLK9EiKC+jxvb+vsZvsx9TcAIH4xk2hLbLjYCPq9p4oG/D7ZnJbHvlPFQvv1RWd3L//9z43UCRQIRAlEw0sdKLqh1+uYnmjzCpWTwICzyy+98pcywOSPPnc+eVLtUnQ6GBsZpHq9ZPjQI9iz32yx8Nbmo/zguTXCuQrW4OSZiiHdr78k0s/2ZwnZnZ4YKVR+KNEW0ShwWm7poF7/v//eTGZRldCeF2Ps6Oaxlz8Tsuni7CTUZbSstkn1WntjwujQfvO4BkJZWRmFhYWibgxKsVwqOMwIJI6mpw+8H39fSMExMujqFhMcj/xtPS+vP2C3Mz82p6meEqCK/mYRnSyoECo19zG4MX50qOr1Em0RjXAczx9czkRbZzcP/209u9OFP5Qoq23mR//vk0H7cCmRQb5CIvhsteMIjhnjxI48d+68cuO3ASIkOEBAcGRkDKwnf3/ER0jBMRKoFaiDb+vsHvSd2lBz4kw5WcXVQ7ZfVUPfWfcWCxwR/LeaGKd+5LVEW0Q6Mlc3tqrqP9HW2c3PX9/Asx/sVJWMbbZYWLM7gzt/v5r8MvFEVNGEUXuMiKoldbzYkefWrVtFXTADewezoC/Bofr2rLy8XKhFamJUsOq1kuFDo0AVyXCoobdY4I/v78BkHpoIzNaj/d8jHMoWK3mT70n7IewqE1mvhMidvcWilLDe8ut3+McXh/oVuBfT02vii4M5fPv/3uPPH+wadPvy/hCtZiytcYwIh8HNhYlx4arXWywWvvrqK1E3TgGNg1nQ13hJdcXR58jIyOC6665TtTYuPAC9XmdXCYAS7RHJErdGSa01yCut5fmP9vCLOxdYdZ+G1g4+P9B/qaNoNCgpOkRovUQ7RAaW1TSKd9dsbe/iX1+m8e+NR5g+LpK5yTHERwRd6Ith7OimuKqRY/ll7Mss1mTPSxGdu1XiIIJj6tgIoUGNmZmZVFYKV/UNWrH0JTjUZ36i5HGoFRwebi5EBftxtnpQokkyzDB2qBccnsOokmnN7gxiwvyt1rXRZDbzzDvbrhjqrmtuo6S6SfWd4egwf9xcnOnqESuxlYhhcHPB4KZ+BlFDq3bDCs0WC2k5paTlDP3RZrRAg8h6ByqJTU1SNYHkAtu3b9fCjUEb6UsinUGZq6IKmTgquRrGjsG3Mz6Ph5uLZmW1Q8HzH+/mwx1i74m+MJst/Po/WwdUuphbOrjhWBfjpNeTIN+TNsdDQGyAWFTRnogOUZ/D4SjRDYC5KTFC67dt2ybqQheDTBiFvgWHCchU64Vo4qi8uDk+IhEOGD7HKqCcfz//8W7+8cWAhikOiO5eE795a+uAJ7rmXGVQ19UYFy3zOGyNaGSvvVObHApb4u7qTIif+jyWEgeJnMeE+Qslz3Z1df1/9s47PMoy68P3THrvgQRCSUKAkBB6k16kKIiI2BYLtl2xrN217bq7KLp21/YprigoCFiQ3ntv0gmhJoSSEFJIT2a+PwKKSEne80ym5Lmvi0tJ8pz3hEneOe8pv6NCf2MNBhITl3tUNPxItmvXLsrLjf9wJzTUNzdXR/q05e9jfPbcXnw2ewNPfjzrqnssrkbm6XweeGsGc2swersvw3gjN0CLGN3HYW88heq8Uu0bRyAmIhiTQBbGVTIc3ZObis6vXbuWoiJxic1QiuRSPRwAhtMU5eXl7N69m5QUY3VrXVJxfQqFGQ4/b1l62V4s/+UgOw4e577rOnPDNYl4eVzu1++PFJWWM3nRVr6ct6nG/RT7jsoCjgQ9qaJxAKQTKkddRIOje1IT0XkF47CgOOAQN44aDTgiQ/wJ9PMmv9D4IjiNYyPNcDhT4+jF5BQU88aUZXw+ez3DuyfROyWWFo0iLylmVFJWwZb9x1i4KZXFW9IoMjhamFdYQubpfKLDjG3ZjG8Qhrub2WGF1jR1Az2hUlVOli7wmz9/vtSN01StpK8xV8pwWAFDCSxp42jzhuFs3Fe9JUMa50MccDhRD8flyCko5ou5G/li7kb8vD1JiYvC19sTb093ysorSTuWzZGTucq0PPYezTIccHi6uxEXHca+dFmmRGMc6SI+T/fqZ9McFcmEisVqJd0FZM27JDYWjcNmZmaydetWqRuLqRL9qjGX+ynMBw4DhopF0oCjmQ44XJq6nOG4FIUlZazZdcSm10jNyKJv2zjD55vHROiAw47kFxmf7AII8vNW5In9iBE0Sp48c5aycufvY5GWU+bMmYPVKta5MjxTe6VQyXBZRT6pomvGroy8h8O1Ao7aYO9RPanizOQXlogEEV0i4BCUVNJdoH/DbDLRTRhwzJ49W4UrhmsyVwo4DEcNWVlZHDtmfEmPvrm5NoWlsoDDVwccNWavsHFUT6rYn/wi431tQf7OHXD4eXsSFuhr+LwrlFMSm9QjNMDH8PnS0lIVgl87AcP7Eq4UcIjqIpIsR1xUmFjoRuO4SDUBJIqLdZXsvEKyBZtj4/X0mN3JLzReVgnyde6AQ5LdANdoGO3ZWjYOu3z5cs6eFcvNizpObRZwSPo4zGaT3uHgwhTpHg67kJpufFunr5cHkcHGd3lo5OQJMhwBfs6nXXMhksV1AMey8xV5Yj/6CHqwQFk5Za7k8JUCjkPA1dcCXoZt20STtSQ2qSc6r3FcyipkzVs10a/Q/MYeYR9HQ4GstEZOloH18udx9mBR6v8pwb+dI9CkfghN64eKbCgIOM4CqyQGrhRwWBFkOaSNo0k64HBpJPLmvk4q/GVvpFMmTQRjiRo5khXzYYG+Tp0ZjAj2E523xeba2qRPG1l2IzU1lQMHDkjdWETVDhXDXG2g13DAkZqaKqoX6QyHayPRl3Cm5W2OhHQLs7SOrpEhff2a1HfegLFeiPEMR0WlhZx8ddty7UFvYcChqJwiNnK1O7fhNEVlZSWbNm0yepzosEBCBB25Gsem2KBqJugeDqOkZ+ViEczgO/MblisgleaWKnXakwhBSeV0fqHo597eRAb7k9hY9gD+ww8/SN2wAnOkRq4WcIgkyTZu3Cg5TlKT+qLzGsdFIsIjUdqry5SVV3JSkFp25jcsV+CwMMMR38B5J43qCQIOyc+8I9C7TZxoad2pU6dYvXq11I2tQKbUyNXu3DsAw8X2DRs2GD0K6LKKKyNpHPX21E2jRjl8Isfw2QbhQbqcZUfyC0s4I9g27Mz300hBSSUr1/g4uCPQu02s6PzMmTOxyFckKKnJXO3uUYKgrCINOFo58S+I5soUCcS/vHTAYZh0gR6Bu5vZ8D4WjRokfRytmtS75JJAR8fD3U30kHHaifs3Av28adesgciGgnIK1FLAAbDeqPGjR49y4sQJo8f1pIoLI9k86uHmptCTusXhE8I+AOGKcI2MwyeMBxy+Xh7ER4cp9KZ28BcuazxbLNtDY096p8SKSsj5+fksXrxY6sYpQNYfcY7qfCfGOz+R9XEE+nkTE6FvcK6IRG3UFbbF2osMocRzYz0aa1cOCUpiAElNna8vzt9bJlrmzAHHtR0SROfnzp1Laan4+5+Lwe2wF2PTDAeo6OPQiqOa3+N8SWHHQdp42FhnOOyKVEslOTZKkSe1hzzDIVM2thfB/j50bNFQZENROWWWCiNQvYBjH1Xr6g2xfr0oXqGVnlTRaJRxIqeAckHDbkPBinCNnN2HT4q2xqbE6YDDWejbNk7UpF1aWsrcuSIlcoBiYJ7UyHmq891YEJRVNm/ejFUwA637ODQadVgsVtEiq3ohsp0WGhlFpeWkZZ42fL5RZDBRwr0ktU2Ab90sqfRv30x0fvHixeTni3fILKRK0lwJ1Q2fDNdFcnJySEtLM3qc5o0i9CieC1JRKdunojGOJOAID5JJTGvk7DxkvBEfoGurxoo8qR38faQBh/NlOEIDfemQICunTJs2TYUrP6owch6bBxwgK6t4ebjTTK/GdjlKyioMn/V011MqEtJP5Rk+6+/jiY+X3mVjT3YcPC463yWxkSJPagdPD9nvu2QE3170axsvGmEuLS3lxx/FsUIl8LPUyIVUN+AQjcRIJM4BEhvrxlHNb3jqbbEisvNkGdIIneWwK9sPyjIcHZvHOKUeR11iQAdZOWXBggXk5som0oCVQLbUyIVUN+DIQCBrKm0cdcZRLo3GUZEqL+qyin05euqMSHE0wNdL31MdmIggP9rER4tsTJ06VYUrSkZcLqQmzRGGo4Zt27ZRVmY8raUVRzUadUiVF8MCfRV5ojGC1Qrr9xwV2eia6Fx9HHWJAR2aYRYsTykpKWHmzJlSN6wo7t+AmgUchusiJSUl7Nixw+hxmtYPxVfXjTUaJUgzHBHBOsNhb9YJA44eyU3UOOIEFAk2U9uDwZ1biM7PmTOHgoICqRtbANkP2SWoScAhahyVCICZzSadAtRoFHEqV9jDIdjcqVHDut1HkWxcb9EokujwurEXR6JbUtvERoXSspGsZ9FRyylQs4BjIwJ5U6niqDMK1mg0jkhpeYVoVFCXVOxPdl4haZmyfr5+beMVeePYSKdcahNpdqOoqIjZs5XsWftOhZGLqUnAkQfsN3ohyU4VgJQ4WRONxrEwCWqUClYt13lO5xsvq+imUcdg7S5ZxrtvO+cIOMrKZZo9fl7OsXvJbDIxqFNzkY3Zs2dTWCgrmVJVTjH8Xn8laqqoZbhxdM+ePaK6UlLT+nqUy4Xw8zZ+E3C2mqwjckrQx6F7OByDdXuOiM4nNalPZIjjl8cKS2Q6Gr6Ce01t0qZZtFgF9ptvvlHhik2yG1DzgMNwXcRisYiyHP4+nk65WlmjcUSyBH0cEUGO/yZVF9iSeoyCIuOy3SaTc5RVioUPGM4ycDCkk6yckpOTw5w5c6RuWHGggENUF1m7dq3kuC6ruBA+XsbFu6RPPBrIPVti+Ky/jyfubnrdgL2pqLSwYvtBkQ1nKKtIf9/9hMvfagNPDzf6CV+L7777TiQ/cY6NwCGpkctR07vGNsDwd7R69WqjRwForRtHXQbJfhxJd76mipIy2VOjljd3DBZvOSA63yYumugwx55WEQccTlBS6dk6VrykbtKkSSpcUTLicjlqetcvA7YavdjatWtFDX96UsV1kOxDkb5ZauR9MM5wE68LrNtzhCLBG7LJBIM7yxoVbU1BkesHHEOEr8HBgwdZs2aN1A0roGTj2+Uw8phpOE2Rm5vLrl27jB4nOiyQSK0B4BJI9qFUVOopFSmFwg2azlIXd3XKyitZtfOwyMb1XVsiGBqzOWfOurYybmiAD91aNRHZmDRpElZ56nctkC41ciVqNeAAxFGYLqu4BpKJIx1wyCkWZom8dcDhMCzanCY6HxMRTHKs495Xy8orRWWVkAAfhd6o57ouLcU9UYrKKTZrFj2Pke9SFDGsWrVKclyXVVwEyROyZLW9pgpp57+Ppw44HIW1u4+IX8/ru7RU5I1tkOz/cfQMx7BrEkXn169fz/79YtmMSmzcvwHGAo4TgOGQWprhaNesgei8xvmxortGpUgzHJIpI41aikvLWbpN1jzav30zh1bklGzHDfZ33AxH69gomtYPFdlQlN1YSNV7u00xmscxHDUcPHiQEyeMf1/NGoTj7wRjTporI2nkkvYfaKCoRBZw+PvIOuo1apm1bo/ofKCvF/3bNVPkjXpcNcMxrJssu1FWVqZqd4qSqOVq1HrAAbKyitlsok281uNwdrTSqH2RTDaALqk4Gpv2ZnDyjGxD6IgeSYq8UU+OIOAI9vcRrXu3FT5eHlzbQRbkzZ49m6ysLKkrZ7HBKvpLYTTgEDVi6LJK3cbX21PUNHq22Li6oqaK4lJZH4wuqTgWFquVOev3iWy0iY8mzkHVnCUbjt3dzIQ6YJajf7t4sez6hAkTVLjyAyBewFIdjAYce4AzRi8qFQBrqwMOpyZIKHAjUcnUVFFeKVuIJRlr1tiGOev2im3c1DNZgSfqkQQcgEPujLnhmlai85mZmcyfP1+FK7VSTgHjAYcFWGf0olu2bBFttGvZKFIrHToxAX7eovM6w6HR/JFDJ3LYffikyMaQzi0c8t566ows4KjvYAFHo3rB4lUdX331FRUV4om9TGCx1Eh1kQz/Gi6rVFRUiLIc7m5mkmPrGz6vsS+BwgxHvmBhlUbjykibR/19PLm2Q4Iib9RxQtif4mgZjmFdE0Via1arlS+++EKFK99SNRJbK0gCDlFdZMWKFZLjtG/WUHReYz8ChBMOkg2ZGo0rM3fDPrFOzajerRV5ow5phiMyWLb2XSUe7m4ME5ZTVq1apUJ7A2qxnAKygGM9YPjOLw042jbTkyrOinRJUUGR7uGQIu3al065aGxDQVEpCzalimw0j4mgfYJjPdCVlFWQX2j8976eA2U4+rSJI1SofqqoWXQHVQtZaw1JwFECbDB6eMOGDZSUGP8BSmpS36GFajSXRxpw6JKKHF9vWZ3eolf2OiwzVuwQ23DELMeJHONllfqhjpPhGClszC0oKGD69OkqXPmfCiM1QSbgDobTFKWlpaxbZ7jvFE8PN5Ka6D4OZyTQV9Y0qksqGs3l2XX4JHuPnhLZ6N0m1qHepEHWx1E/1DEyHE3rh4qnLKdMmSIaujhHGbVcTgE7BhwAK1euFF28XYIej3VG5CUVHXBoNFfi+5U7RefdzGZu6ZOiyBs1SDIcEUH+uJmlb3dyRvRMEm/m/fzzz1W4MhMQK4bVFOkrsBow3KG0fPly0cU7NnesOqOmekimVM4Wl+l0vkZzFeZt2Cfusxl+TSvRkkXVnMgx3jhqNpuIDPZT6E3N8fJwFy/J27ZtGxs2GO5kuJBaL6eAPOAoBDYbPbx27VrKy43LVCfHRuGlBYicjtAA46p/ksYxzW+YhU97FZUWRZ5obEFRaTk/r5WNyAb4ejFUuOtDJZIMB0A9O5eIBnZMEGd3P/nkExWuHAOUKIbVFBU5JsNllaKiIjZt2mT4wp7ubqTE63X1zkZ4kCDg0BMqShBroRTqspajM2XJL+Js4O392jhEKQLkWhz27klR0Sw6efJkFa5MpBa1Ny5ExU+SqC4iLat0cLDxLc3VCQ8yntrMEayp1vyGvHFXB36OTnpWLut2HxXZaBAeRP/28Yo8kiHNcNgz4GjZKJLEJvVENiZNmsTZszI9EsAKKFEMM4KKgGM1VVLnhpDqcXRsESM6r6ldPD3cCBRIm2fn1cqOIZcn0E+PJtcFvl0sl1m469r24kZHFWTnFYpKefVD7BdwqNhRo6icsgI4oMKQEVQEHLnAL0YPr1ixQtTHkdg4UrTqXFO7RATJxtOycnXAoQJpSSVP99I4Bev2HOHg8RyRjYSYCLq0bKzII+NYLFayBA8c9spwBPv7MLhzc5GNNWvWsH37dhXuKFEMM4qq4pzh+dbCwkLWr19v+MJuZrNeV+9ERAg7xXWGQw3B/jKlQ9286xxYrWqyHHcPaq/AGznOKP41okeSeLhBUXYjF1CiGGYUVQHHEsnhpUuXii7eQY/HOg0Rgv4N0AGHKiTd8uUVlRSVGs9KamqXOev3kntW1vvUPqEhSU3tL7QoCTjsIW/uZjYzokeSyEZ2djbTpk1T4c5EwK5NcKoCjuUIul4XL5Ztx9V9HM5DVFig6PypXHHTlAZZ06gWXnMuSssr+G6ZPB1/z6AOCryRIQk4Any9ar383rdtnDizMnHiRNEakHNYgU+lRqSoCjhyga1GD69bt47iYuOBV3yDMHGKWFM7RAsDDkkNV/MbksZd3TDqfHy3bLs4K9WzdSzNYyIUeWSMLOEDR2Rw7WY5bu3bRnTeYrGobBaVCbMoQOWAteGySmlpKatXG992bzaZaK9lzp0CScBRXlFJtm4aVUKYYFvl6Xz9GjgbuWeLmbl6t8iGyQQPXN9ZkUfGkJZUpT1kNaF5TAQpcTKdqJ9//pm0tDQV7iiJWqQ4RMAB8j6Ozi0bic5raoeocOPpxRNnCrSsuSIaRAQZPpuRlafQE01tMWnRFiotMoXYnq1jadEoUpFHNUc6pSbRAKopt/eTZTcAPv74YwWecAr4XoUhKSoDjlVUbaAzxJIloniFLjrgcAokGY7M7HyFntRdIoL8RF3zx/Tr4JScyClg3oZ9IhsmE9x/XSdFHtWc0/lFovNhgcZVjmtCaIAP13ZIENnYvXs3CxYsUOHOFwjem1WiMuAoBAxvldm4cSP5+cZvZNHhgcREBBs+r7E9YYG+oje6zNP6jU4FUeGyPhr9OjgvExdsQZoktGeWw1lKKjf2SMLD3U1k47333sMqz+hagP+TGlGFapF8w2mKyspKsepol0Sd5XBkpN3ax0/LpI01VTQMN15OATimSypOy8HM06zYflBkw55ZjrKKSpHoXG2UVDzc3bi5V2uRjdzcXL755hsV7swHDqkwpALVAYdovlVcVtEBh0NTTygtrJ+s1RAtzHAc06+DU/PZ7A1OneXIKTBeVpFsqq4u13dpKQ5sPv/8cxV7U8BBmkXPozrgWI9AWGTRokWii3do3hB3N8fYbKj5I/VDZSNpJ4XLmzRVNIo0XnosLi0nV5AGwQAAIABJREFUR1hH19iXvUdPKclyPHC9fbIceWeNZzgk4+DVwWSC24TNopWVlXzwwQcq3DkKzFJhSBWq351LqWoeNcSOHTvIzMw0fHE/b0+HUMPTXBrpDPzJM1r0SwUJDY1rKeiGUdfg/2atF2c5eiTbJ8uRL9hUHGzjgKNHciyxUaEiG7NmzeLoUdmW33N8gGCxqi2wRTpAVFaRZjm6Jtp/yZDm0oQKOsQtVqtWGVWAl4c7TaNCDJ8/eipXoTcae7EvPctpsxz5hcaF5ySS/tXhjv7yUdh3331XgSecBT5XYUgltgg4RBHD/PnzRRfv1FLLnDsqQYKni5z8ItFqak0VcQ3CcDMb/7U/fEK2eVTjODhrlkOidOvj5SGeHrkcSU3r0z5Bttdr69atLFu2TIU7k6lSAHcobBFwbAWyjB5etGiRaBSoVeN6Nq/TaYwh2WOQU2DXnUMuQwuhNPWBzNOKPNHYG1VZjj8P7aLIo+pRICipgO2yHHf0byu28cYbbyjwBCvwvgpDqrFFwGFBkOU4deoU27YZX6dsNpvoqLfHOiT+PsZ/0QtLHEK3xulp2Vj2NLov3fCzhMYB+VRBlqN7chPaxEercagaSHf5BNog4GgYEUTftnEiG0ePHmX6dCXb4xcAMh17G2GrkY6FksNSdTU9HuuY+PkYz3CcLdYLw1TQUpD+Liot5+hJh8vSagSkKshyADxy4zUKvKkexcIldJ4C8cHLcVvfNqJSJcDbb79NRUWFCnc+UmHEFtgq4BBFDNKAQzeOOib+gpJKYbHOcEgJ8PUSTajsz8jWu2xcEBVZjpS4KHq2jlXj0FUoq6gUnff18lDkSRXB/j4M7ZYospGbm8uECRNUuJOGg43CXoitAo5jwC6jh1evXk1RkfFZ//qhAcQ3CDN8XmMbTCaTvV2o07Rr1gCz2fhrsPfoKYXeaBwFVVmOscO7Yq6F33GLxbGC3lG9W4uDmE8++USV0Nf7ONgo7IXYUiXLcJqitLSU5cuXiy7ePbmp6LxG42p0bC6b4NL9G66LiixHXHQY13VpocahK1BUKst2+gtKuxfj6+3JrX1lo7BlZWW8/76SHs+zwNcqDNkKWwYcdu3j6J7URHReo3E1OgibqXWGw3VJTc9i6bYDYjsPDO2Cp43GTh2RkT2TxU2okydP5vjx4yrc+RQHHIW9EFsGHMuoUh41xMKFoniF5Nj6SiNZjcaZCQ3wIS7aeJmxuLScA5lag8OV+einNVRaZNn4qNAARgoXl12Ns8J+Lh9PNT0cXh7u4lFYq9XKm2++qcKdChx0FPZCbBlwFCOQOd+1a5dI3tXNbKaLbh51KCSpUG9P9Z3ldYkOzWOQlNe3pmWK34w0js3hE2eYtXaP2M6YwR1Emju2xk3Rvq0brkkkTKCeDDB37lx271YywTqFqt0pDo2tN52J0hSzZ88WXVyXVRyLohLj42y+DnwDcwa6tZIF35v2ZSjyROPIfDprPaXlstHMYH8fRg9op8ijP+LpISvZlJbJR0893N2489r2Yjuvvvqq2MY53lZlyJbYOuAQ6ZRLA45uSU1qpWtaUz0k4l2Skdq6jrubmZ6tZU3Um/alK/JG48icOnOWqUu3i+3c0b+taHfSlZD2iJRXysZqAQZ3ak790ACRjeXLl7N69WqxL1Q92G9VYcjW2Drg+AUwvP51yZIllJYaF3wKDfAhsUk9w+c1apEEHDrDYZx2zRqI5P4LikrZqydU6gxfzt8kVvP08fLg/utss9jNw00YcFTISoNmk4m7B3YQ2QAYN26c2MY53lJlyNbYOuCwIiirFBcXi8djpalkjTpO5xvXVpHWSusyvdvIBJm2ph1zOO0Dje3ILyzhqwWbxXZG9EiicT3jm4kvh5ewn0taMrq2YwKN6gWLbGzcuFE8GHGOXxAKbdYmtg44AER1EXFZRQccDkNWbqHhswG+XvgoVgisC5hM0DtFtuNhw15dTqlrTFmyjaw847+vUNW4/9hN6iXPpRLilYKt02azSUnmRmF2422qHuydgtoIOBYDhotm0oAjsUk9QgN8RDY0ajiVWyA6HxHsp8iTukNi43pEhviLbKzcfliNMxqnoaSsgs9mrRfb6dk6lnYJDRR49Bs+XrIMR3GZ8eb1QR2bi7M2O3bsYObMmSIb58igajrFaaiNgCMHWGv08IEDB9i7d6/hi5tNJq066iCcOiOT7pU2adVFBneSKT+mZmRzLDtPkTcaZ+Kn1bs5ekquI/XXEd1FI9kXE+Ive4AsLjVWUnEzm7lviDy7MX78eKxqdhK9CzjVkqnaCDhAWFaZO3eu6OLSDn2NGtJPyd64Gkeqrwe7Mu5uZgZ2TBDZWKZAfVLjnFRaLHz44xqxncQm9RjYsbkCj6oICZD1c2UbLBUN6dxc3LuRlpbGd999J7JxjhyqlEWdCqcIOObNmye6eNdWjfGywUpiTc04cuqMaNuoRCmzLtKtVRNChOVEHXDUbZZsTWPX4ZNiO2OHdxPrZ5wnPMh4wFFYUmaoadTNbOY+Bb0b48ePV7WC/n2qdqc4FbUVcOxAMB67fPly0SY9Lw93uiQ2Mnxeo4ay8kqOn843fL5VUz3iXBOu7yorpxzLziM1I1uRNxpnxGqFd6evFNuJCg3g1j4pCjyC8EDjvVyn84xNyl3ftSUNwoMMXxcgPT2dr79WslutACeQMb8UtRVwAMwxerC0tJRFixaJLt4rRTYaqFHDwePG93EkNAzXEufVJNDPmx7C3qVl2+QryzXOz9a0TCWZrnsGdSRIoAdznpBA41m77Pyal1Pc3czcO7ij4Wue54033qCsTEnLxUfAGRWGapvaDDhEZZWff/5ZdPHuyU216qgDcEgQcLiZzSQ21lmO6jCkc3M8hIqMczfsU+SNxtl5/4fVVAjGSaFqtF1FWSIiyPjU1ZmC4hqfGdo1kejwQMPXBMjMzGTChAkiG+coBt5RYcge1GbAsQjB9thZs2ZhESyPCg3woXVclOHzGjVIMhyAfg2rgckEN/VMFtk4mHlar6PX/MrRk7l8v3KH2M7Insk0jDBemgjy8xZlOWuqBeTp7saYIfLsxvjx4ykurnmwcwm+AORNNXaiNgOOs4Bh2dBTp06xZo2sY1qXVezPgWOnRec7t9S9OFejfUJDmtYPFdmYtc74KLrGNfls9gbRegKoWnr28PBuhs/HNZA1jh8+WbMHnpt6JhMlHMc/duwYn332mcjGOcqAN1QYshe1GXAAiMZNfvrpJ9HFe7XWAYe9Sc3IpkSwrTElLgpfrTh6RUYKsxsWi5W563XAofk9ZwqK+XLeJrGdfu2akdy0vqGzcVGygKMmDzx+3p6MUdC78dprr1FSUiK2A0zCCVbQX4naDjhEghpSdbZG9YJpUl9rOdiTSouF3UeMZwQ93d2UKxe6EuFBfvRuI5MyX7/3qFjWWuOaTF68lRM5MsVgkwn+OrKHobPS0fgDNSjp/mlAO/FYeXp6Op9//rnIxjkqgfEqDNmT2g449gKG251TU1NFqqOA+GaskbPz0AnReen0hSszsmcy7m6yX+vZupyiuQxl5ZV89JNh4ehfSYmLoo+Be3G8oKSSnVdIfmH1Mg2hAT7c0a+N4WudZ9y4caKN5xfwHbBfhSF7UtsBBwinVX788UfRxXUfh/3ZlnZcdL5PmzjMZj1xdDFeHu6M7CUrp5wpKGbxljRFHmlckXkb9ilpKH74xm41WsTm7mamRaNIw9c7kFn9cso9gzvi6+1p+FoAhw8f5n//+5/IxjkswL9UGLI39gg4RHURaR9Hqyb1iAyWLbPSyNi0L100Yhca6EuHhIYKPXINhnRuQbBwz8RPq3dRXmF416KmDmCxWnn/+9ViO43rhTCiR1K1v75Fo0jRhMqBzOqVU6LDA8VTXgCvvvqqKt2N74A9KgzZG3sEHCsAwxuBNmzYwIkTxlPyZpOJvu10WcWeFJWWs/2ALMvRv30zRd64BiYT3CZMAVusVr5fuVORRxpXZsPedFbvPCy2c8/gDtWWPG8bHy26VnUzHH8e2gVPoYbNoUOH+PLLL0U2zmEB/q3CkCNgj4CjHIHqqMViYdasWSIH+rXTb1b2Zs3uI6Lz/dvF6/04F9ClZWNio2SjsGt2HiFTID2vqVu89/1qLBbZ1tPIYH+GX9OqWl/bqWWM6Fppx64u0x8XHcagTvJFc+PGjaO8vFxsB5gG7FJhyBGwR8ABIGrEkPZxpMRFER5kXI9fI2fl9kOi84F+3vRtqzNV57m9v7zBbfqK7Qo80dQVDmaeZtY6eab/7oEdrqqK6+XhTrtmxqfTKi2WaokOjh3eTaxIvX//fiZOnCiycQ4L8IoKQ46CvQKO+QhURxcvXixa5mY2mejbNt7weY2cA5mnxaqjIxTUWV2B2KhQurRsLLKRnpXLmp2yrJOm7vHxT2tFujoAkSH+3HBN4hW/pkPzhqKM5r70bIpLr5xxaNesAT1byyfgXnjhBVUbYafgIr0b57FXwJEPLDN6uKSkhNmzRcMu9NN9HHZn0WbZlFebuGhxGcEVuK1fG6RrgiYt3IrFKkuPa+oeWXmFTFq4RWznroEdrjix0j25icj+trQrLyuXaINcyKZNm5g+fbrYDlW6G/9UYciRsFfAASAaN5k2bZro4m3jGxAa6CuyoZGxcJMs4FDRKOnsBPv7MKSzbA197tliZq11qQcpTS3y1cIt5OQbW/t+nqjQgMuWSM1mE/2EGeltaceu+PnBnVqQ2Nj4yO15nn/+eaxqAvdvAZfbnmjvgMPwKzN37lyKioz/kJvNJkPCMxp1HDqRw67Dsj1E13VuWaf7cW7qmSRunp2xYiel5UpSwJo6SFFJGV8ryHLc3r/tJT/erpns4dBisbJxX8ZlP+/t6c7Y4V0N2z/PkiVLWLhwodgOUIGL6G5cjD0DjkzAsDB/UVERc+eKlNLp1073cdgb6Rimp4cbt/RJUeSNc+Hh7sbNvVqLbJRXVDJtuW4W1ciYvmKHodXvF5LctP4ld6xc2yFBZHf7weMUFF2+ZfCO/m2pFyJb0Ga1WnnuuedENi5gEpCqypgjYc+AA4QiYNKySoeEhmKtfI2MhZtSKRJuoLy1T0qdLI9d2yFBnN1ZsCmVbL03RSOkuLScSYvkWY7R17b/3d+9Pd3FAceaXZdvhg4L9OWui65phBkzZrBx40axHVw4uwH2DzhEfRyzZ8+muNh4VK3LKvanqLSc2cLNpD5eHtx/XSdFHjkPtyvoX/lm8TYFnmg0MG3ZdnLPyrIcfdrE0axB+K9/79s2Hn8fmcT48l8OXvZzfx7WRSxhXlFRwUsvvSSycQETgcs77OTYO+DYARhe3HD27FlxWaW/FgGzO98s2iaekLipRzIJMRGKPHJ82sRH01z4/W5OzWBfepYijzR1naLScr5dIgtgTSa474KHhxtrIH1+KQ6dyLmswmh8gzBu6FY90bErMXHiRPFS0XOUA+NUGHJU7B1wAHwvOSwdQerQvCFhdTAd70ikZ+WydKvhJcJAVbbq6Vt6icdDnQVp7wbo7IZGPSoakPu0jSO+QRjNYyLEcuZXmoR7fGQP8RLI4uJi/v73v4tsXMDngEwR0cFxhIBDFDHMmjWLkpLqrRy+FGazSVwj1MhRMcvfNj6aIZ1bKvDGsQn29xGrrKZn5YrVXjWai8k9W8wcYYnUbDIxdng3JSXDywUc3ZIa07llI7H9d955h2PHrjxyW00KceHejfM4QsCxCThs9HBBQQELFiwQOaBCO18jY8ehE6zbfVRs58mbe7h8xuq6Li2uKgV9NaYs+UULfWlswreLtyH90eqR3JSBHWX35V8OHOfQiT+qGbu7mXliZE+RbYCTJ0/y+uuvi+2c411AttHSCXCEgMMKzJAYkJZVWjWpR0xEsMiGRs6nP68T2wj08+Zvt/dR4I1jYjJRo5Xel6KgqJSf1+xW5JFG83sOHs9RsknW3U329vTT6kvvPLu1bxua1A8R2QZ4+eWXyc9XsuwwB/iPCkOOjiMEHFC1Ec8wM2fOpLTU8GoWAAZ10mUVe7Pj0AlW7TgsttO7TZxYfdNRaRMXTeN6spvlrHV7KLrKXgmNRsL/zV5v1+sXlZRdcnVCZLA/DyiYaNu1axcTJkwQ2znHeCBPlTFHxlECjg2A4Xx6Xl4ec+YY3ngP6LKKo/DRT2uUpPqfubU3DSOCFHjkWAztduUlV1fDYrXy3VIt9KWxLbsPn1Ty8GCUH1btumRQ/eiIa8RjsABPPfUUlZWVYjtAOvCBCkPOgKMEHOKyyjfffCNyoHG9EFo2kmvpa2SkZmSLl7oB+Pt4Mv7+wXgKex0cCW9Pd7E67sa96aRn5SrySKO5PJ/ZKctRabFccjy3bXy0uC8EYP78+cybN09s5xyvAManHpwMRwk4QFhW+fnnn8nNld1IdZbDMfhk5joqKi1iOy0aRSrZAOko9EqJxU/4dDZjhUxKXqOpLrsOn2TJVsMyS4ZZsvUAJ3IKfvcxVWPzlZWVPPXUUzIjv7GXKqGvOoMjBRzrAcPzRaWlpcyYIUqScG3HBMx1RcjBgTl6KlfJmCzAqN6tGSYsQzgK13WRjfzm5BexcocehdXUHh98v0bJw0NN+HrB5j98bESPJCXCgBMmTGDnTmVB+4tUSZnXGRwp4LBg57JKRJAf7RMaiGxo1PDF3I2cyj2rxNbfbu9D+4SGSmzZi/AgP7oIdQN+XruH8goldWeNplqkZ+Xy3bLa6xlas/MIu4+c+t3Hgvy8+csw+TbY/Px8Xn75ZbGdc6xHKHrpjDhSwAFCEbBly5aRmZkpckCXVRyDotJy3puxSoktD3c3xt8/2KlHnwd3ai5WRfx5rR6F1dQ+E+ZsuOK2VpVcqm/kL8O6EuTnLbb92muvcfLkSbGdczxFVe9incLRAo7VVK2tN4TFYmHKlCkiB/q1a4aXh7vIhkYN8zemskKRGmZIgA/vPzqMyGB/JfZqm+u7ysopOw+d4PCJM4q80WiqT15hCZ/P2WDz66zZeYQdh0787mMtGkWKdWsA9u/fzzvvvCO2c44ZgJqnKSfD0QIOCyCKGKRlFX8fT/EkgEYdr01eQr6ip6OYiGDef+QGAhU87dQmzWMiiIsOE9mYvU7JcimNxhBTl/7CwcssUVPFp7N+LxxoNpt4/o6+4swgwOOPPy7WejpHKfCsCkPOiKMFHACiiGHz5s3s27dP5IBU60Cjjqy8Qt6culyZvfgGYXzy1xsJDfBRZtPWSJtFyysqmb8pVZE3Gk3Nqai0MP7bZWLJ88uxdNsBdh3+fbnj5l6tSWwslzqYPXs2s2fPFts5x4eAbFOlE+OIAcdmQBQxSLMc7RMaEB0eKLKhUcec9XtZoPANMyEmgk+fvIn6oQHKbNoKN7NZ3Fe0csdh8gvrzKi/xkHZsv8Ys9ftUW63vKKSD75f/buPRQb789AN8kbR0tJSHn/8cbGdc5ymDixouxKOGHCAMMshDTjMJhNDu+oshyPx70lLOHpSnWBV0/qhTHzuFiVPQLakW6vG4myMLW7yGo0R3p62Qtn02Xm+W7ado6d+f294clRPsWYNVG2D3b9fLkR4jn8BdVp1z1EDjskIOnjT0tJYs2aNyIHrurTQmhwORFFJGc99PpeycnVjnWGBvnz6xE30biNb9W5LBnaU7fjJPVvMml1HFHmj0cjILyrlX18tVlZasVqtzNvw+4R49+QmSvrwjh07xrhx48R2zpEKfKTKmLPiqLrPZ4CBQIxRA25ubgwdOtSwAwG+Xmw7cJxj2XVip45TcDq/iOM5BfRpqy5A8HB3Y0D7BNzMJrakHbNZjdkI3p7uvDi6v2gV/cw1u1mpaNJHo1FBRlYeYYG+JDapJ7ZlMploExfF7HV7Ka+04OPlwbtjhxHg6yW2/Ze//IXNm/8oImaQe4E6P5fuqBkOEJZVpkyZQmFhociBocJRRI165qzfy5fzNim1aTLBfdd14r+PDCfEgZpJuyc3xdfLQ2Rj1lpdTtE4Hu9/v4qMLDUPc7HRYfz9rgGYTHD/dZ2IDpP3361cuZJvv/1WgXcALAN+UmXMmXHUDAfAYeBxDAZFZWVlNG/enJSUFMMOxEQGM335dkoVpvE1cjbuS6dFowjxmvaLaRARxODOLTh0PId0RTdDCX8e1pWmUaGGzx88nsNHP61V6JFGo4bySgt7jp5iaNdETApK17FRoQT6enFLnzbiMdiKigqGDx+uSuSrErgJOHG1L1SMGWgMdASuBfoBg4Hrzvkz9II/g4HOQEPABORQJVGhHEdvUpgLDDJ6uFevXixbtkzkwPhvlzJ9+Q6RDY16vD3d+fCxG0mJi1Ju22qFH1bt5J3pKym+xIrr2sDP25OF/7kfTw/jzwQf/LCaifOVpYQ1GuU8OLQL91/XSYktK2re0N59912VkykfAw+pMnYJTEAs0AZoAbQ6998WgNF0bRmwE9gGrKVKgj1H7CmOH3CMBr4yethkMrF//37i4ozX/HcfPsmd46caPq+xHf4+nvzfkyNJaBhuE/vHsvP4z9TlrNpx2Cb2r8TAjgmMu9dwrI3VCtc//z9Onim4+hdrNHbCbDbxwSM30Fm4J0gVGRkZJCYmUlCg5PfmNND83H9V4E9VQNEGSDn3p/W5j9uSUmAm8H/AEgTZD0fu4QD4ESgyethqtfLll1+KHEhsUo/4BjKVR41tOFtcxtj3flA6LnshDcKDeHfsMN76y/W1rtnRRzg588uBTB1saBwei8XKi1/MVz4qa5THHntMVbAB8BLGgg1/qoKJG4EXgO+o0qbKA9YBnwB/Abph+2ADwAu4GVgIHAKewWD2xNEzHABfA38yerhhw4YcOXIEs9l4bDVjxQ5e+2ap4fMa2xIR5MenT9xEo3q2W85WWl7Bt4u3MXHBZpsvonJ3M7PozQfw9zGuI/DGlOV8t+wXhV5pNLYjJS6KT5+4CXc3+z0D//zzzwwbNkyVuW1AB6p6OC7EEwi/4E8MEEdVWeT8fx1bHKiKA8BYYH5NDjlDwNEXWCwxMG/ePAYOHGj4fFFpOYOfnUBhSZnEDY0NiQz256O/3kiT+mobSS+msKSM71fu5NvF22z2VNYlsRH/fXS44fMWi5XBz03gdL7h5KBGU+vc3q8tT9zcwy7XPnv2LElJSRw5okyzZg+wgaqgIgyIoCqQcHx545oxBXgCOF6dL3bkKZXzHAHuAgw/vpaXlzNy5EjDDni4u5GVe/YPWv0ax6GwpIxFW9LomtiY0EBfm13H092NlLgoRvVuTdP6oRQUlXI8J1/pNW7t04akpvUNn9+4L0M3Omucjp2HT9A0KlS8qNAIL774InPmzFFpMoKqXosEqqY/QqkqTbgaSVRpjGwH0q72xc4QcFiBIKCPUQNpaWk89NBD+PgY11iICgtk2vLths9rbE9xaTkLN++nc8sYwoP8bHotN7OZ+AbhXN+1JUM6t8Df14vs/ELyFOwsefa23gT6Gt9o+/XCLew+ckrsh0ZT26zeeZierWNt+tBwMb/88gtjxozBYrHJJGhdwBsYRVWZ5YpPOs4QcEBVluNRDJaAKisradCgAZ07dzbsQEiAD5tTj3H8tNqnWY1aSssrmLcxlcTG9WgYEVQr1wz086ZD84bc0ieFfu3iCQv0o6SsnNP5RTVWLq0fGsCfh3Yx7IvVCq9OWkKRncZ5NRoJFZUW1u05ypAuLfHycLf59SwWCyNGjODo0aM2v5aL4waM4LfG1st+kTOQC/SgqqHGEEeOHOGhhx4Sicx4e7qzeMtVs0YaO1NRWUnXVk3sMl0UGuBL+4QG3Ng9idv6tqV1XBRhgX64uZnJLyyhvPLKT1E9W8eKpNv3pZ9i0qKths9rNPYmv6iU/RnZDOzYXIko2JX49NNP+fTTT216jTqEiSrdLCuw/HJf4CzcTtVSN8MsXryYvn37Gj5fXlHJ0Be+JDtPJpmusS1PjurJbX3b2NuNP2CxWjmRU8Dx0/kcP11ATkERBUWlnC0uo6C4lIpKCy/c0Ve0B+LTn9fx2ewNCr3WaOyDSlGwS3H8+HESExPJza3TC1xtxc3A9Is/aPuclTp+oCrTYbh59KOPPhIFHB7ubgzv3orP9Q3dYblnUAeHDDYAzCYT0WGBSnY9XI6VdhAp02hswWez15MSF0WnFoZ3eF6RsWPH6mDDdnwObAEOXvhBRxf+upBiQLRN56effuLYsWMiJ0Z0T8JNoOmhsR0jeyUzdng3e7thN7LzCtmXrptFNa6BxWLlpS/m22S8e+rUqfzwww/K7Wp+JQiYxkWTOc7Sw3GeLOB+o4ctFgsBAQH07t3bsAN+Pp6kpmdx+MQZwzY06hnQvhkvj+5v85qvI7Nq5+Ffe4yC/X1oXC+EyGB/QgN9KS2voKxCLyHUOBce7m7ERASREBOhzGZ2djZDhw4VbxPXXJUoqqoov+poOePdeTuQbPRwVFQUR48exd3deDVpc2oGD779veHzGrV0bN6Q9x+5AQ93Z4uf1bI1LRM3k4km5zZnXszp/CIOZJ4mNT2L3UdOsXb3EZurpmo0NcXXy4P+7ZsxqFNz2ic0UJ5Rvu2225gyZYpSm5rLUkyVgupxcM6A41HgPYmB7777jptvvlnkxJ9encLeozp9bW+Smtbn47/eiI+Xh71dcTrKKyrZuC+D2ev2sHTrAZ0B0diV+qEB3DWwPUM6t8DP27is/5XIzc2le/fu7Nq1yyb2HQUfHx9atGhBixYtaNmyJY0aNSIyMhIfHx8CAgIICAiguLiYzMxM9u3bx549e/jll1/YsmUL5eXKR+rfBR4H5ww4goF0BEtr+vTpw5IlS0ROLNy8n799NldkQyMjNiqUT5+4iZAA44JumiryCkuYsWIHkxdtVSJeptFUl/AgP8YM7siN3VvVSpayrKyMV199lbffflvloja7YDKZiI2NJSUlhZSUFFq3bk1SUhJm/F1VAAAgAElEQVSxsbGG9odlZ2fzySef8Pbbb3PmjLK2gWKqJC1OOGPAAVVrcg33cphMJnbu3EliYqJhByotFm54cSIncpz7B9ZZiQzx58tnRhEZom5ZYmVlJW5udbssU1RSxrdLfmHi/E1aPExjUwJ8vbjr2vbc2rcN3p61PzB55swZpk6dytSpU1mxYoXDK436+vqSnJxM69atadOmDSkpKSQnJxMYqH7qLTc3l9dff5233npLVcbjLeApZw042gAidaNHHnmE999/X+TElCW/8OZ3l9Q30diQkAAfJjx1s9LtsGVlZYwcOZK8vDzGjRtH9+7dldl2Rk7lnuXVyUtYpcdsNTagbXw0/xozkPqhjrHL7NixY8yYMYOlS5eyevVqsrKy7OKHh4cHjRo1Ii4ujtjY2F//26pVK+Lj42v9gWjGjBncfvvtlJWJF5dmAg2cNeAAWA0YnoH09/cnPT2d4GDjb1pFpeVc97cvdONdLeLt6c4nj48QLTe7GKvVyujRo5k8+TdduQEDBvDSSy/Ro4d9tlc6Cj+t3sXr3y7T/R0aJZhMMGZwRx68vgtms+O+/ezdu5d169axb98+0tLSOHjwIBkZGeTn51NSUvOSo8lkIjw8nLCwMMLDw3/9U69ePRo1avRrcBETEyMaaLAFM2bM4LbbblOR6WjtuK/41fkT8LXEwH/+8x+eeuopkRP//XENX87bJLKhqR5ms4k3/3wdPVsbVri/JA899BAff/zxJT/XqVMnnn32WYYPH26oJuoKbEvL5MmPZ+neDo0Ikwmeu60PN/U0PGToEJSXl5Ofn09eXh55eXkUFBTg5eX1u0AhICDg178HBAQQFhbm1PePN998k6efflpq5m/OHHB4AseAcKMGoqOjOXToEJ6exjuis/MKGfrCl5TrJ0CbYjLBP+8ZyOBOzZXafeWVV/jHP/5x1a+LjY3l7rvv5t577yU6OlqpD87AgczT/Pmd7zlTUGxvVzROiMkEL/6pHzdc08rermgMUFpaSnx8PBkZGRIzS525Q64SCAUMF9sLCgpo1qwZKSkphp3w9fYkIyuP1IxswzY0V+fh4d24uVdrpTY//vjjakftZ86cYenSpbz33nusX78eq9VKo0aN8PY2vkbemQgN8OWapCYs3pJGSVmFvd3ROBnP3daHET2S7O2GxiDu7u74+fkxa9YsiRmn7uEAaAIcQCDR3rp1a7Zt2yZSqDx4PIdb/jmpxqvINdVjZK9knrutj1KbkydP5q677qKy0nhmytPTk969ezN8+HD69OlDixYtFHromOxLz+LBt2dwtljcRKapI4wZ3JGHbuhqbzc0QoqKiggODhb1cjh7wAHwM3C9xMC8efMYOHCgyIm/fjhTd/TbgJ6tY3nzz9cpbTCbP38+w4YNU9F5/Tuio6Pp06cPnTt3pl27dqSkpODvr25s11HYfuA4D77zvS4jaq5Kp5Yx/PfR4Zjr8MoBVyI5OZmdO3caPu8KPwWDAJEC17XXXsv8+fNFTuw+coq7xk/RWQ6FJDWtzyePj1A6o79+/Xr69u1LUZH6hVAXYzabiYuLo1WrVjRv3pyEhASaNGlCkyZNiImJwcPDedVRpy/fwfhvl9rbDY0D4+vlwfRXRhMZ7HpBd11l1KhRTJs2zfB5x5q/McZ8YDdgWMVrwYIFbN26lbZt2xp2IrFxJNckNdFZDkXERATzzkNDlQYbO3bsYMiQIbUSbEDVssD9+/ezf//+P3zOZDIRHBxMSEgIwcHBPPzww9xzzz214pcKRvZKZuO+9F+XxWk0F3PfdZ11sOFiSMvGzjun8xtWqrTaRbz7rtgED1zfBZ05lBMS4MP7jw5TKll+5MgRhgwZQk5OjjKbEqxWK2fOnOHgwYNs2bKF8HDDw1Z249lbexPoVzeaZjU1IyLIj1v6qG3yvhQHM08zcf5m/jFxIRlZeTa/Xl3n+PHjovOu8vboDRykah2uITw8PEhLS6NRo0YiR5746GdWbD8kslGX8ffx5KPHbiSxST1lNrOysujWrRtpaY75NP7YY48pCXjtwfcrd/LqZNleIo3r8fQtvbilj/Hpv8tRabGwed8xlm8/yMrth8g8nf/r5/y8PXnkxmu4qWeyfvCzEd27d2f16tWGzzvzWOyFVAA+QF+jBiwWC1arlUGDBokcaVwvhB9WGW+qqct4uLvxzthhtIlXp3ORl5fHgAEDHHY75NChQ/niiy+UiwJtP3icqUu3s3hLGtsOZGI2m4kKDRBNY12KhJhwFmxM1aJgml8JD/LjlbsH4O6m7md6x6ETfDZ7Pf+cuIjvV+1k1+GTFBT/XuG5vKKSVTsPszk1g7joMCJ0OUc5Tz/9NMXFxrV4XCkODAcOA35GDfj4+JCWliYWdnrio1ms2H5QZKOuYQthr7KyMgYPHizeDGwrWrRowbp16wgKClJm81TuWcZNWsLqnYf/8LnQAB+u69KSm3u1Jjpc3cKnBZtSef7zecrsaZybx27qzugB7ZTY2n7wOP+Zspw9R0/V6JzJBD2Sm3L/9Z1p2ShSiS91nQMHDhAfHy+y4SoZDoAioD7Q2aiBiooKKioqGDx4sMiRxvWCdZajhqgW9rJardx9993MnDlTmU2VBAUFsWjRIho2bKjM5ubUDMa+9yOp6ZdePFVcVsH2g8f5btl2CopKadusgZKn0KZRoSzeekCrkGrwcHfjlbuvxcdLNoFlsVr537xN/P3LhZzKPWvIxpGTufywcic7D5+gQVgQ9RxkUZytKa+oJO3YadbvOUp4kL/4tTjPhx9+yNKlssk0V8pwAMQD+xA0w6rKcjz/+TwWbEoV2agr2ELY629/+xvjx49XalMVJpOJ6dOnM2LECGU21+w6wpMfz6qRNkZ8gzDeHTtMycZOneXQAPRtG8cbD14nslFpsfD4hz+zZtcRRV5VkdAwnIEdm3NtxwSiXCT4OFNQTGpGFvszsknNyGZ/RjaHTuRgMpn4+539GaQoY1xQUEDTpk05ffq0xEyFK4zFXkgaMB0YZdRAcXEx48ePF6+uf2TENSz75QBl5Voc6Ur0bB3LM7f0Vmrzgw8+cNhgA+D5559XGmxsTs3gmU9n11iIK+3Yae4aP5X/PTuK6DBZiaVfu3giQ/w5dcbY06jGNVCxWPGTmeuUBxsAqefelP/742qSm0bRqWUMrWOjaBMXha+38X1atUFWXiEZWXkcy8rj8MkzpKZXBRlZeYV/+NrwID9ef2AIKXGGZyj+wHvvvScNNgB+cbUMB0AXYK3EgLe3N2lpaTRo0EDkyEc/reWLuRtFNlwZWwh7TZ48mdGjR2N1UAW2QYMGMWvWLNzc1FQz07NyGf3qFJHUePOYCCY8fbP4dfh89gY++XmdyIbGuVnwxn2EBvoaPr8tLZP735peqwKKZrOJ+OgwkmOjaFwvhNioUBpGBBEVFoBbLW14LSmr4EROQVVQkV31JyMrj4zsfDKycqv94No6LorXHxhCRJDhVsY/kJWVRXx8PPn5+Vf/4ivzL1cMOABWAD0kBsaOHct///tfkROFJWXc+PJX5OTXjtCUMxETEcwXz9ysVGtjyZIlDB48WLlkuSri4+PZuHEjwcHBSuydKShmzBvTSM/KFdu6sXsSL/zJ8JAXUBX83PjSV2JfNM5JTEQwP/zrTpGNu8ZPZdfhk4o8kuHuZqZ+aAAxEcE0jAgiMsQfP29P/Lw98PX2xM/bkwBfL/y8PcEKhaW/3XcqKy0UlVTtHCkuKyevsISc/CJyC0vIPVt87k/V/+cUFFNUIr9n3dyrNU/c3AMPd7WtmY888oj4vfAc3V014BgMzJEYUJXl+GHVTsZNcswpCXsREuDDxOduEafxL2THjh306NGDvDzHFP8JCgpi48aNNGvWTIm98opKxr7/I1tSjymxZzLBh4/eSKeWMSI7t/5rMmnHxKlXjRMyqFNz/j3G+E6qfelZ3DHuW4Ue1Q1CAnx44Y6+9G4Tp9z20qVLGTBggGjJ5TlygEhXUBq9FHOBDRIDJSUlvPbaa2JHbujWivgGYWI7roK3pzvvPDRUabCRkZHBkCFDHDbYcHNzY8aMGcqCDYB/frVIWbABYLXCq98sES9k69xSJpyncV4SGsrUcmet3aPIk7pDt6TGTHnpDpsEG8ePH+e2225TEWxA1XtypasGHAD/lBr4/PPPycjIENkwm008MbKn1BWXwGw28ep9g0hqWl+Zzby8PIYMGSJ+nWzJ+++/T79+/ZTZ+3LeJuZu2KfM3nkysvJYuu2AyEbrWHWNahrnomlUqOj8yh1aobm6+Hp58OxtvXlv7A2ECXpmLkdRURGjRo3i5Ell5a0vwTV2qVyO2cAmiYHS0lLGjRsndqRTyxi6JzcR23F2HhvRXUkX+3nKysoYMWIEO3bsUGZTNc8++ywPPfSQMnsLN+/nw5/WKLN3Md8t2y4637aZOpVYjXPRuF6I4bMZWXl6F0o16dm6KdP+8Sdu7tXaJhLuZWVljBo1ilWrVqkyuRZYBK4dcAD8Q2rgiy++4PDhw2JH/nqT+mYeZ2Jkr2Tu6G98G+/FWK1WxowZ47AqogBPPvmk0vHc1PQsXpm40KYd/NsPHL/kqF11CQ3wxddbjdCQxnlwM5tFZdLtB2VLweoCkcH+vPHgdbz90FDqhdhGR6SyspI777yT2bNnqzT7yvn/cfWAYzbCXo6ysjJeeuklsSNN6ocok/t1NmyhtfHYY48xefJkpTZV4eXlxQcffMCbb76pzGZeYQlPfTqbkrIKZTYvhcVqZfk2mSz/gPYJirzROAv1QwNEqrX7LqOOqwEvD3fGDO7I9FdG07et+l6N81RWVnLvvfcydepUlWbXAfPP/8XVAw5Q0MsxefJkNmwQxS0A3DekEw0j1O3NcAYSGobz6n2DMJvV5f7Gjx/PBx98oMyeSlq2bMn69et5+OGHldm0WKy8MGEemdniOfhqsXFfuuh8K4WbfjXOQVSY7In7RE6BIk9cB5MJBnZMYMYro3nohq74KpIovxTng42JEyeqNv27p/W6EHCIsxxWq5UnnnhCLCbl6eGmXMLbkYkM8efdscOUC3s9//zzyuypIiQkhDfffJNt27aRkqJ2LffHM9eybvdRpTavhHSstVGkGp0RjfMQ6OstOq+3Df/G+cVzk56/jXH3DlKyeuBKlJSUcPPNN9si2JjPud6N87iatPnl+AdCXY7Vq1czffp0br75ZpEjXRIbMahTc+bZYMrAkfD38eT9h28gMkTdiuglS5YwZswYh1IRTU5OZsyYMdx7770EBKi/MSzZmsaX80W9zzUmp0AmVOfv49gy0Rr1BPvLAo7cs3rxX1WgEcv913eqtQ23ubm5DB8+nOXLl6s2XQo8dfEH60rAMZeqWlIXiZFnn32WYcOG4eXlJXLm6Vt6sXFvOqddVIHUbDYx/v4hSvVHduzYwYgRIxxCRTQ6OpqbbrqJu+66i/bt29vsOmnHTvOPL23bJHop5AGdq+oJai5HgK/sniiR5nd2zCYTvVJiue+6TjSPiai16x49epShQ4eyfbtsMu0yPA78YWV6XQk4oKpTdq7EwKFDh3jvvfd45plnRI4E+Xnz3O19ePoTpZ3ADsMzt/SmS6I6AShHEPZq0aIFQ4cO5cYbb6Rz586Ybbxj4UxBMY9/OJOi0nKbXudSSL83R8pAaWoHky3mM12c0AAfbrimFTf2SFIqhFgdlixZwq233kpWlk2adacAH1/qE3Up4JiHgizHuHHjuOeee4iIkEWifdrEuWRpZVTvFEb2SlZmz17CXvXr16dXr17079+fa6+9lkaNak9Bs7yikic/mcVxOzXSNRNmpnR6XFNTKist9nahVvD0cKNLy8YM6pRA7zZxeNpBKuGtt97iueeeo6LCJhNv+4AHLvfJuhRwQFUvxzyJgfz8fF5++WU+/viSAVyNeOaWXmzelyHSPXAkuiU15qlR6lRVKysrueOOO2wu7OXm5kZSUhLXXHMNXbt2pVu3bsTGqhMoqyn/nrSE7Qfsp0vQPqGh6PxZBYuoNBpXwcvDna6tGtO/XTw9WjetWvZmB86cOcODDz7ItGnTbHWJImAUcNknpboWcMwHViLcJPv5558zduxYkpKSRM4E+nnzrzEDeei9H7BYnDsNHd8gjFfvHax0/PWRRx5RLUADQGhoKF27dv31T8eOHW3S8GmE/83bxOx19tspYTLBtR1kO1/yC0sVeaNxFryET+puAg0PR8NkgvjocDq1jKFzi0a0S2igdFLPCEuXLuWuu+4iPV028n4VHgau2BBS1wIOgCeB9Qg62yoqKvjLX/7CihUrxLXLDs0bcte17fnfvNqdRFBJSIAPb/75eqXTCePHj1eSRQJo3LgxPXr0+PVPixYtHLLm/O2SbXz4o+1ky6vDoI7NaVJfthPjxBmtqVDXCPLzEZ2/rksLJszZqMib2sXNbCYuOpSkpvVpn9CQji1iCA2Q/XuoorS0lJdeeom33noLi8WmZauPgf9d7YvqYsCxEZgM/EliZNWqVUyYMIH77rtP7NCDQ7uwcV8GOw+dENuqbTzc3Xjrz9crFTT78ccfRVobTZs2ZcCAAfTo0YOePXvWav+FUb5ZvI13pq+wqw/1QgJ46pZeYju6abTu0Sulqej8X4Z15ZpWTfhpzW6Wbk0jv8gxs2Rmk4no8EBaNoqkVZN6tGpanxYxEfjYUJTLKOvXr+eBBx6w1RTKhUwGHqnOFzreY17tEAPsBURr9sLCwtizZ4+4gRSqlPZGvzaFMwXO03BnMsE/7xnI4E7Nldlcv349ffv2paioZiPDLVu25KabbmLEiBG0batuZ4utsVrhgx9W89WCzXb1w93NzKdP3ERKnHzb6/vf2//70dQur943WFyKO09FpYXdR06yJfUYW9KOsS3tOEW12BdkNpkID/YjOiyQqNAAosICaVI/hNioUJpGheLl4djP6fn5+bzwwgt89NFHts5qAMwEbgKq1YHq2P9ytiMdeBt4UWLk9OnTPPnkk3z11Vdih+qHBvDvMQN55IOfnKaf466BHZQGG2lpaQwdOrTawUZgYCAPPPAAY8aMoWXLlsr8qC3KKir5x5cLWbAp1d6u8NANXZUEGwBFpbpptK6hskTp7mamdWwUrWOjuJsOWCxWTuQUcOTUGdJP5ZF7tpi8whLyCkvILywht7CEkrIKSi/aM1RQVEKArzcmEwT4eGE2m/Dz8cTdzUywnw/B/t4E+/sQEuBDiL8PQf4+RAb7US9EthfGnvzwww888sgjHDt2rDYuNx24g2oGG1B3Aw6A14F7AdFd9uuvv+bWW29lyJAhYoc6t2zEw8O78f73q8W2bE3ftnGMvaGbMnt5eXkMHTq0WnPhjRs35uGHH+aBBx4gMLB259dVcfRULi9OmMfuI6fs7Qp928YzeoDtBMw0rk+QUPjrSpjNVWWM6PBAuiba7DJOzf79+3n00UeZN080hFkTPqaqjFJZk0POGcap4SzCDMd57r//fs6cOaPCFKMHtFeaNbAFiU3q8c97BqLqoaasrIwRI0awd+/eK35dw4YN+eSTT0hNTeWpp55yymDDYrUybfl2/jTuW4cINprHRPDPe65V9loCTpOh06gjPEhUndYYJDs7m7Fjx5KYmFibwcY/gYeoYbABdTvgAPgS2Co1kpmZyRNPPCH3hqq+iJfv7C/WQrAVkSH+vPngdUrHvB544AGWLFly2c+7u7vz1FNPkZqayoMPPoinp3Pu6ticmsHoV6fw+rfL7KIgejFhgb6889BQ5SN7jvC9aWqX8GB1O5M0V6esrIy33nqLZs2a8dFHH9lKxOtiKoGxwN+NGqjrAYeFSyyYMcKXX37JTz/9pMIUHu5ujL9/MDERjrV10xYL2caPH3/FLYUJCQmsXr2a//znP/j4OMaoWU3Zdfgkj7z/Ew++/T370m0iJVxj/H08effhYUpfS03dxNPDjUAbllQ0v1FZWcmkSZNo1aoVTz31FLm5ubV16VLgVuAjiZG6HnAALKGq+UXMfffdx/HjahQiQwJ8eP/RYUQ6yJODh7sb//nz9UoXss2cOZMXXnjhsp9v27Ytq1atolOnTsquWZts3JfB2Pd+5K7xU1m7+4i93fkVz3Ovpa02UtYVmWpNFfWCHUM0z5WpqKjg66+/JjExkdGjR5OWllabl88FBqPgfVIHHFX8FciXGsnOzmb06NHKRpFiIoL56K83Ehpo3/ro+TJPx+bqyjzbtm3jtttuu+y/Vdu2bVm4cKGSkePa5GxxGd+v3Mmd46fyl3e+Z/2eo/Z26Xd4uLvx+oNDlL6WF1NcpksqdQndv2E7KioqmDhxIomJidx5552kptb6RNt2oAOwVIWx2t8c45gUAIVURXEiDh06hK+vL927d5d7BQT7+9ArJZaV2w9RUFz7Yjhms4kX/9SP67uqGzvNyMigX79+nD59+pKfj4+PZ9myZYSHhyu7pi0pLa9g9c7DTJizgX99vZhl2w6Qlet4+3G8Pd1544Hr6JEsE2m6GvM27uPoqVpL9WrsTHLT+vRvr0aDQ1NFZmYmb7/9NnfeeSdff/01OTk59nBjCnADcFKVwbo8FnsxHwF3UhXNiXj55Ze55pprlAUdjSKD+eKZm3nk/Z/Yfyxbic3qYDab+MddAxjSuYUym0VFRYwcOfKy219NJhNff/21w2c2TucXsX7PUZb/cpA1u45Q7OCNkiEBPrzz0FCSmta3+bXKK3RJpS4R4SBlX2fHarWybNkyPvzwQ2bOnEl5ud3uKaXA34B3VBvWAcdvVAL3AxsAkU5tWVkZo0aNYtOmTURHRytxLjzIjwlPj+QfExexZKvt63cBvl6Mu3cQ3Vo1VmbTarVy9913s379+st+zQ033ECXLl2UXVMVpeUVbEvLZP2eo6zbk87+jCycRcG7UWQw7z0yrNaakEvLa6VjXuMgRAT72dsFp2br1q1Mnz6dqVOncuDAAXu7s4uqtR/bbGFcBxy/ZxvwGvCy1NDx48cZNWoUS5YsUTbG6evtyesPDGHi/E18NHOtzfQOGtUL5p2HhtK4XohSuy+++OIVVyObTCZeeeUVpdc0yun8IrYfPM4vB46z/eBx9h45RVlFjcfO7c41SU3495iBBOgpAo2NiAjSAUdNsFqtbNmyhWnTpjF9+nRHCDIArMB/gWeAEltdRAccf+TfwDCgjdTQ6tWrefTRR/nkk0/kXp3DZIK7B3WgdVwU//xqERlZecpsAwzp3IKnb+ml/A1q8uTJvPbaa1f8mn7/396dx1dV3/kff2UhCSQQsgAhLCYsIezriIAsoiMiUhbrYLVq66jj2Nqpy4yO/Vl/086v7dQ6ziAaO0y1Wh2XUZS04oaKaFFQCEGWFMhCAmFLICFkz839/XFA2ZR7z/fc7dz38/E4D2ac8z3f75DLPZ98v5/v53vppYwZM8bRfn3h6eykdF8txWX7+aLsAMWl+9lX4+zfa7DFxMDfXnkht101mdggn4wbiYGZ2JepgOO89uzZw3vvvcfq1at57733OHQo9EX/TlEO/B3wbqA7UsBxtnbg+ziwtALw29/+lpycHO6//37jgZ1qwtB+vPB/rmPZ6+t4eU2x8fR+eo9uPHDdJcwaN9iZAZ5i/fr13Hzzzec9RXTmTPOTSn3R1NJG8YnZi6Jd1WzfczDsczD80Ss1mX/53uVcOHxASPpv05JKVAmXrfvhorOzkx07drBhwwY+/fRTPvjgA3bt2hXqYZ1LB/AI8C9AUE4NVcBxbpuxqqn9womHPfDAA+Tl5bF48WInHvelrold+MclM/nW1BEUFH7Cuq176PQz8kjsEs+i6SO5dd5kUpOTHB0ffHUgW1vb+Q/0GjYsMCXdm1ra2FBSxaZd+yjaVc1f9h52bfnt2eMH85PvXhqQn6XIuWQa5HDU1NSQmppKly7hd7y7Lzo6OigtLWXr1q1s3LiR9evX8/nnn3PsmHGVhUBbD9yGte01aBRwfL1/Ay4DZps+yOv1csMNN9CnTx+mTZtmPrIzDBvQi//4wbfYV1PPio+28mFxGRUHvv5sl5gYGH5BH+ZPGc7cC/NJ6RqYUuGHDx9m7ty5Ph3IBpCf79xumGNNrawtLuP9olI+3bGHtnZ3T/Nnpibzj0tmcumEIaEeikSRbkkJdEu0Hyy89tpr3HXXXUydOpUZM2Ywa9YsJk2aRFJSeAXMbW1t7N69mx07drB9+3a2bdvGjh07KCkp8emXqTBSh3WGWAFWpe2gUsDx9TqBG7AiQOPymk1NTcybN4933nknYJUz+2Wmcueiady5aBrVtcfYsKOK+sYWGppb8Xq9dO+aSE5WGuOGZNMzJbBlwpuampg/f75fFfF69jTfRVFWXcsThZ/y8RfldERBxcu42FgWTx/FHQumKDFUgs40YbS6uprGxkbeffdd3n3XSiGIi4sjNzeX/Px88vLyyMvLY+jQoQwdOpT+/fsTE4CcpJqaGmpra6murmbPnj1UVFRQUVHx5f+8d+/eYJ1XEkgvAXcBzpTDtkEBxzerBm4GXgeMP+X19fXMmTOHDz74gHHjjHNSv1F2Rg8WXjwyoH18HY/Hw3e+851v3P56LtXV1QwYYJZ3kJ2ZSm5WGn/eWmH0nEgwdeQF/Pjb0xnUNz3UQzlNY3NE/cYnBnobbondt2/fWf/N4/Gwe/fuc/6y0rVrVzIyMkhPT//yz8zMzLN+WUlOTiYhIYHjx4/T3t7OsWPH8Hg81NXV4fF4qKmpOe3yeFw9A7odK9B4J9QDUcBxfoVYBVAcOQ62rq6Oyy+/nNWrV4dkR0ageTwebrzxRgoLC/1uW1JSwuTJk436T0qI5wcLpzJ/yggeX7mODzaXuipfo0t8HJeMG8y1l4xlzOC+oR7OObnnb1vOx7Tol79nTzU3N7N3796vLRwop6nBykX8L6wE0ZBTwOGbfwamnLiMHT58mNb5iIIAACAASURBVMsuu8x1QUd7ezvXXXcdr7xi74yfLVucy18a2Kcn/3bblRw40sAra7+gcN12jhxrcuz5wdY3vTuLpo9i4bSRIT9bR+SkPoanDVdXVzs0EjlFM/DvwMNAWO3vD+4G/cg2ECgCHJu/zsjI4I033jD+rT4ctLW1sWTJEl5//XXbzxg4cCDl5eXExjp/pmBnp5f1JZW8/dlO/ry1gqMNQdkFZqRbYhemjLyAeRcN5+JROcTGBuefa0NDA9272z8B9KoHnubAkQYHRyTh6p+vu4SrZ4y23b53794+J5XLebUC/w38CgjLKSDNcPiuEqvk6x9x6NC72tpaLr30UlasWMHll1/uxCNDoqmpicWLF/P2228bPaeyspI333yTefPmOTSyr8TGxjBlxAVMGXEBnV4vJXsOUbS7mq3lB/ii/EDYvCB790zh4tE5zBo3mEnD+pMQH9zzFUtLS3nttde49957g9qvRKa+6T1st21ublaw4YwWYDnWzsqzk2LCiAIO/7wJ/AyrUIojGhsbmT9/PsuXL+fGG2906rFBc+jQIRYuXMgnn3ziyPMeeughrrzyyoBkop8UGxPDiJw+jMjp8+V/q6lvZGv5AbZWHGRb+QF2V9cGZRZkYJ+ejMrJYmROH8YM7kv+gN4EuTDolzZs2MD8+fO5+eabQzMAiThZ6faXVCorKx0cSVRqwgo0fo21wSHsKeDw38+BiVjlzx3R1tbGTTfdxMaNG/nNb34TMUVwNm/ezIIFCxz94ti4cSMvvPAC1113nWPP9EVmajKzxg0+rdJqfWMLZfuPUHnwKAePHufAkQZq6htpaGqlobn1yz/PVeMjNjaGlK6JdO+aSPduiaR0TSC9ezf6ZfagX2Yq/XqlMqx/Jj3CpEDXq6++yk033URjY2OohyIRJCvd/tLbnj17HBxJVNkO/BZ4hjDL0TgfBRz+82IdY/8RYH/x8hyWLl3K5s2befHFF+nbNzx3IJz08ssvc/PNNwfkBfXDH/6Q6dOnG2+RNZWanMT4IdmMH+LMib/hyOPx8OCDD/KrX/3qvKXnRU7Vo1si3ZLsFw3UDIdfWoEVwJPA2hCPxTbns/OiQz2wGHB8AXLt2rWMGjWK5557zulHO6K+vp7vfe97LFmyJGC/DR89epT58+dTU1MTkOeL5dChQ8ydO5df/vKXCjbEbyazG6CAw0cbgTuBbOA6IjjYAAUcJnYD87HW0Rx15MgRbrjhBhYuXBhW/yjfeustRo8ezTPPPBPwvoqLi7nssssUdATIqlWrGDNmzJfVHUX8pYAjYLZg5QqOASZhHRt/JKQjcogCDjPrge9gnTDruJUrV5KXl8e9997LkSOh+7wVFRVxxRVXMHfuXKqqqoLWb3FxMZdccgkHDx4MWp9u19DQwB133MFVV12lv1cxooDDMZ3AOuCfgCHAWKyCXV+EclCBoIDDXCHWmSsBqY3b2trKI488wuDBg/n5z39OQ0Pwtm+WlJRw7bXXMnHiROMtr3Zt3bqVGTNmsHXr1pD07yaFhYWMGDGCgoICLaGIMQUcRnZi1cz4LtZyyTSsQl2loRxUoCngcMZLwN8SwNP36urq+OlPf0pubi4/+clPAvqPdePGjdx0002MGjWKl156KeQvp507dzJ58mSWL18e8rFEot27d7No0SIWLFigktDiGJOAw+v1BnW2NMQ6gK1YO0uuA/oBw4BbgeeBqJlqVMDhnGewDnoL6ClAtbW1/OIXv2DQoEEsWLCAZ5991pHiORUVFSxbtoxx48YxadIknn322bA60KipqYnbbruN2bNns3379lAPJyLU1NRwzz33MHLkSKMKsP5qbg3ICqOEGZOA48CBA5F2rLuvWrCW2n8L3A5cBKRi7Wi8HXiBCKmZEQjaFuusZ4CjwItAQM9/93g8FBYWUlhYSGxsLOPGjWPcuHHk5+czfPhw8vPzyc3NJS7u9EqVLS0tVFVVUVpayrZt29iyZQtr1qyJmOnNNWvWMHbsWG699VYeeOAB+vfvH+ohhZ0jR47wyCOPsHTpUo4fP+53+zM/M/7ydAZsok/CiGpwcBArwbPoxJ/FQAlhclBaOFLA4bxCYM6JP3ue515HdHZ2smnTJjZt2nTaf09MTCQ1NZWUFKsaYENDgytKCXd0dFBQUMDTTz/Nbbfdxn333Ud2tntrZfjqyJEjPProoyxdupRjx47Zfs7Jz4vI14mPiyUz1f7R9BHyC04bVlBRhrUr8eR18n+3/48sSingCIyPgJnAW0DIKni1trZy6NAhDh06FKohBFRLSwtLly5l+fLl3HrrrfzoRz9i8ODB52/oMtu3b6egoIBnn33WKNAQ8VXvtBRiDWrwGwQcv8M6L6Q3kAX0Ak6W643FWr44UztwHGvmoQFoxCqkVYe1BNIIHDpx7ccKMg4CtXYHKeemgCNwtmBlHr+DtdVJAqS5uZmlS5eybNky5s6dy+23386cOXMipkS8He3t7axYsYInn3ySNWvWhHo4EmVCuEPln3BJTYpopIAjsMqBi4E/YRVwkQDq7OzkjTfe4I033iAjI4O/+Zu/YeHChcyYMYOkpPA4s8SEx+Ph008/5fXXX+e5557jwIEDoR6SRKmstJAEHMdRsBHRFHAE3kFgOlbWcuQdB+uMPcACYC7wy2B0WFtbS0FBAQUFBXTr1o1Zs2Yxe/ZsLrzwQiZMmEBysv3152Bqamri7bff5k9/+hN//OMfXZGDI5EvRDMcEZH4IV9PAUdwtAA3ARuAfwfsn3gUeT4GrsZaH92CVeTmzmAOoKmpiVWrVrFq1SoA4uPjGT16NBdddBGTJ0/mwgsvZNiwYcTGhn6XeEVFBevXr2fDhg2sX7+ejRs30tLSEuphiZymb4YCDvGfAo7gehzrBfw0MD7EYwm0duBfgV/w1TYxL/AjoBlrLTYkOjo6KCoqoqioiIKCAsDa0ZOfn09+fj4jRoxg8ODB5OTkMHDgQPr27Ut8vHP/VDo6OqiqqqKsrIzS0lJ27tzJtm3bKCoqUrlxiQgmMxyNjY3U1trKx1TAEeEUcARfMTAZeODE5cbZjmLg+1j708/lPqwZj4cB+6nuDmptbaW4uJji4uKz/m9xcXFkZWWRk5NDVlYWaWlp9OzZ88vr65JTjx49Sn19/ZfXwYMHKSsro6qqivb28C2O1dGhMgLyzUJUg8ON35VRRQFHaLQD/4JVEv1JrC20btCMNavxG6w97N/kEaAG6zyBsP4cejwe9u3bx759+0I9lKBobGw0at81oQvHm11ZRVJOMEkaNdihkmW7UwkLoV+0jm4lwCXA97BevpHsTWAU1hKKr2+bZ7CSSesCNSgJvrg4fa24WWpyEl0T7W85Nwg4NtjuVMKCvhlCz4v14h2KNTPQHNrh+K0EWAxciVWBz1+rgHHAp04OSkQCI4Q1OPQdEeEUcISPOuAfgXysZYam0A7nvCqBW7AOJXrN8Fl7sLYO34O1115EwlQIA44Go44l5BRwhJ9KrGOL+2O9gP8S2uGcph14HZgHDMIqM+xUhmEH1pbhESf6kBBpbW0N9RAkjIUw4AjfTGvxiQKO8HUU6wU8HCup9PeEbrmlBGsba39gEdYySKDOrq860ccCrEqtEmSmdT+Sk7SZwM36hi7gCPdZXzkPBRzhzwusxdpm2hcrwfQloD7A/e4G/gtrqWM41hbWYJ4CVwiMBH6GllkiisGZXhIBTGY4Ojs72bt3r93mqoAX4cJ6O6KcpR4rwfQZrJ/dGKyEy5PXGM59WuL5HAA2Y9XP2IwV4FQ7MF5TzcBDwGPAvcAdgNmvVyJixCTgqK6uNqlBo7W+CKeAI3J1AJtOXKfKxko8zQXisH7GZ35DtGAtXVRj7SwJ9/Pra4D7sbbc3gT8ABgW0hFFjrXAjFAPQtzDJOAwWE4B6xh5iWAKONynmvCYnQiEY1izHcuwlnpuAb4NdA3loMJQPfAcUABsA1YDl/rauKnJbKk8VmsqrpUQH0dGD/sHHxoGHJrhiHDK4ZBIdDKv5UasvJa/B9ad+O/R6uTfyXex/k5+iBVsgJ9r36Zl17spadS1+mb0MMrRMQg4vCiXK+JphkMiXT1WefgnsZaRlgBzgam4//PdCXyGtY34f4HSr7lPX9TiiH69ehi1r6iosNv0mFHHEhbc/oUs0aUc+NWJKxWrbPxUrMPyJgL254LDRxPwHvBHrJ08vhwvq9PYxBHZGSELOFT0ywUUcIhb1WP95n+yiFg81jbbKVgByIVAHuH9b8CLVfhtw4lrPdZOIn/XPPTboTgiO8POJrivKOCIbuH8ZSvipA6sl3Ux1vILWMddD8eqbjoSa3fPCGAIYP90KntasQqsbT7jcuJgu05/bm5oMPtuj4tVaphb9cu0P8Ph9XopK7Nz3BKgZUFXUMAh0ayNr4KQU3UBcrAqqw4ABmIlYmYCPU+54oG08/TRiTXbcvTEnyevPVhLQGUnrmoCl/TqVwTR2elXfHKWron6WnGrbIOAY//+/SZl8zXD4QL6ZhA5Wzuw68TlBoEqQy9Rpl+m/SUVg9kNUMDhCpr7FHE/TUeLsZSuCfTolmi7vUH+Bugz7AoKOETcz68kU683msuZyNfJNpjdAOOAI9BnR0kQKOAQcT+/SoceO2a2qSUpIdj5thIM/Qy3xJaWfl2ZGJ8cNepcwoICDhH3a/PnZtMZjvg4fa24kUnCKBjPcBwx6lzCgr4ZRNyv2Z+bTWc4uiVqhsONTBJGwThpVDMcLqCAQ8T9/NqL6PGYbWqJjdXhbW5kUmW0vb2dffv2mXSvGQ4XUMAh4n5+Hd52/LjZhoBkHd7mStkZ9o+lr6qqMg1kFXC4gAIOEfcL6mmxOp7enfr1sr+kYpgwClBr+gAJPQUcIu7n15JKU5Nfm1rOohkO98no0Y3ELvbrRBomjIJmOFxBAYeI+/kVQRiUnwYgTrtUXMdkdgOME0ZBSaOuoG8GEffza42kpcWvFZizdFUdDtcJ4bH0YFUZNYuCJSwo4BBxv0Z/GzQ3+7WT9jRd4vW14jYhDjj2G3UuYUPfDCLu1+Fvg7Y2v2qFncZkrV/Ck8mx9GCcNHrQqHMJGwo4RNzP732ujY1+T4p8KUEBh+uYnKPS2NjI4cOHTbpXwOESCjhE3M/v9e+ODr8nRb6UEB9nu62EJ5MZjvLyctPuD5g+QMKDAg4R92sE/DogpaGhwXZnSQma4XCTuNhY+qSl2G7vQMBxyPQBEh4UcIhEB78OSOns7LTdkQ5vc5c+aSnExdr/mTpQg6Pa9AESHvTNIBId/Ao46uvrbXekw9vcJcQJo6AZDtdQwCESHfxKHDWZ4Yg1+G1Ywo9Jwig4MsOhbbEuoW8GkejgV1KGSQ5HcleVNncT0xkOB3I4tKTiEgo4RKKDXzMcJrtUdDq9u5gW/TIMODxoW6xrKOAQiQ5+BRwmdTiSkxJtt5XwYxJw1NbWGs2WYQUb9qNfCSsKOESig1/f+ialzVWHw11CfCz9XtMHSPhQwCESHfzapXLsmF+3nyahS5yCDpdI7BJPRo9utts7kDBaZfoACR8KOESig18zHCbbYkGJo25heiy9AwmjlaYPkPChgEMkOvgVcJjMcAAkJyngcIN+oU0YBQUcrqKAQyQ6+JU0qoBDAAb26WnUXksqcioFHCLRIbgzHFpScYX+hksqu3fvNh2CZjhcRAGHSHTwa4bDNIcjRVtjXWFgb/szHB0dHVRWGscLCjhcRAGHSHQI6pJKimY4XGFAL/sBx549e2hvbzfpvhUV/XIVBRwi0cGvKQvlcEiX+Diy0rvbbr9r1y7TIZSZPkDCiwIOkeigHA7xS3ZGD2IN6tQ7kL9hXDVMwosCDpHocMSfm81zOBRwRDqT/A1wJODYafoACS8KOESiQ60/Nzc0NOD1em13ltJVSaORLgx2qGiGw2UUcIhEhyagxZ8GJssqWlKJfANCP8NhnAQi4UUBh0j0CNqyipJGI5/JDIfH46GszDjnUwGHyyjgEIkeNf7cbDLDoRyOyHeBQZXRyspK0y2xbajKqOso4BCJHn7lcZjMcKgOR2SLj4sN9ZbYXYDH9CESXhRwiEQPv5ZUlMMRvbIzehAXa//14ED+xlbTB0j4UcAhEj2CF3BoSSWimR7a5kDA8YXpAyT8KOAQiR77/bn5yBG/4pPT9OiWRIz9mlESYrlZ6UbtHVhS2W76AAk/CjhEoscBf24+fPiw7Y5iY2NITe5qu72E1gV90ozal5Yal9DQDIcLKeAQiR5+HYRVW+tXjulZUpOTjNpL6OT2tT/D0dHRYbqk0oTOUXElBRwi0aPan5sPHTpk1Flad81wRKqcLPszHKWlpaZbYncAnSYPkPCkgEMkevi1pFJT41fZjrOkpSjgiETp3bsazU6VlJSYDmGT6QMkPCngEIkefiWNGi+ppGhJJRKZ5m/s2LHDdAifmT5AwpMCDpHo0Qoc9fXmgwf9Svk4S3r3bkbtJTRM8jfAkRmOjaYPkPCkgEMkuvg8y2E6w9FTMxwRKcdwS6xhwNGCdqi4lgIOkeiy19cbW1tbjYKOzNRk220ldHIMl1QMA45iwCjjVMKXAg6R6OLXgVj79/uV9nGazB4KOCJRbrb9GY7q6mqjM3hQ/oarKeAQiS7BCzh6KuCINF0Tu9AnLcV2ewfyNzaYPkDClwIOkehS4c/Ne/f6vAJzlt497b+4JDSG9s8k1qAmvQMBx1rTB0j4UsAhEl3K/bnZZIYjKSFex9RHmPwBvYzaG26JrQT2GA1AwpoCDpHoUuHPzdXVfhUnPUuvVM1yRJL8gb2N2m/bts2k+UdGnUvYU8AhEl324ccuAJMZDoBeyuOIKHn9M43aFxUVmTT/0KhzCXsKOESiiwc/EkcrKiqMOstK727UXoKnS3wcg7MzbLcvKyujrq7OZAia4XA5BRwi0afC1xvLy/1K+ThLv8xUo/YSPEOyM+gSH2e7veHsRjVgnHEq4U0Bh0j08fno76NHjxrVVcjO7GG7rQTXmMF9jdobBhxvGXUuEUEBh0j02e3PzWVlPscnZ+mXoYAjUowfkm3UftMmo0NeFXBEAQUcItFnqz83m+Rx9NUMR8SYkNffqP3nn39ut6kHWG3UuUQEBRwi0cevgKO0tNR2R71Sk0lKiLfdXoIjJyuN9O5dbbcvKSnh8OHDdpt/ih+nGEvkUsAhEn0qgQZfbzZZUgHINTx9VAJvwtB+Ru3XrjUqEPq2UecSMRRwiEQfL7Dd15sNq0eS21cBR7ibMWaQUXvDgEP5G1FCAYdIdPJ5WcU04DCp7SCBl5QQz1/lm+VvfPSR7RIah4CNRp1LxFDAIRKdfJ7hOHjwIEeOHLHdUf5As/M5JLAuGnEBiV3s59mUl5dTWVlpt/k7QKftziWiKOAQiU7r/bnZ5IyMkTlZRieQSmBdPCrHqL3B7AbAm0adS0RRwCESnTYCbb7evHWrXxtbTpPSNYFB2crjCEexMTHMGGuWv7F6te0dra3AG0adS0RRwCESnVoAnwsnGJ4CyphBZlUsJTAmDx9otB3W4/Hwxhu2Y4b3APtlbCXiKOAQiV7rfL3RNOAYZ1jFUgJj/tThRu3XrVtnkt/zilHnEnEUcIhEL58DjqKiIjo77ef2TRuVQ1ysvm7CSY9uicwaO9joGStXrrTbtB0oNOpcIo6+AUSi1599vbG+vt5oe2xqchIT88yKS4mz/npSHgld7J8OC5gsp3wA1Bp1LhFHAYdI9DoEfOHrzevW+Twhck6XTRxq1F6c9a2pI4za79ixg5IS2yfK/8Goc4lICjhEots7vt5oGnBcPimPboldjJ4hzhg7uC8jc/oYPeO5556z2/QYsMKoc4lICjhEopvPAYdh+WpSuiYw7yKzJEVxxk1zJhm17+zs5Nlnn7Xb/CWgyWgAEpEUcIhEt4+AZl9uLCsro7i42Kiza2aNQTXAQmtQdgbTR+caPePdd99l7969dpv/3qhziVgKOESiWzN+zHK89tprRp0N6pvOpDyzczvEzA8WTDEO+n7/+9/bbfoX4BOz3iVSKeAQkdd9vXHFCvOl9yWXjDV+htgzefhAZhpWFq2pqeH1133+yJzpcazTiiUKKeAQkT8BHl9u/OKLL9i0aZNRZ9PH5JKV3t3oGeK/uNhY7r5muvFzHn/8cVpaWuw0rQOeNh6ARCwFHCJSg5XL4ZOCggKjzuJiY7nhrycYPUP8d+3ssQzOzjB6RmNjI8uWLbPb/L+B40YDkIimgENEwI9lleeff97ouHqAhRePJL1HN6NniO8GZ2fwgwVTjZ/zu9/9jpqaGjtNO4DHjAcgEc2szJyIuMV+4MfAedMJOzo66NWrF1On2n+BxcfF0tnpZUNJle1niG8SusSx7EcL6dUz2eg5HR0dXHvttdTX2zpv7X/Q7pSopxkOEQGoBD719eYnnnjC6GwVgGtmjtYsRxDcuWgaQ/qZLaUA/OEPf6CystJOUw/wr8YDkIinGQ4ROak7cIUvN9bV1TFx4kSGDRtmu7Mu8XEkJcTz560Vtp8h32zm2EHcfc0M422w7e3tXHPNNdTV1dlp/gKw3GwE4gaa4RCRk14BfJ62ePzxx407XHTxKIb2yzR+jpxtVG4W/+9vr3Ck0Nry5cspLy+307QT+Ln5CMQNVPNPRE71MTDN15s/++wzJk0yK5O9pXQ/t/zmFTq9Ks/glAG9evLUP11DWveuxs+qq6sjLy+Pw4cP22n+P8D1xoMQV9CSioicKgWY6+vNNTU1LFmyxKjDPundqW1oYvueQ0bPEUuv1GQe/4dFjtU6uf/++3n//fftNO0ElmBtuxbRDIeInCYL2IuPv4zExMSwZcsWRo0aZdRpQ1MrS372PIfqVKbBRL/MVAp+vIjszB6OPK+kpIQxY8bQ3t5up7lmN+Q0muEQkVMdB6YCQ3xtcODAAeNZjsQu8eQP7MWq9SVoZcWeERf05okfL6KPQzMbXq+X66+/nl27dtlp7gGuRbMbcgoFHCJyphhgka83l5SUcPnllzNgwACjTrMzetDZ6WXTrn1Gz4lGi6eP4le3XUn3bomOPfPJJ5/kscds1+r6L+AZxwYjrqAlFRE5U3fgAOBzkYxp06bx8ccfG3fc2enl9kdXKOjwUVJCPA9cP5srJ+c7+twdO3YwadIkmpqa7DSvA/IAW1mm4l6a4RCRM7UBYwCfEzOqqqoYO3Ysw4cPN+o4JiaGySMG8u7GXTS2tBk9y+2GDejF0jsXMHn4QEef29bWxty5c6mqsl0F9v8Aqx0ckriEZjhE5Fy+Baz0p8GwYcPYunUr8fHxxp3v3lfLLb/5X443K+g4U1JCPH83/yKuu3QccbHOl1K6++67efTRR+02L8EKVm1lmYq7aYZDRM6lHPh7/FhWqa2tJS0tjSlTphh3nt6jGyNzs3j38514OpVFetKUERew9IcLuHh0DrFOVPQ6Q0FBAQ8++KDd5h5gIbDHuRGJm2iGQ0S+zsPAvf40SElJYfv27cYJpCdt2FHFPU/+iebW6P6FeXB2BncsmMLMsYMC1kdhYSGLFy/G4/HYfcR/AHc5OCRxGQUcIvJ1BgKlgF9rJPPnz6ewsNCxQXxRfoB/eGwlx5paHXtmpBjaL5MbLp/AFRcOC8iMxkmbNm1i+vTpdpNEwfqcjAUanRuVuI0CDhH5Jq9hTZP75dVXX2Xx4sWODaK65hj3L18VFdVIY2NjmDV2EEsuGcvEvP4B72/79u3Mnj2bgwcP2n1EG3Ax8JlzoxI3UsAhIt9kBvChv40yMjLYsmUL2dnZjg2krcPDf7zyMS+vKXbsmeEkMzWZq6YM59szRjtWlvx8HAg2AP4BWOrQkMTFFHCIyPl8iBV4+GXWrFmsXr2auDhnc9NXb9zFL55/3xVLLN27JXLJuMFcceEwJuX1JzY2eF/JmzZtYs6cOdTUGBUDfQ24GlBmr5yXdqmIyPlUAjf526iiooK4uDhmzpzp6GAGZWcwf8oIauob2b2v1tFnB0NK1wRmjh3E3y+YwgPXz2b2+CH0y0wlJoA5Gmf6+OOPmTNnDkePHjV5TDlwJdDizKjE7TTDISK++Ahrnd4vcXFxrFy5knnz5gVgSLBp1z5++8f1bNy5NyDPd8qQfhlMHXkB00blMG5IdkDqZ/jqrbfe4uqrrzZJEAUrb2MqsNGZUUk0UMAhIr6YDbxnp2FqaiofffQRo0ePdnhIX9lecZAVH2/lnc920hQGW2j7ZaYyfmg244dkc9GIgfRJC05OxvksW7aMu+++2+7pr6e6E1jmwJAkiijgEBFf2crlAOjfvz+ffPIJ/fsHdtdFU2s7HxaX8UFRKeu2VdDS1hHQ/gDiYmMZnJ3O+KH9GDckm3FDsumVmhzwfv1x/Phxbr31Vl588UUnHvc88F0nHiTRRQGHiPhqJrDGbuPRo0ezZs0a0tPTnRvRN2hr91Bctp+NO/eyaec+/lJ12Ph8lj5p3RnQO5WcrDSGDejFsAG9GZKdQUKX8E2HKykpYfHixezYscOJx30CzMJaUhHxiwIOEfHHe1jLK7aMHz+e1atXBy3oONPh+kaqa45Re6yRY42tHGtqpaGphU7vV5ssusTH0TWhC8lJCXRL6kJmajKZPbqRnZlKUoL5OTHB0tHRwX/+53/y0EMP0djoSD2u3Vh5GzoFVkREAm480IG1DdLWNWHCBO/hw4e9Ejiff/65d+LEibZ/Rue49gFDAvvREhEROd2jGL7A8vPzvVVVVaF+L7vOsWPHvPfcc483Pj7eyWDjAJAf2I+UiIjI2boDezF8keXk5Hh37doV6ne0KzQ1NXkffvhhb2ZmppOBxslgY2QgP0wiIiLfZCEOvNCysrK8n332Wajf1xGrtbXV+8QTT3izs7OdDjS8WIW9tIwiIiIhtwwHXmyJiYnexx57LNTv7ojS3t7ufeqpp7y5ubmBCDS8QDHQN3AfHRERmdozNAAAA8FJREFUEd8lYlWadOQlt3DhQu/Ro0dD/S4Paw0NDd4nnnjCO2TIkEAFGl5gLdAzQJ8ZERERWwYBdTj0ssvNzfW+//77oX6vh53du3d77777bm/Pnj0DGWh4gVeApMB8VERERMwsAjpx6KUXExPjvfHGG7379+8P9Xs+pFpaWrwrV670zps3zxsbGxvoQMMLPIYO9BQRkTD3MA6/AFNSUrwPPfSQt6GhIdTv/qDxeDzeDz74wHvLLbd409PTgxFkeLFOe709AJ8JERERx8Vjrf07/kLMzMz0/vrXv/Y2NjaGOh4IiPb2du+HH37oveuuu7z9+vULVpBx8qoELnT4syAiIhJQfbG2Ugbk5di7d2/vz372M29tbW2oYwRj+/fv9z711FPeq6++2puamhrsIOPk9TKQ6eQHQEREJFhysX5rDtiLMjk52fv973/fu27dulDHDT6rr6/3rlq1ynv//fd7x48f742JiQlVkOEFaoFrnfuRi4iIhMYQoIogvDyHDBnive+++7yffPKJ1+PxhDqu+FJ1dbX35Zdf9t55553ecePGeePi4kIZYJx6/QHo48hPWcRPOi1WRAIhD3gf6BesDtPS0pgxYwazZs1iwoQJjBkzhp49A19Oorq6ms2bN1NUVMTmzZvZuHEj5eXlAe/XTzuBO7BO+xUJCQUcIhIoFwBvEcKDv3Jzcxk2bBgjR45k0KBB5OTkkJOTQ3Z2tk/BSEtLCwcPHqS6uppDhw6xd+9e9u3bR2lpKbt27WLXrl0cP348CP+f2NYM/BJrF1FLiMciUU4Bh4gEUgbwJvBXoR7ImWJiYkhLSzsr8Ojs7KS+vp6mpiZaW1tDNDpHvAbcBewJ9UBERESCIQVYRejzF6LlWgtM9+knIyIi4jJxwKOE/mXs5mstcIWvPxARERE3+zZwhNC/nN1ydQCvAlP8+SGIiIhEgwFAIaF/WUfyVQX83xN/lyIiIvINFhGkeh0uudqA14Gr0CFrIiIifknByu1oJ/Qv9HC9tgD3oYJdIiIixsYCHxP6l3u4XF8ADxLCGiYiIiJuNg/YQOhf+MG+OoHNwE+B4cZ/iyIiIuKTi4EXsKpjhjoYCNRVBTwNXA9kOfPXJiIiInb0wqqWuZXQBwimVy1W0uedaBZDREQkbE0BlgH7CX3w4Mv1F+D3wK1YAYaOkpCopn8AIhJpYrGCj8uAGcBFQLeQjggOYOVgFAGfAp8Ah0M6IpEwo4BDRCJdHJAHjDvlGgVkO9xPJ7AXKMU67v0vwHagGCvgEJFv8P8Bp43xg3nmQHAAAAAASUVORK5CYII=;" parent="1" vertex="1">
          <mxGeometry x="478" y="542" width="72.71" height="75" as="geometry" />
        </mxCell>
        <mxCell id="wVApdM7j8vLzc2VSNfJm-26" value="&lt;span style=&quot;font-size: 22px;&quot;&gt;数据库TELE-PG&lt;/span&gt;" style="text;html=1;strokeColor=none;fillColor=none;align=right;verticalAlign=middle;whiteSpace=wrap;rounded=0;shadow=0;dashed=0;fontFamily=Helvetica;fontSize=22;fontColor=#FFFFFF;" parent="1" vertex="1">
          <mxGeometry x="298" y="567" width="310" height="150" as="geometry" />
        </mxCell>
        <mxCell id="wVApdM7j8vLzc2VSNfJm-28" value="" style="shape=image;verticalLabelPosition=bottom;labelBackgroundColor=default;verticalAlign=top;aspect=fixed;imageAspect=0;image=https://miro.medium.com/max/1400/1*BmvPfSSm2G8C-khX1rhCGg.png;" parent="1" vertex="1">
          <mxGeometry x="628" y="545.75" width="235.93" height="122.5" as="geometry" />
        </mxCell>
        <mxCell id="wVApdM7j8vLzc2VSNfJm-33" value="" style="shape=image;verticalLabelPosition=bottom;labelBackgroundColor=default;verticalAlign=top;aspect=fixed;imageAspect=0;image=https://d3ixtcdq6iye11.cloudfront.net/storage/public/article/11/160933610492768518.jpg;" parent="1" vertex="1">
          <mxGeometry x="908" y="544.5" width="185.71" height="70" as="geometry" />
        </mxCell>
        <mxCell id="wVApdM7j8vLzc2VSNfJm-34" value="&lt;span style=&quot;font-size: 36px;&quot;&gt;Ctg-Cache&lt;/span&gt;" style="text;html=1;strokeColor=none;fillColor=none;align=right;verticalAlign=middle;whiteSpace=wrap;rounded=0;shadow=0;dashed=0;fontFamily=Helvetica;fontSize=150;fontColor=#FFFFFF;" parent="1" vertex="1">
          <mxGeometry x="868" y="532" width="230" height="150" as="geometry" />
        </mxCell>
        <mxCell id="wVApdM7j8vLzc2VSNfJm-35" value="" style="shape=ext;double=1;rounded=1;whiteSpace=wrap;html=1;fontSize=22;fontColor=#FF33FF;fillColor=none;" parent="1" vertex="1">
          <mxGeometry x="198" y="778" width="510" height="402" as="geometry" />
        </mxCell>
        <mxCell id="wVApdM7j8vLzc2VSNfJm-39" value="大数据平台" style="text;strokeColor=#6c8ebf;fillColor=#dae8fc;html=1;fontSize=24;fontStyle=1;verticalAlign=middle;align=center;" parent="1" vertex="1">
          <mxGeometry x="198" y="778" width="510" height="56" as="geometry" />
        </mxCell>
        <mxCell id="wVApdM7j8vLzc2VSNfJm-40" value="计算层" style="text;strokeColor=none;fillColor=none;html=1;fontSize=24;fontStyle=1;verticalAlign=middle;align=center;fontColor=#330000;" parent="1" vertex="1">
          <mxGeometry x="233" y="868" width="100" height="40" as="geometry" />
        </mxCell>
        <mxCell id="wVApdM7j8vLzc2VSNfJm-41" value="" style="shape=image;verticalLabelPosition=bottom;labelBackgroundColor=default;verticalAlign=top;aspect=fixed;imageAspect=0;image=https://upload.wikimedia.org/wikipedia/commons/thumb/f/f3/Apache_Spark_logo.svg/2560px-Apache_Spark_logo.svg.png;" parent="1" vertex="1">
          <mxGeometry x="374.07" y="865" width="159.85" height="83" as="geometry" />
        </mxCell>
        <mxCell id="wVApdM7j8vLzc2VSNfJm-43" value="" style="rounded=1;arcSize=9;align=left;spacingLeft=5;strokeColor=#E6E6E6;html=1;strokeWidth=2;fontSize=12;fontColor=#330000;fillColor=#E6E6E6;" parent="1" vertex="1">
          <mxGeometry x="204" y="970" width="500" height="15" as="geometry" />
        </mxCell>
        <mxCell id="wVApdM7j8vLzc2VSNfJm-44" value="存储层" style="text;strokeColor=none;fillColor=none;html=1;fontSize=24;fontStyle=1;verticalAlign=middle;align=center;fontColor=#330000;" parent="1" vertex="1">
          <mxGeometry x="228" y="1030" width="100" height="40" as="geometry" />
        </mxCell>
        <mxCell id="wVApdM7j8vLzc2VSNfJm-45" value="" style="shape=image;verticalLabelPosition=bottom;labelBackgroundColor=default;verticalAlign=top;aspect=fixed;imageAspect=0;image=https://intellipaat.com/mediaFiles/2015/07/hadoop-hdfs.png;" parent="1" vertex="1">
          <mxGeometry x="359" y="1003" width="211.92" height="100" as="geometry" />
        </mxCell>
        <mxCell id="wVApdM7j8vLzc2VSNfJm-47" value="" style="verticalLabelPosition=bottom;verticalAlign=top;html=1;shape=mxgraph.basic.corner_round_rect;dx=6;whiteSpace=wrap;strokeColor=#E6E6E6;fontSize=22;fontColor=#330000;fillColor=#FFFFFF;strokeWidth=12;" parent="1" vertex="1">
          <mxGeometry x="768" y="788" width="620" height="382" as="geometry" />
        </mxCell>
        <mxCell id="wVApdM7j8vLzc2VSNfJm-48" value="周边系统生产库" style="text;strokeColor=none;fillColor=#E6E6E6;html=1;fontSize=35;fontStyle=1;verticalAlign=middle;align=center;" parent="1" vertex="1">
          <mxGeometry x="768" y="789" width="616" height="51" as="geometry" />
        </mxCell>
        <mxCell id="wVApdM7j8vLzc2VSNfJm-52" value="Geosever" style="text;html=1;strokeColor=none;fillColor=none;align=center;verticalAlign=middle;whiteSpace=wrap;rounded=0;fontSize=52;fontColor=#330000;fontFamily=Architects Daughter;fontSource=https%3A%2F%2Ffonts.googleapis.com%2Fcss%3Ffamily%3DArchitects%2BDaughter;" parent="1" vertex="1">
          <mxGeometry x="968" y="868" width="150" height="90" as="geometry" />
        </mxCell>
        <mxCell id="wVApdM7j8vLzc2VSNfJm-53" value="" style="shape=image;verticalLabelPosition=bottom;labelBackgroundColor=default;verticalAlign=top;aspect=fixed;imageAspect=0;image=http://postgis.net/workshops/postgis-intro/_static/img/postgis-logo.png;" parent="1" vertex="1">
          <mxGeometry x="1158" y="868" width="210" height="79" as="geometry" />
        </mxCell>
        <mxCell id="wVApdM7j8vLzc2VSNfJm-54" value="资源中心&lt;br&gt;数据库" style="text;html=1;strokeColor=none;fillColor=none;align=center;verticalAlign=middle;whiteSpace=wrap;rounded=0;strokeWidth=12;fontFamily=Architects Daughter;fontSource=https%3A%2F%2Ffonts.googleapis.com%2Fcss%3Ffamily%3DArchitects%2BDaughter;fontSize=32;fontColor=#330000;" parent="1" vertex="1">
          <mxGeometry x="665" y="1056" width="400" height="30" as="geometry" />
        </mxCell>
        <mxCell id="wVApdM7j8vLzc2VSNfJm-55" value="&lt;span style=&quot;font-size: 22px;&quot;&gt;TELE-PG&lt;/span&gt;" style="text;html=1;strokeColor=#9673a6;fillColor=#e1d5e7;align=center;verticalAlign=middle;whiteSpace=wrap;rounded=0;shadow=0;dashed=0;fontFamily=Helvetica;fontSize=22;" parent="1" vertex="1">
          <mxGeometry x="992" y="1026" width="310" height="90" as="geometry" />
        </mxCell>
        <mxCell id="wVApdM7j8vLzc2VSNfJm-57" value="Iass层&amp;nbsp; &amp;nbsp; &amp;nbsp; &amp;nbsp; &amp;nbsp; &amp;nbsp; &amp;nbsp; &amp;nbsp; 计算&amp;nbsp; &amp;nbsp; &amp;nbsp; &amp;nbsp; &amp;nbsp; &amp;nbsp; &amp;nbsp; &amp;nbsp; &amp;nbsp; 存储&amp;nbsp; &amp;nbsp; &amp;nbsp; &amp;nbsp; &amp;nbsp; &amp;nbsp; &amp;nbsp; &amp;nbsp; &amp;nbsp; &amp;nbsp;网络&amp;nbsp; &amp;nbsp; &amp;nbsp; &amp;nbsp; &amp;nbsp; &amp;nbsp; ...." style="rounded=0;whiteSpace=wrap;html=1;strokeWidth=2;fillWeight=4;hachureGap=8;hachureAngle=45;fillColor=#1ba1e2;sketch=0;strokeColor=#E6E6E6;fontFamily=Architects Daughter;fontSource=https%3A%2F%2Ffonts.googleapis.com%2Fcss%3Ffamily%3DArchitects%2BDaughter;fontSize=32;fontColor=#330000;glass=1;opacity=30;shadow=1;" parent="1" vertex="1">
          <mxGeometry x="198" y="1180" width="1350" height="60" as="geometry" />
        </mxCell>
        <mxCell id="f99rPzXoqe__mbbNH6rX-7" value="" style="shape=image;verticalLabelPosition=bottom;labelBackgroundColor=default;verticalAlign=top;aspect=fixed;imageAspect=0;image=https://ashishthanki.github.io/static/9ff9acd6ae58a070105d75087de00329/adf58/pandas_python_logo.png;" parent="1" vertex="1">
          <mxGeometry x="441" y="722" width="131.63" height="55" as="geometry" />
        </mxCell>
        <mxCell id="Bk-TRz2a3Q79jIkBDdHp-4" value="" style="shape=image;verticalLabelPosition=bottom;labelBackgroundColor=default;verticalAlign=top;aspect=fixed;imageAspect=0;image=https://raw.githubusercontent.com/RRZE-PP/rrze-icon-set/1ca2bf9ff5b75b1ea652451f31493ccbb8256245/bicons/scalable/logos/docker.svg;" vertex="1" parent="1">
          <mxGeometry x="1314" y="-20" width="92.71" height="131" as="geometry" />
        </mxCell>
        <mxCell id="Bk-TRz2a3Q79jIkBDdHp-7" value="" style="shape=image;verticalLabelPosition=bottom;labelBackgroundColor=default;verticalAlign=top;aspect=fixed;imageAspect=0;image=https://raw.githubusercontent.com/RRZE-PP/rrze-icon-set/1ca2bf9ff5b75b1ea652451f31493ccbb8256245/bicons/scalable/logos/docker.svg;" vertex="1" parent="1">
          <mxGeometry x="1318" y="234" width="92.71" height="131" as="geometry" />
        </mxCell>
        <mxCell id="Bk-TRz2a3Q79jIkBDdHp-9" value="" style="shape=image;verticalLabelPosition=bottom;labelBackgroundColor=default;verticalAlign=top;aspect=fixed;imageAspect=0;image=https://previews.123rf.com/images/dizanna/dizanna2103/dizanna210300690/164860091-gis-geographic-information-system-acronym-concept-background.jpg;" vertex="1" parent="1">
          <mxGeometry x="791" y="853" width="117" height="117" as="geometry" />
        </mxCell>
      </root>
    </mxGraphModel>
  </diagram>
</mxfile>
